<?xml version="1.0" encoding="utf-8" standalone="no"?>
<!DOCTYPE svg PUBLIC "-//W3C//DTD SVG 1.1//EN"
  "http://www.w3.org/Graphics/SVG/1.1/DTD/svg11.dtd">
<svg xmlns:xlink="http://www.w3.org/1999/xlink" width="1720.69pt" height="423.99625pt" viewBox="0 0 1720.69 423.99625" xmlns="http://www.w3.org/2000/svg" version="1.1">
 <metadata>
  <rdf:RDF xmlns:dc="http://purl.org/dc/elements/1.1/" xmlns:cc="http://creativecommons.org/ns#" xmlns:rdf="http://www.w3.org/1999/02/22-rdf-syntax-ns#">
   <cc:Work>
    <dc:type rdf:resource="http://purl.org/dc/dcmitype/StillImage"/>
    <dc:date>2025-04-30T13:44:59.079047</dc:date>
    <dc:format>image/svg+xml</dc:format>
    <dc:creator>
     <cc:Agent>
      <dc:title>Matplotlib v3.9.2, https://matplotlib.org/</dc:title>
     </cc:Agent>
    </dc:creator>
   </cc:Work>
  </rdf:RDF>
 </metadata>
 <defs>
  <style type="text/css">*{stroke-linejoin: round; stroke-linecap: butt}</style>
 </defs>
 <g id="figure_1">
  <g id="patch_1">
   <path d="M 0 423.99625 
L 1720.69 423.99625 
L 1720.69 0 
L 0 0 
z
" style="fill: #ffffff"/>
  </g>
  <g id="axes_1">
   <g id="patch_2">
    <path d="M 39.65 390.44 
L 861.6075 390.44 
L 861.6075 7.2 
L 39.65 7.2 
z
" style="fill: #ffffff"/>
   </g>
   <g id="PolyCollection_1">
    <defs>
     <path id="m5b22888002" d="M -66.111811 -33.961749 
L -66.111811 -33.55625 
L -61.264197 -33.55625 
L -56.416583 -33.55625 
L -51.568968 -33.55625 
L -46.721354 -33.55625 
L -41.87374 -33.55625 
L -37.026126 -33.55625 
L -32.178511 -33.55625 
L -27.330897 -33.55625 
L -22.483283 -33.55625 
L -17.635669 -33.55625 
L -12.788054 -33.55625 
L -7.94044 -33.55625 
L -3.092826 -33.55625 
L 1.754788 -33.55625 
L 6.602403 -33.55625 
L 11.450017 -33.55625 
L 16.297631 -33.55625 
L 21.145245 -33.55625 
L 25.99286 -33.55625 
L 30.840474 -33.55625 
L 35.688088 -33.55625 
L 40.535702 -33.55625 
L 45.383316 -33.55625 
L 50.230931 -33.55625 
L 55.078545 -33.55625 
L 59.926159 -33.55625 
L 64.773773 -33.55625 
L 69.621388 -33.55625 
L 74.469002 -33.55625 
L 79.316616 -33.55625 
L 84.16423 -33.55625 
L 89.011845 -33.55625 
L 93.859459 -33.55625 
L 98.707073 -33.55625 
L 103.554687 -33.55625 
L 108.402302 -33.55625 
L 113.249916 -33.55625 
L 118.09753 -33.55625 
L 122.945144 -33.55625 
L 127.792759 -33.55625 
L 132.640373 -33.55625 
L 137.487987 -33.55625 
L 142.335601 -33.55625 
L 147.183216 -33.55625 
L 152.03083 -33.55625 
L 156.878444 -33.55625 
L 161.726058 -33.55625 
L 166.573673 -33.55625 
L 171.421287 -33.55625 
L 176.268901 -33.55625 
L 181.116515 -33.55625 
L 185.96413 -33.55625 
L 190.811744 -33.55625 
L 195.659358 -33.55625 
L 200.506972 -33.55625 
L 205.354586 -33.55625 
L 210.202201 -33.55625 
L 215.049815 -33.55625 
L 219.897429 -33.55625 
L 224.745043 -33.55625 
L 229.592658 -33.55625 
L 234.440272 -33.55625 
L 239.287886 -33.55625 
L 244.1355 -33.55625 
L 248.983115 -33.55625 
L 253.830729 -33.55625 
L 258.678343 -33.55625 
L 263.525957 -33.55625 
L 268.373572 -33.55625 
L 273.221186 -33.55625 
L 278.0688 -33.55625 
L 282.916414 -33.55625 
L 287.764029 -33.55625 
L 292.611643 -33.55625 
L 297.459257 -33.55625 
L 302.306871 -33.55625 
L 307.154486 -33.55625 
L 312.0021 -33.55625 
L 316.849714 -33.55625 
L 321.697328 -33.55625 
L 326.544943 -33.55625 
L 331.392557 -33.55625 
L 336.240171 -33.55625 
L 341.087785 -33.55625 
L 345.9354 -33.55625 
L 350.783014 -33.55625 
L 355.630628 -33.55625 
L 360.478242 -33.55625 
L 365.325856 -33.55625 
L 370.173471 -33.55625 
L 375.021085 -33.55625 
L 379.868699 -33.55625 
L 384.716313 -33.55625 
L 389.563928 -33.55625 
L 394.411542 -33.55625 
L 399.259156 -33.55625 
L 404.10677 -33.55625 
L 408.954385 -33.55625 
L 413.801999 -33.55625 
L 418.649613 -33.55625 
L 423.497227 -33.55625 
L 428.344842 -33.55625 
L 433.192456 -33.55625 
L 438.04007 -33.55625 
L 442.887684 -33.55625 
L 447.735299 -33.55625 
L 452.582913 -33.55625 
L 457.430527 -33.55625 
L 462.278141 -33.55625 
L 467.125756 -33.55625 
L 471.97337 -33.55625 
L 476.820984 -33.55625 
L 481.668598 -33.55625 
L 486.516213 -33.55625 
L 491.363827 -33.55625 
L 496.211441 -33.55625 
L 501.059055 -33.55625 
L 505.90667 -33.55625 
L 510.754284 -33.55625 
L 515.601898 -33.55625 
L 520.449512 -33.55625 
L 525.297126 -33.55625 
L 530.144741 -33.55625 
L 534.992355 -33.55625 
L 539.839969 -33.55625 
L 544.687583 -33.55625 
L 549.535198 -33.55625 
L 554.382812 -33.55625 
L 559.230426 -33.55625 
L 564.07804 -33.55625 
L 568.925655 -33.55625 
L 573.773269 -33.55625 
L 578.620883 -33.55625 
L 583.468497 -33.55625 
L 588.316112 -33.55625 
L 593.163726 -33.55625 
L 598.01134 -33.55625 
L 602.858954 -33.55625 
L 607.706569 -33.55625 
L 612.554183 -33.55625 
L 617.401797 -33.55625 
L 622.249411 -33.55625 
L 627.097026 -33.55625 
L 631.94464 -33.55625 
L 636.792254 -33.55625 
L 641.639868 -33.55625 
L 646.487483 -33.55625 
L 651.335097 -33.55625 
L 656.182711 -33.55625 
L 661.030325 -33.55625 
L 665.87794 -33.55625 
L 670.725554 -33.55625 
L 675.573168 -33.55625 
L 680.420782 -33.55625 
L 685.268396 -33.55625 
L 690.116011 -33.55625 
L 694.963625 -33.55625 
L 699.811239 -33.55625 
L 704.658853 -33.55625 
L 709.506468 -33.55625 
L 714.354082 -33.55625 
L 719.201696 -33.55625 
L 724.04931 -33.55625 
L 728.896925 -33.55625 
L 733.744539 -33.55625 
L 738.592153 -33.55625 
L 743.439767 -33.55625 
L 748.287382 -33.55625 
L 753.134996 -33.55625 
L 757.98261 -33.55625 
L 762.830224 -33.55625 
L 767.677839 -33.55625 
L 772.525453 -33.55625 
L 777.373067 -33.55625 
L 782.220681 -33.55625 
L 787.068296 -33.55625 
L 791.91591 -33.55625 
L 796.763524 -33.55625 
L 801.611138 -33.55625 
L 806.458753 -33.55625 
L 811.306367 -33.55625 
L 816.153981 -33.55625 
L 821.001595 -33.55625 
L 825.84921 -33.55625 
L 830.696824 -33.55625 
L 835.544438 -33.55625 
L 840.392052 -33.55625 
L 845.239666 -33.55625 
L 850.087281 -33.55625 
L 854.934895 -33.55625 
L 859.782509 -33.55625 
L 864.630123 -33.55625 
L 869.477738 -33.55625 
L 874.325352 -33.55625 
L 879.172966 -33.55625 
L 884.02058 -33.55625 
L 888.868195 -33.55625 
L 893.715809 -33.55625 
L 898.563423 -33.55625 
L 898.563423 -33.580283 
L 898.563423 -33.580283 
L 893.715809 -33.59182 
L 888.868195 -33.607963 
L 884.02058 -33.630101 
L 879.172966 -33.659849 
L 874.325352 -33.699007 
L 869.477738 -33.749483 
L 864.630123 -33.813179 
L 859.782509 -33.891827 
L 854.934895 -33.986798 
L 850.087281 -34.098884 
L 845.239666 -34.228074 
L 840.392052 -34.373351 
L 835.544438 -34.532551 
L 830.696824 -34.702292 
L 825.84921 -34.878024 
L 821.001595 -35.054207 
L 816.153981 -35.224628 
L 811.306367 -35.382835 
L 806.458753 -35.522681 
L 801.611138 -35.638909 
L 796.763524 -35.72775 
L 791.91591 -35.787446 
L 787.068296 -35.818662 
L 782.220681 -35.82472 
L 777.373067 -35.81164 
L 772.525453 -35.787947 
L 767.677839 -35.764283 
L 762.830224 -35.752816 
L 757.98261 -35.766517 
L 753.134996 -35.818339 
L 748.287382 -35.920367 
L 743.439767 -36.083005 
L 738.592153 -36.314252 
L 733.744539 -36.619135 
L 728.896925 -36.999335 
L 724.04931 -37.453055 
L 719.201696 -37.975135 
L 714.354082 -38.557437 
L 709.506468 -39.189462 
L 704.658853 -39.859164 
L 699.811239 -40.553908 
L 694.963625 -41.261473 
L 690.116011 -41.971027 
L 685.268396 -42.673977 
L 680.420782 -43.364614 
L 675.573168 -44.040497 
L 670.725554 -44.702548 
L 665.87794 -45.354856 
L 661.030325 -46.004215 
L 656.182711 -46.659469 
L 651.335097 -47.330709 
L 646.487483 -48.028416 
L 641.639868 -48.76263 
L 636.792254 -49.542196 
L 631.94464 -50.374169 
L 627.097026 -51.263413 
L 622.249411 -52.212446 
L 617.401797 -53.221541 
L 612.554183 -54.289112 
L 607.706569 -55.412366 
L 602.858954 -56.588181 
L 598.01134 -57.814152 
L 593.163726 -59.089688 
L 588.316112 -60.417052 
L 583.468497 -61.802178 
L 578.620883 -63.255144 
L 573.773269 -64.790187 
L 568.925655 -66.425192 
L 564.07804 -68.180679 
L 559.230426 -70.078351 
L 554.382812 -72.139367 
L 549.535198 -74.382537 
L 544.687583 -76.822674 
L 539.839969 -79.469329 
L 534.992355 -82.326093 
L 530.144741 -85.390595 
L 525.297126 -88.65525 
L 520.449512 -92.108708 
L 515.601898 -95.73789 
L 510.754284 -99.530421 
L 505.90667 -103.47724 
L 501.059055 -107.575103 
L 496.211441 -111.828735 
L 491.363827 -116.252359 
L 486.516213 -120.870382 
L 481.668598 -125.717038 
L 476.820984 -130.83488 
L 471.97337 -136.272047 
L 467.125756 -142.078367 
L 462.278141 -148.300456 
L 457.430527 -154.976119 
L 452.582913 -162.128478 
L 447.735299 -169.760407 
L 442.887684 -177.849894 
L 438.04007 -186.347005 
L 433.192456 -195.173042 
L 428.344842 -204.22234 
L 423.497227 -213.366888 
L 418.649613 -222.46366 
L 413.801999 -231.364181 
L 408.954385 -239.925543 
L 404.10677 -248.021815 
L 399.259156 -255.554657 
L 394.411542 -262.461962 
L 389.563928 -268.723508 
L 384.716313 -274.362919 
L 379.868699 -279.445637 
L 375.021085 -284.073051 
L 370.173471 -288.373373 
L 365.325856 -292.490195 
L 360.478242 -296.569859 
L 355.630628 -300.748878 
L 350.783014 -305.142551 
L 345.9354 -309.835714 
L 341.087785 -314.876294 
L 336.240171 -320.272035 
L 331.392557 -325.990421 
L 326.544943 -331.961603 
L 321.697328 -338.083903 
L 316.849714 -344.231339 
L 312.0021 -350.26256 
L 307.154486 -356.030509 
L 302.306871 -361.392174 
L 297.459257 -366.217793 
L 292.611643 -370.398942 
L 287.764029 -373.855004 
L 282.916414 -376.537642 
L 278.0688 -378.433002 
L 273.221186 -379.561589 
L 268.373572 -379.975888 
L 263.525957 -379.756007 
L 258.678343 -379.003787 
L 253.830729 -377.835889 
L 248.983115 -376.376488 
L 244.1355 -374.750142 
L 239.287886 -373.075352 
L 234.440272 -371.459229 
L 229.592658 -369.9935 
L 224.745043 -368.75194 
L 219.897429 -367.789171 
L 215.049815 -367.140632 
L 210.202201 -366.823436 
L 205.354586 -366.837818 
L 200.506972 -367.16886 
L 195.659358 -367.788243 
L 190.811744 -368.655866 
L 185.96413 -369.721273 
L 181.116515 -370.924912 
L 176.268901 -372.199351 
L 171.421287 -373.470609 
L 166.573673 -374.659758 
L 161.726058 -375.684894 
L 156.878444 -376.463491 
L 152.03083 -376.91501 
L 147.183216 -376.963534 
L 142.335601 -376.540081 
L 137.487987 -375.584218 
L 132.640373 -374.044624 
L 127.792759 -371.878372 
L 122.945144 -369.048881 
L 118.09753 -365.522762 
L 113.249916 -361.265991 
L 108.402302 -356.240131 
L 103.554687 -350.399399 
L 98.707073 -343.68942 
L 93.859459 -336.048372 
L 89.011845 -327.41091 
L 84.16423 -317.714876 
L 79.316616 -306.910321 
L 74.469002 -294.969928 
L 69.621388 -281.899538 
L 64.773773 -267.747354 
L 59.926159 -252.610356 
L 55.078545 -236.636772 
L 50.230931 -220.023872 
L 45.383316 -203.010947 
L 40.535702 -185.867952 
L 35.688088 -168.880863 
L 30.840474 -152.335234 
L 25.99286 -136.499624 
L 21.145245 -121.610575 
L 16.297631 -107.860539 
L 11.450017 -95.389773 
L 6.602403 -84.28267 
L 1.754788 -74.568482 
L -3.092826 -66.225904 
L -7.94044 -59.190656 
L -12.788054 -53.364972 
L -17.635669 -48.627907 
L -22.483283 -44.845437 
L -27.330897 -41.879537 
L -32.178511 -39.595708 
L -37.026126 -37.868643 
L -41.87374 -36.586005 
L -46.721354 -35.650468 
L -51.568968 -34.980289 
L -56.416583 -34.508764 
L -61.264197 -34.182917 
L -66.111811 -33.961749 
z
"/>
    </defs>
    <g clip-path="url(#pb97e620cec)">
     <use xlink:href="#m5b22888002" x="0" y="423.99625" style="fill: #a9a9a9; fill-opacity: 0.6"/>
    </g>
   </g>
   <g id="PolyCollection_2">
    <defs>
     <path id="mdaf0120e3d" d="M -79.685912 -34.024144 
L -79.685912 -33.55625 
L -74.680389 -33.55625 
L -69.674865 -33.55625 
L -64.669342 -33.55625 
L -59.663818 -33.55625 
L -54.658295 -33.55625 
L -49.652771 -33.55625 
L -44.647247 -33.55625 
L -39.641724 -33.55625 
L -34.6362 -33.55625 
L -29.630677 -33.55625 
L -24.625153 -33.55625 
L -19.619629 -33.55625 
L -14.614106 -33.55625 
L -9.608582 -33.55625 
L -4.603059 -33.55625 
L 0.402465 -33.55625 
L 5.407988 -33.55625 
L 10.413512 -33.55625 
L 15.419036 -33.55625 
L 20.424559 -33.55625 
L 25.430083 -33.55625 
L 30.435606 -33.55625 
L 35.44113 -33.55625 
L 40.446653 -33.55625 
L 45.452177 -33.55625 
L 50.457701 -33.55625 
L 55.463224 -33.55625 
L 60.468748 -33.55625 
L 65.474271 -33.55625 
L 70.479795 -33.55625 
L 75.485318 -33.55625 
L 80.490842 -33.55625 
L 85.496366 -33.55625 
L 90.501889 -33.55625 
L 95.507413 -33.55625 
L 100.512936 -33.55625 
L 105.51846 -33.55625 
L 110.523983 -33.55625 
L 115.529507 -33.55625 
L 120.535031 -33.55625 
L 125.540554 -33.55625 
L 130.546078 -33.55625 
L 135.551601 -33.55625 
L 140.557125 -33.55625 
L 145.562648 -33.55625 
L 150.568172 -33.55625 
L 155.573696 -33.55625 
L 160.579219 -33.55625 
L 165.584743 -33.55625 
L 170.590266 -33.55625 
L 175.59579 -33.55625 
L 180.601313 -33.55625 
L 185.606837 -33.55625 
L 190.612361 -33.55625 
L 195.617884 -33.55625 
L 200.623408 -33.55625 
L 205.628931 -33.55625 
L 210.634455 -33.55625 
L 215.639978 -33.55625 
L 220.645502 -33.55625 
L 225.651026 -33.55625 
L 230.656549 -33.55625 
L 235.662073 -33.55625 
L 240.667596 -33.55625 
L 245.67312 -33.55625 
L 250.678643 -33.55625 
L 255.684167 -33.55625 
L 260.689691 -33.55625 
L 265.695214 -33.55625 
L 270.700738 -33.55625 
L 275.706261 -33.55625 
L 280.711785 -33.55625 
L 285.717308 -33.55625 
L 290.722832 -33.55625 
L 295.728356 -33.55625 
L 300.733879 -33.55625 
L 305.739403 -33.55625 
L 310.744926 -33.55625 
L 315.75045 -33.55625 
L 320.755973 -33.55625 
L 325.761497 -33.55625 
L 330.767021 -33.55625 
L 335.772544 -33.55625 
L 340.778068 -33.55625 
L 345.783591 -33.55625 
L 350.789115 -33.55625 
L 355.794639 -33.55625 
L 360.800162 -33.55625 
L 365.805686 -33.55625 
L 370.811209 -33.55625 
L 375.816733 -33.55625 
L 380.822256 -33.55625 
L 385.82778 -33.55625 
L 390.833304 -33.55625 
L 395.838827 -33.55625 
L 400.844351 -33.55625 
L 405.849874 -33.55625 
L 410.855398 -33.55625 
L 415.860921 -33.55625 
L 420.866445 -33.55625 
L 425.871969 -33.55625 
L 430.877492 -33.55625 
L 435.883016 -33.55625 
L 440.888539 -33.55625 
L 445.894063 -33.55625 
L 450.899586 -33.55625 
L 455.90511 -33.55625 
L 460.910634 -33.55625 
L 465.916157 -33.55625 
L 470.921681 -33.55625 
L 475.927204 -33.55625 
L 480.932728 -33.55625 
L 485.938251 -33.55625 
L 490.943775 -33.55625 
L 495.949299 -33.55625 
L 500.954822 -33.55625 
L 505.960346 -33.55625 
L 510.965869 -33.55625 
L 515.971393 -33.55625 
L 520.976916 -33.55625 
L 525.98244 -33.55625 
L 530.987964 -33.55625 
L 535.993487 -33.55625 
L 540.999011 -33.55625 
L 546.004534 -33.55625 
L 551.010058 -33.55625 
L 556.015581 -33.55625 
L 561.021105 -33.55625 
L 566.026629 -33.55625 
L 571.032152 -33.55625 
L 576.037676 -33.55625 
L 581.043199 -33.55625 
L 586.048723 -33.55625 
L 591.054246 -33.55625 
L 596.05977 -33.55625 
L 601.065294 -33.55625 
L 606.070817 -33.55625 
L 611.076341 -33.55625 
L 616.081864 -33.55625 
L 621.087388 -33.55625 
L 626.092911 -33.55625 
L 631.098435 -33.55625 
L 636.103959 -33.55625 
L 641.109482 -33.55625 
L 646.115006 -33.55625 
L 651.120529 -33.55625 
L 656.126053 -33.55625 
L 661.131576 -33.55625 
L 666.1371 -33.55625 
L 671.142624 -33.55625 
L 676.148147 -33.55625 
L 681.153671 -33.55625 
L 686.159194 -33.55625 
L 691.164718 -33.55625 
L 696.170242 -33.55625 
L 701.175765 -33.55625 
L 706.181289 -33.55625 
L 711.186812 -33.55625 
L 716.192336 -33.55625 
L 721.197859 -33.55625 
L 726.203383 -33.55625 
L 731.208907 -33.55625 
L 736.21443 -33.55625 
L 741.219954 -33.55625 
L 746.225477 -33.55625 
L 751.231001 -33.55625 
L 756.236524 -33.55625 
L 761.242048 -33.55625 
L 766.247572 -33.55625 
L 771.253095 -33.55625 
L 776.258619 -33.55625 
L 781.264142 -33.55625 
L 786.269666 -33.55625 
L 791.275189 -33.55625 
L 796.280713 -33.55625 
L 801.286237 -33.55625 
L 806.29176 -33.55625 
L 811.297284 -33.55625 
L 816.302807 -33.55625 
L 821.308331 -33.55625 
L 826.313854 -33.55625 
L 831.319378 -33.55625 
L 836.324902 -33.55625 
L 841.330425 -33.55625 
L 846.335949 -33.55625 
L 851.341472 -33.55625 
L 856.346996 -33.55625 
L 861.352519 -33.55625 
L 866.358043 -33.55625 
L 871.363567 -33.55625 
L 876.36909 -33.55625 
L 881.374614 -33.55625 
L 886.380137 -33.55625 
L 891.385661 -33.55625 
L 896.391184 -33.55625 
L 901.396708 -33.55625 
L 906.402232 -33.55625 
L 911.407755 -33.55625 
L 916.413279 -33.55625 
L 916.413279 -33.594561 
L 916.413279 -33.594561 
L 911.407755 -33.610544 
L 906.402232 -33.63212 
L 901.396708 -33.660792 
L 896.391184 -33.698289 
L 891.385661 -33.746542 
L 886.380137 -33.80763 
L 881.374614 -33.883694 
L 876.36909 -33.976826 
L 871.363567 -34.088912 
L 866.358043 -34.221466 
L 861.352519 -34.375433 
L 856.346996 -34.55099 
L 851.341472 -34.747371 
L 846.335949 -34.962711 
L 841.330425 -35.193959 
L 836.324902 -35.436861 
L 831.319378 -35.686036 
L 826.313854 -35.935158 
L 821.308331 -36.177238 
L 816.302807 -36.405 
L 811.297284 -36.611331 
L 806.29176 -36.789771 
L 801.286237 -36.935014 
L 796.280713 -37.043361 
L 791.275189 -37.113108 
L 786.269666 -37.144807 
L 781.264142 -37.141394 
L 776.258619 -37.108143 
L 771.253095 -37.052476 
L 766.247572 -36.983602 
L 761.242048 -36.912051 
L 756.236524 -36.849096 
L 751.231001 -36.806152 
L 746.225477 -36.794153 
L 741.219954 -36.822991 
L 736.21443 -36.901036 
L 731.208907 -37.03478 
L 726.203383 -37.228629 
L 721.197859 -37.484855 
L 716.192336 -37.803708 
L 711.186812 -38.183693 
L 706.181289 -38.621962 
L 701.175765 -39.114819 
L 696.170242 -39.658286 
L 691.164718 -40.248686 
L 686.159194 -40.883201 
L 681.153671 -41.560357 
L 676.148147 -42.280396 
L 671.142624 -43.045504 
L 666.1371 -43.859862 
L 661.131576 -44.72953 
L 656.126053 -45.662148 
L 651.120529 -46.666494 
L 646.115006 -47.751927 
L 641.109482 -48.927759 
L 636.103959 -50.20262 
L 631.098435 -51.583866 
L 626.092911 -53.077085 
L 621.087388 -54.68574 
L 616.081864 -56.410985 
L 611.076341 -58.251651 
L 606.070817 -60.204395 
L 601.065294 -62.263988 
L 596.05977 -64.423685 
L 591.054246 -66.675635 
L 586.048723 -69.011281 
L 581.043199 -71.42171 
L 576.037676 -73.897921 
L 571.032152 -76.431035 
L 566.026629 -79.012445 
L 561.021105 -81.633971 
L 556.015581 -84.288067 
L 551.010058 -86.96815 
L 546.004534 -89.669093 
L 540.999011 -92.387919 
L 535.993487 -95.124682 
L 530.987964 -97.883515 
L 525.98244 -100.673743 
L 520.976916 -103.510954 
L 515.971393 -106.417909 
L 510.965869 -109.425114 
L 505.960346 -112.570936 
L 500.954822 -115.901139 
L 495.949299 -119.467752 
L 490.943775 -123.327237 
L 485.938251 -127.537988 
L 480.932728 -132.157226 
L 475.927204 -137.23745 
L 470.921681 -142.822626 
L 465.916157 -148.944363 
L 460.910634 -155.618349 
L 455.90511 -162.841346 
L 450.899586 -170.589031 
L 445.894063 -178.814939 
L 440.888539 -187.450735 
L 435.883016 -196.407921 
L 430.877492 -205.581019 
L 425.871969 -214.852121 
L 420.866445 -224.096595 
L 415.860921 -233.189586 
L 410.855398 -242.012871 
L 405.849874 -250.461551 
L 400.844351 -258.450046 
L 395.838827 -265.916875 
L 390.833304 -272.827801 
L 385.82778 -279.177034 
L 380.822256 -284.986358 
L 375.816733 -290.302215 
L 370.811209 -295.190966 
L 365.805686 -299.732712 
L 360.800162 -304.014156 
L 355.794639 -308.121113 
L 350.789115 -312.131239 
L 345.783591 -316.107591 
L 340.778068 -320.093491 
L 335.772544 -324.10911 
L 330.767021 -328.150004 
L 325.761497 -332.187714 
L 320.755973 -336.172345 
L 315.75045 -340.036933 
L 310.744926 -343.703225 
L 305.739403 -347.088435 
L 300.733879 -350.112428 
L 295.728356 -352.704778 
L 290.722832 -354.811121 
L 285.717308 -356.398307 
L 280.711785 -357.45792 
L 275.706261 -358.007861 
L 270.700738 -358.091866 
L 265.695214 -357.776979 
L 260.689691 -357.149182 
L 255.684167 -356.307546 
L 250.678643 -355.357394 
L 245.67312 -354.403062 
L 240.667596 -353.540873 
L 235.662073 -352.852932 
L 230.656549 -352.402241 
L 225.651026 -352.229547 
L 220.645502 -352.35212 
L 215.639978 -352.764495 
L 210.634455 -353.441022 
L 205.628931 -354.339855 
L 200.623408 -355.407937 
L 195.617884 -356.586383 
L 190.612361 -357.815698 
L 185.606837 -359.040268 
L 180.601313 -360.211676 
L 175.59579 -361.290537 
L 170.590266 -362.2467 
L 165.584743 -363.057867 
L 160.579219 -363.706827 
L 155.573696 -364.17766 
L 150.568172 -364.451346 
L 145.562648 -364.501297 
L 140.557125 -364.289298 
L 135.551601 -363.762351 
L 130.546078 -362.85078 
L 125.540554 -361.467918 
L 120.535031 -359.511507 
L 115.529507 -356.866872 
L 110.523983 -353.411738 
L 105.51846 -349.022485 
L 100.512936 -343.581467 
L 95.507413 -336.984969 
L 90.501889 -329.151245 
L 85.496366 -320.028081 
L 80.490842 -309.599287 
L 75.485318 -297.889562 
L 70.479795 -284.967262 
L 65.474271 -270.944738 
L 60.468748 -255.976054 
L 55.463224 -240.252137 
L 50.457701 -223.993569 
L 45.452177 -207.441491 
L 40.446653 -190.847188 
L 35.44113 -174.461108 
L 30.435606 -158.522068 
L 25.430083 -143.247388 
L 20.424559 -128.824621 
L 15.419036 -115.40536 
L 10.413512 -103.101433 
L 5.407988 -91.983578 
L 0.402465 -82.08247 
L -4.603059 -73.391814 
L -9.608582 -65.873073 
L -14.614106 -59.46131 
L -19.619629 -54.071621 
L -24.625153 -49.605643 
L -29.630677 -45.957702 
L -34.6362 -43.020268 
L -39.641724 -40.688491 
L -44.647247 -38.863696 
L -49.652771 -37.455842 
L -54.658295 -36.385002 
L -59.663818 -35.581986 
L -64.669342 -34.988293 
L -69.674865 -34.555536 
L -74.680389 -34.244523 
L -79.685912 -34.024144 
z
"/>
    </defs>
    <g clip-path="url(#pb97e620cec)">
     <use xlink:href="#mdaf0120e3d" x="0" y="423.99625" style="fill: #6495ed; fill-opacity: 0.5"/>
    </g>
   </g>
   <g id="matplotlib.axis_1">
    <g id="xtick_1">
     <g id="line2d_1">
      <defs>
       <path id="m9dea763afc" d="M 0 0 
L 0 3.5 
" style="stroke: #000000; stroke-width: 0.8"/>
      </defs>
      <g>
       <use xlink:href="#m9dea763afc" x="39.65" y="390.44" style="stroke: #000000; stroke-width: 0.8"/>
      </g>
     </g>
     <g id="text_1">
      <!-- 0 -->
      <g transform="translate(33.2875 412.636875) scale(0.2 -0.2)">
       <defs>
        <path id="DejaVuSans-30" d="M 2034 4250 
Q 1547 4250 1301 3770 
Q 1056 3291 1056 2328 
Q 1056 1369 1301 889 
Q 1547 409 2034 409 
Q 2525 409 2770 889 
Q 3016 1369 3016 2328 
Q 3016 3291 2770 3770 
Q 2525 4250 2034 4250 
z
M 2034 4750 
Q 2819 4750 3233 4129 
Q 3647 3509 3647 2328 
Q 3647 1150 3233 529 
Q 2819 -91 2034 -91 
Q 1250 -91 836 529 
Q 422 1150 422 2328 
Q 422 3509 836 4129 
Q 1250 4750 2034 4750 
z
" transform="scale(0.015625)"/>
       </defs>
       <use xlink:href="#DejaVuSans-30"/>
      </g>
     </g>
    </g>
    <g id="xtick_2">
     <g id="line2d_2">
      <g>
       <use xlink:href="#m9dea763afc" x="142.394688" y="390.44" style="stroke: #000000; stroke-width: 0.8"/>
      </g>
     </g>
     <g id="text_2">
      <!-- 5 -->
      <g transform="translate(136.032187 412.636875) scale(0.2 -0.2)">
       <defs>
        <path id="DejaVuSans-35" d="M 691 4666 
L 3169 4666 
L 3169 4134 
L 1269 4134 
L 1269 2991 
Q 1406 3038 1543 3061 
Q 1681 3084 1819 3084 
Q 2600 3084 3056 2656 
Q 3513 2228 3513 1497 
Q 3513 744 3044 326 
Q 2575 -91 1722 -91 
Q 1428 -91 1123 -41 
Q 819 9 494 109 
L 494 744 
Q 775 591 1075 516 
Q 1375 441 1709 441 
Q 2250 441 2565 725 
Q 2881 1009 2881 1497 
Q 2881 1984 2565 2268 
Q 2250 2553 1709 2553 
Q 1456 2553 1204 2497 
Q 953 2441 691 2322 
L 691 4666 
z
" transform="scale(0.015625)"/>
       </defs>
       <use xlink:href="#DejaVuSans-35"/>
      </g>
     </g>
    </g>
    <g id="xtick_3">
     <g id="line2d_3">
      <g>
       <use xlink:href="#m9dea763afc" x="245.139375" y="390.44" style="stroke: #000000; stroke-width: 0.8"/>
      </g>
     </g>
     <g id="text_3">
      <!-- 10 -->
      <g transform="translate(232.414375 412.636875) scale(0.2 -0.2)">
       <defs>
        <path id="DejaVuSans-31" d="M 794 531 
L 1825 531 
L 1825 4091 
L 703 3866 
L 703 4441 
L 1819 4666 
L 2450 4666 
L 2450 531 
L 3481 531 
L 3481 0 
L 794 0 
L 794 531 
z
" transform="scale(0.015625)"/>
       </defs>
       <use xlink:href="#DejaVuSans-31"/>
       <use xlink:href="#DejaVuSans-30" x="63.623047"/>
      </g>
     </g>
    </g>
    <g id="xtick_4">
     <g id="line2d_4">
      <g>
       <use xlink:href="#m9dea763afc" x="347.884063" y="390.44" style="stroke: #000000; stroke-width: 0.8"/>
      </g>
     </g>
     <g id="text_4">
      <!-- 15 -->
      <g transform="translate(335.159063 412.636875) scale(0.2 -0.2)">
       <use xlink:href="#DejaVuSans-31"/>
       <use xlink:href="#DejaVuSans-35" x="63.623047"/>
      </g>
     </g>
    </g>
    <g id="xtick_5">
     <g id="line2d_5">
      <g>
       <use xlink:href="#m9dea763afc" x="450.62875" y="390.44" style="stroke: #000000; stroke-width: 0.8"/>
      </g>
     </g>
     <g id="text_5">
      <!-- 20 -->
      <g transform="translate(437.90375 412.636875) scale(0.2 -0.2)">
       <defs>
        <path id="DejaVuSans-32" d="M 1228 531 
L 3431 531 
L 3431 0 
L 469 0 
L 469 531 
Q 828 903 1448 1529 
Q 2069 2156 2228 2338 
Q 2531 2678 2651 2914 
Q 2772 3150 2772 3378 
Q 2772 3750 2511 3984 
Q 2250 4219 1831 4219 
Q 1534 4219 1204 4116 
Q 875 4013 500 3803 
L 500 4441 
Q 881 4594 1212 4672 
Q 1544 4750 1819 4750 
Q 2544 4750 2975 4387 
Q 3406 4025 3406 3419 
Q 3406 3131 3298 2873 
Q 3191 2616 2906 2266 
Q 2828 2175 2409 1742 
Q 1991 1309 1228 531 
z
" transform="scale(0.015625)"/>
       </defs>
       <use xlink:href="#DejaVuSans-32"/>
       <use xlink:href="#DejaVuSans-30" x="63.623047"/>
      </g>
     </g>
    </g>
    <g id="xtick_6">
     <g id="line2d_6">
      <g>
       <use xlink:href="#m9dea763afc" x="553.373438" y="390.44" style="stroke: #000000; stroke-width: 0.8"/>
      </g>
     </g>
     <g id="text_6">
      <!-- 25 -->
      <g transform="translate(540.648438 412.636875) scale(0.2 -0.2)">
       <use xlink:href="#DejaVuSans-32"/>
       <use xlink:href="#DejaVuSans-35" x="63.623047"/>
      </g>
     </g>
    </g>
    <g id="xtick_7">
     <g id="line2d_7">
      <g>
       <use xlink:href="#m9dea763afc" x="656.118125" y="390.44" style="stroke: #000000; stroke-width: 0.8"/>
      </g>
     </g>
     <g id="text_7">
      <!-- 30 -->
      <g transform="translate(643.393125 412.636875) scale(0.2 -0.2)">
       <defs>
        <path id="DejaVuSans-33" d="M 2597 2516 
Q 3050 2419 3304 2112 
Q 3559 1806 3559 1356 
Q 3559 666 3084 287 
Q 2609 -91 1734 -91 
Q 1441 -91 1130 -33 
Q 819 25 488 141 
L 488 750 
Q 750 597 1062 519 
Q 1375 441 1716 441 
Q 2309 441 2620 675 
Q 2931 909 2931 1356 
Q 2931 1769 2642 2001 
Q 2353 2234 1838 2234 
L 1294 2234 
L 1294 2753 
L 1863 2753 
Q 2328 2753 2575 2939 
Q 2822 3125 2822 3475 
Q 2822 3834 2567 4026 
Q 2313 4219 1838 4219 
Q 1578 4219 1281 4162 
Q 984 4106 628 3988 
L 628 4550 
Q 988 4650 1302 4700 
Q 1616 4750 1894 4750 
Q 2613 4750 3031 4423 
Q 3450 4097 3450 3541 
Q 3450 3153 3228 2886 
Q 3006 2619 2597 2516 
z
" transform="scale(0.015625)"/>
       </defs>
       <use xlink:href="#DejaVuSans-33"/>
       <use xlink:href="#DejaVuSans-30" x="63.623047"/>
      </g>
     </g>
    </g>
    <g id="xtick_8">
     <g id="line2d_8">
      <g>
       <use xlink:href="#m9dea763afc" x="758.862813" y="390.44" style="stroke: #000000; stroke-width: 0.8"/>
      </g>
     </g>
     <g id="text_8">
      <!-- 35 -->
      <g transform="translate(746.137812 412.636875) scale(0.2 -0.2)">
       <use xlink:href="#DejaVuSans-33"/>
       <use xlink:href="#DejaVuSans-35" x="63.623047"/>
      </g>
     </g>
    </g>
    <g id="xtick_9">
     <g id="line2d_9">
      <g>
       <use xlink:href="#m9dea763afc" x="861.6075" y="390.44" style="stroke: #000000; stroke-width: 0.8"/>
      </g>
     </g>
     <g id="text_9">
      <!-- 40 -->
      <g transform="translate(848.8825 412.636875) scale(0.2 -0.2)">
       <defs>
        <path id="DejaVuSans-34" d="M 2419 4116 
L 825 1625 
L 2419 1625 
L 2419 4116 
z
M 2253 4666 
L 3047 4666 
L 3047 1625 
L 3713 1625 
L 3713 1100 
L 3047 1100 
L 3047 0 
L 2419 0 
L 2419 1100 
L 313 1100 
L 313 1709 
L 2253 4666 
z
" transform="scale(0.015625)"/>
       </defs>
       <use xlink:href="#DejaVuSans-34"/>
       <use xlink:href="#DejaVuSans-30" x="63.623047"/>
      </g>
     </g>
    </g>
   </g>
   <g id="matplotlib.axis_2">
    <g id="ytick_1">
     <g id="line2d_10">
      <path d="M 39.65 390.44 
L 861.6075 390.44 
" clip-path="url(#pb97e620cec)" style="fill: none; stroke: #b0b0b0; stroke-opacity: 0.8; stroke-width: 0.8; stroke-linecap: square"/>
     </g>
     <g id="line2d_11">
      <defs>
       <path id="m44d708fe43" d="M 0 0 
L -3.5 0 
" style="stroke: #000000; stroke-width: 0.8"/>
      </defs>
      <g>
       <use xlink:href="#m44d708fe43" x="39.65" y="390.44" style="stroke: #000000; stroke-width: 0.8"/>
      </g>
     </g>
     <g id="text_10">
      <!-- 0 -->
      <g transform="translate(19.925 398.038437) scale(0.2 -0.2)">
       <use xlink:href="#DejaVuSans-30"/>
      </g>
     </g>
    </g>
    <g id="ytick_2">
     <g id="line2d_12">
      <path d="M 39.65 325.263934 
L 861.6075 325.263934 
" clip-path="url(#pb97e620cec)" style="fill: none; stroke: #b0b0b0; stroke-opacity: 0.8; stroke-width: 0.8; stroke-linecap: square"/>
     </g>
     <g id="line2d_13">
      <g>
       <use xlink:href="#m44d708fe43" x="39.65" y="325.263934" style="stroke: #000000; stroke-width: 0.8"/>
      </g>
     </g>
     <g id="text_11">
      <!-- 10 -->
      <g transform="translate(7.2 332.862372) scale(0.2 -0.2)">
       <use xlink:href="#DejaVuSans-31"/>
       <use xlink:href="#DejaVuSans-30" x="63.623047"/>
      </g>
     </g>
    </g>
    <g id="ytick_3">
     <g id="line2d_14">
      <path d="M 39.65 260.087869 
L 861.6075 260.087869 
" clip-path="url(#pb97e620cec)" style="fill: none; stroke: #b0b0b0; stroke-opacity: 0.8; stroke-width: 0.8; stroke-linecap: square"/>
     </g>
     <g id="line2d_15">
      <g>
       <use xlink:href="#m44d708fe43" x="39.65" y="260.087869" style="stroke: #000000; stroke-width: 0.8"/>
      </g>
     </g>
     <g id="text_12">
      <!-- 20 -->
      <g transform="translate(7.2 267.686306) scale(0.2 -0.2)">
       <use xlink:href="#DejaVuSans-32"/>
       <use xlink:href="#DejaVuSans-30" x="63.623047"/>
      </g>
     </g>
    </g>
    <g id="ytick_4">
     <g id="line2d_16">
      <path d="M 39.65 194.911803 
L 861.6075 194.911803 
" clip-path="url(#pb97e620cec)" style="fill: none; stroke: #b0b0b0; stroke-opacity: 0.8; stroke-width: 0.8; stroke-linecap: square"/>
     </g>
     <g id="line2d_17">
      <g>
       <use xlink:href="#m44d708fe43" x="39.65" y="194.911803" style="stroke: #000000; stroke-width: 0.8"/>
      </g>
     </g>
     <g id="text_13">
      <!-- 30 -->
      <g transform="translate(7.2 202.510241) scale(0.2 -0.2)">
       <use xlink:href="#DejaVuSans-33"/>
       <use xlink:href="#DejaVuSans-30" x="63.623047"/>
      </g>
     </g>
    </g>
    <g id="ytick_5">
     <g id="line2d_18">
      <path d="M 39.65 129.735737 
L 861.6075 129.735737 
" clip-path="url(#pb97e620cec)" style="fill: none; stroke: #b0b0b0; stroke-opacity: 0.8; stroke-width: 0.8; stroke-linecap: square"/>
     </g>
     <g id="line2d_19">
      <g>
       <use xlink:href="#m44d708fe43" x="39.65" y="129.735737" style="stroke: #000000; stroke-width: 0.8"/>
      </g>
     </g>
     <g id="text_14">
      <!-- 40 -->
      <g transform="translate(7.2 137.334175) scale(0.2 -0.2)">
       <use xlink:href="#DejaVuSans-34"/>
       <use xlink:href="#DejaVuSans-30" x="63.623047"/>
      </g>
     </g>
    </g>
    <g id="ytick_6">
     <g id="line2d_20">
      <path d="M 39.65 64.559672 
L 861.6075 64.559672 
" clip-path="url(#pb97e620cec)" style="fill: none; stroke: #b0b0b0; stroke-opacity: 0.8; stroke-width: 0.8; stroke-linecap: square"/>
     </g>
     <g id="line2d_21">
      <g>
       <use xlink:href="#m44d708fe43" x="39.65" y="64.559672" style="stroke: #000000; stroke-width: 0.8"/>
      </g>
     </g>
     <g id="text_15">
      <!-- 50 -->
      <g transform="translate(7.2 72.158109) scale(0.2 -0.2)">
       <use xlink:href="#DejaVuSans-35"/>
       <use xlink:href="#DejaVuSans-30" x="63.623047"/>
      </g>
     </g>
    </g>
   </g>
  </g>
  <g id="axes_2">
   <g id="patch_3">
    <path d="M 891.5325 390.44 
L 1713.49 390.44 
L 1713.49 7.2 
L 891.5325 7.2 
z
" style="fill: #ffffff"/>
   </g>
   <g id="PolyCollection_3">
    <defs>
     <path id="m589e93a57e" d="M 795.776212 -33.961749 
L 795.776212 -33.55625 
L 800.165221 -33.55625 
L 804.55423 -33.55625 
L 808.943239 -33.55625 
L 813.332248 -33.55625 
L 817.721257 -33.55625 
L 822.110266 -33.55625 
L 826.499275 -33.55625 
L 830.888285 -33.55625 
L 835.277294 -33.55625 
L 839.666303 -33.55625 
L 844.055312 -33.55625 
L 848.444321 -33.55625 
L 852.83333 -33.55625 
L 857.222339 -33.55625 
L 861.611348 -33.55625 
L 866.000357 -33.55625 
L 870.389366 -33.55625 
L 874.778375 -33.55625 
L 879.167384 -33.55625 
L 883.556393 -33.55625 
L 887.945402 -33.55625 
L 892.334411 -33.55625 
L 896.72342 -33.55625 
L 901.112429 -33.55625 
L 905.501438 -33.55625 
L 909.890447 -33.55625 
L 914.279456 -33.55625 
L 918.668465 -33.55625 
L 923.057474 -33.55625 
L 927.446483 -33.55625 
L 931.835492 -33.55625 
L 936.224501 -33.55625 
L 940.61351 -33.55625 
L 945.002519 -33.55625 
L 949.391528 -33.55625 
L 953.780538 -33.55625 
L 958.169547 -33.55625 
L 962.558556 -33.55625 
L 966.947565 -33.55625 
L 971.336574 -33.55625 
L 975.725583 -33.55625 
L 980.114592 -33.55625 
L 984.503601 -33.55625 
L 988.89261 -33.55625 
L 993.281619 -33.55625 
L 997.670628 -33.55625 
L 1002.059637 -33.55625 
L 1006.448646 -33.55625 
L 1010.837655 -33.55625 
L 1015.226664 -33.55625 
L 1019.615673 -33.55625 
L 1024.004682 -33.55625 
L 1028.393691 -33.55625 
L 1032.7827 -33.55625 
L 1037.171709 -33.55625 
L 1041.560718 -33.55625 
L 1045.949727 -33.55625 
L 1050.338736 -33.55625 
L 1054.727745 -33.55625 
L 1059.116754 -33.55625 
L 1063.505763 -33.55625 
L 1067.894772 -33.55625 
L 1072.283781 -33.55625 
L 1076.672791 -33.55625 
L 1081.0618 -33.55625 
L 1085.450809 -33.55625 
L 1089.839818 -33.55625 
L 1094.228827 -33.55625 
L 1098.617836 -33.55625 
L 1103.006845 -33.55625 
L 1107.395854 -33.55625 
L 1111.784863 -33.55625 
L 1116.173872 -33.55625 
L 1120.562881 -33.55625 
L 1124.95189 -33.55625 
L 1129.340899 -33.55625 
L 1133.729908 -33.55625 
L 1138.118917 -33.55625 
L 1142.507926 -33.55625 
L 1146.896935 -33.55625 
L 1151.285944 -33.55625 
L 1155.674953 -33.55625 
L 1160.063962 -33.55625 
L 1164.452971 -33.55625 
L 1168.84198 -33.55625 
L 1173.230989 -33.55625 
L 1177.619998 -33.55625 
L 1182.009007 -33.55625 
L 1186.398016 -33.55625 
L 1190.787025 -33.55625 
L 1195.176034 -33.55625 
L 1199.565044 -33.55625 
L 1203.954053 -33.55625 
L 1208.343062 -33.55625 
L 1212.732071 -33.55625 
L 1217.12108 -33.55625 
L 1221.510089 -33.55625 
L 1225.899098 -33.55625 
L 1230.288107 -33.55625 
L 1234.677116 -33.55625 
L 1239.066125 -33.55625 
L 1243.455134 -33.55625 
L 1247.844143 -33.55625 
L 1252.233152 -33.55625 
L 1256.622161 -33.55625 
L 1261.01117 -33.55625 
L 1265.400179 -33.55625 
L 1269.789188 -33.55625 
L 1274.178197 -33.55625 
L 1278.567206 -33.55625 
L 1282.956215 -33.55625 
L 1287.345224 -33.55625 
L 1291.734233 -33.55625 
L 1296.123242 -33.55625 
L 1300.512251 -33.55625 
L 1304.90126 -33.55625 
L 1309.290269 -33.55625 
L 1313.679278 -33.55625 
L 1318.068287 -33.55625 
L 1322.457297 -33.55625 
L 1326.846306 -33.55625 
L 1331.235315 -33.55625 
L 1335.624324 -33.55625 
L 1340.013333 -33.55625 
L 1344.402342 -33.55625 
L 1348.791351 -33.55625 
L 1353.18036 -33.55625 
L 1357.569369 -33.55625 
L 1361.958378 -33.55625 
L 1366.347387 -33.55625 
L 1370.736396 -33.55625 
L 1375.125405 -33.55625 
L 1379.514414 -33.55625 
L 1383.903423 -33.55625 
L 1388.292432 -33.55625 
L 1392.681441 -33.55625 
L 1397.07045 -33.55625 
L 1401.459459 -33.55625 
L 1405.848468 -33.55625 
L 1410.237477 -33.55625 
L 1414.626486 -33.55625 
L 1419.015495 -33.55625 
L 1423.404504 -33.55625 
L 1427.793513 -33.55625 
L 1432.182522 -33.55625 
L 1436.571531 -33.55625 
L 1440.960541 -33.55625 
L 1445.34955 -33.55625 
L 1449.738559 -33.55625 
L 1454.127568 -33.55625 
L 1458.516577 -33.55625 
L 1462.905586 -33.55625 
L 1467.294595 -33.55625 
L 1471.683604 -33.55625 
L 1476.072613 -33.55625 
L 1480.461622 -33.55625 
L 1484.850631 -33.55625 
L 1489.23964 -33.55625 
L 1493.628649 -33.55625 
L 1498.017658 -33.55625 
L 1502.406667 -33.55625 
L 1506.795676 -33.55625 
L 1511.184685 -33.55625 
L 1515.573694 -33.55625 
L 1519.962703 -33.55625 
L 1524.351712 -33.55625 
L 1528.740721 -33.55625 
L 1533.12973 -33.55625 
L 1537.518739 -33.55625 
L 1541.907748 -33.55625 
L 1546.296757 -33.55625 
L 1550.685766 -33.55625 
L 1555.074775 -33.55625 
L 1559.463784 -33.55625 
L 1563.852794 -33.55625 
L 1568.241803 -33.55625 
L 1572.630812 -33.55625 
L 1577.019821 -33.55625 
L 1581.40883 -33.55625 
L 1585.797839 -33.55625 
L 1590.186848 -33.55625 
L 1594.575857 -33.55625 
L 1598.964866 -33.55625 
L 1603.353875 -33.55625 
L 1607.742884 -33.55625 
L 1612.131893 -33.55625 
L 1616.520902 -33.55625 
L 1620.909911 -33.55625 
L 1625.29892 -33.55625 
L 1629.687929 -33.55625 
L 1634.076938 -33.55625 
L 1638.465947 -33.55625 
L 1642.854956 -33.55625 
L 1647.243965 -33.55625 
L 1651.632974 -33.55625 
L 1656.021983 -33.55625 
L 1660.410992 -33.55625 
L 1664.800001 -33.55625 
L 1669.18901 -33.55625 
L 1669.18901 -33.580283 
L 1669.18901 -33.580283 
L 1664.800001 -33.59182 
L 1660.410992 -33.607963 
L 1656.021983 -33.630101 
L 1651.632974 -33.659849 
L 1647.243965 -33.699007 
L 1642.854956 -33.749483 
L 1638.465947 -33.813179 
L 1634.076938 -33.891827 
L 1629.687929 -33.986798 
L 1625.29892 -34.098884 
L 1620.909911 -34.228074 
L 1616.520902 -34.373351 
L 1612.131893 -34.532551 
L 1607.742884 -34.702292 
L 1603.353875 -34.878024 
L 1598.964866 -35.054207 
L 1594.575857 -35.224628 
L 1590.186848 -35.382835 
L 1585.797839 -35.522681 
L 1581.40883 -35.638909 
L 1577.019821 -35.72775 
L 1572.630812 -35.787446 
L 1568.241803 -35.818662 
L 1563.852794 -35.82472 
L 1559.463784 -35.81164 
L 1555.074775 -35.787947 
L 1550.685766 -35.764283 
L 1546.296757 -35.752816 
L 1541.907748 -35.766517 
L 1537.518739 -35.818339 
L 1533.12973 -35.920367 
L 1528.740721 -36.083005 
L 1524.351712 -36.314252 
L 1519.962703 -36.619135 
L 1515.573694 -36.999335 
L 1511.184685 -37.453055 
L 1506.795676 -37.975135 
L 1502.406667 -38.557437 
L 1498.017658 -39.189462 
L 1493.628649 -39.859164 
L 1489.23964 -40.553908 
L 1484.850631 -41.261473 
L 1480.461622 -41.971027 
L 1476.072613 -42.673977 
L 1471.683604 -43.364614 
L 1467.294595 -44.040497 
L 1462.905586 -44.702548 
L 1458.516577 -45.354856 
L 1454.127568 -46.004215 
L 1449.738559 -46.659469 
L 1445.34955 -47.330709 
L 1440.960541 -48.028416 
L 1436.571531 -48.76263 
L 1432.182522 -49.542196 
L 1427.793513 -50.374169 
L 1423.404504 -51.263413 
L 1419.015495 -52.212446 
L 1414.626486 -53.221541 
L 1410.237477 -54.289112 
L 1405.848468 -55.412366 
L 1401.459459 -56.588181 
L 1397.07045 -57.814152 
L 1392.681441 -59.089688 
L 1388.292432 -60.417052 
L 1383.903423 -61.802178 
L 1379.514414 -63.255144 
L 1375.125405 -64.790187 
L 1370.736396 -66.425192 
L 1366.347387 -68.180679 
L 1361.958378 -70.078351 
L 1357.569369 -72.139367 
L 1353.18036 -74.382537 
L 1348.791351 -76.822674 
L 1344.402342 -79.469329 
L 1340.013333 -82.326093 
L 1335.624324 -85.390595 
L 1331.235315 -88.65525 
L 1326.846306 -92.108708 
L 1322.457297 -95.73789 
L 1318.068287 -99.530421 
L 1313.679278 -103.47724 
L 1309.290269 -107.575103 
L 1304.90126 -111.828735 
L 1300.512251 -116.252359 
L 1296.123242 -120.870382 
L 1291.734233 -125.717038 
L 1287.345224 -130.83488 
L 1282.956215 -136.272047 
L 1278.567206 -142.078367 
L 1274.178197 -148.300456 
L 1269.789188 -154.976119 
L 1265.400179 -162.128478 
L 1261.01117 -169.760407 
L 1256.622161 -177.849894 
L 1252.233152 -186.347005 
L 1247.844143 -195.173042 
L 1243.455134 -204.22234 
L 1239.066125 -213.366888 
L 1234.677116 -222.46366 
L 1230.288107 -231.364181 
L 1225.899098 -239.925543 
L 1221.510089 -248.021815 
L 1217.12108 -255.554657 
L 1212.732071 -262.461962 
L 1208.343062 -268.723508 
L 1203.954053 -274.362919 
L 1199.565044 -279.445637 
L 1195.176034 -284.073051 
L 1190.787025 -288.373373 
L 1186.398016 -292.490195 
L 1182.009007 -296.569859 
L 1177.619998 -300.748878 
L 1173.230989 -305.142551 
L 1168.84198 -309.835714 
L 1164.452971 -314.876294 
L 1160.063962 -320.272035 
L 1155.674953 -325.990421 
L 1151.285944 -331.961603 
L 1146.896935 -338.083903 
L 1142.507926 -344.231339 
L 1138.118917 -350.26256 
L 1133.729908 -356.030509 
L 1129.340899 -361.392174 
L 1124.95189 -366.217793 
L 1120.562881 -370.398942 
L 1116.173872 -373.855004 
L 1111.784863 -376.537642 
L 1107.395854 -378.433002 
L 1103.006845 -379.561589 
L 1098.617836 -379.975888 
L 1094.228827 -379.756007 
L 1089.839818 -379.003787 
L 1085.450809 -377.835889 
L 1081.0618 -376.376488 
L 1076.672791 -374.750142 
L 1072.283781 -373.075352 
L 1067.894772 -371.459229 
L 1063.505763 -369.9935 
L 1059.116754 -368.75194 
L 1054.727745 -367.789171 
L 1050.338736 -367.140632 
L 1045.949727 -366.823436 
L 1041.560718 -366.837818 
L 1037.171709 -367.16886 
L 1032.7827 -367.788243 
L 1028.393691 -368.655866 
L 1024.004682 -369.721273 
L 1019.615673 -370.924912 
L 1015.226664 -372.199351 
L 1010.837655 -373.470609 
L 1006.448646 -374.659758 
L 1002.059637 -375.684894 
L 997.670628 -376.463491 
L 993.281619 -376.91501 
L 988.89261 -376.963534 
L 984.503601 -376.540081 
L 980.114592 -375.584218 
L 975.725583 -374.044624 
L 971.336574 -371.878372 
L 966.947565 -369.048881 
L 962.558556 -365.522762 
L 958.169547 -361.265991 
L 953.780538 -356.240131 
L 949.391528 -350.399399 
L 945.002519 -343.68942 
L 940.61351 -336.048372 
L 936.224501 -327.41091 
L 931.835492 -317.714876 
L 927.446483 -306.910321 
L 923.057474 -294.969928 
L 918.668465 -281.899538 
L 914.279456 -267.747354 
L 909.890447 -252.610356 
L 905.501438 -236.636772 
L 901.112429 -220.023872 
L 896.72342 -203.010947 
L 892.334411 -185.867952 
L 887.945402 -168.880863 
L 883.556393 -152.335234 
L 879.167384 -136.499624 
L 874.778375 -121.610575 
L 870.389366 -107.860539 
L 866.000357 -95.389773 
L 861.611348 -84.28267 
L 857.222339 -74.568482 
L 852.83333 -66.225904 
L 848.444321 -59.190656 
L 844.055312 -53.364972 
L 839.666303 -48.627907 
L 835.277294 -44.845437 
L 830.888285 -41.879537 
L 826.499275 -39.595708 
L 822.110266 -37.868643 
L 817.721257 -36.586005 
L 813.332248 -35.650468 
L 808.943239 -34.980289 
L 804.55423 -34.508764 
L 800.165221 -34.182917 
L 795.776212 -33.961749 
z
"/>
    </defs>
    <g clip-path="url(#p68d82e6923)">
     <use xlink:href="#m589e93a57e" x="0" y="423.99625" style="fill: #a9a9a9; fill-opacity: 0.6"/>
    </g>
   </g>
   <g id="PolyCollection_4">
    <defs>
     <path id="m0a32950001" d="M 783.169218 -34.064049 
L 783.169218 -33.55625 
L 787.238012 -33.55625 
L 791.306805 -33.55625 
L 795.375599 -33.55625 
L 799.444392 -33.55625 
L 803.513186 -33.55625 
L 807.581979 -33.55625 
L 811.650773 -33.55625 
L 815.719567 -33.55625 
L 819.78836 -33.55625 
L 823.857154 -33.55625 
L 827.925947 -33.55625 
L 831.994741 -33.55625 
L 836.063535 -33.55625 
L 840.132328 -33.55625 
L 844.201122 -33.55625 
L 848.269915 -33.55625 
L 852.338709 -33.55625 
L 856.407502 -33.55625 
L 860.476296 -33.55625 
L 864.54509 -33.55625 
L 868.613883 -33.55625 
L 872.682677 -33.55625 
L 876.75147 -33.55625 
L 880.820264 -33.55625 
L 884.889058 -33.55625 
L 888.957851 -33.55625 
L 893.026645 -33.55625 
L 897.095438 -33.55625 
L 901.164232 -33.55625 
L 905.233025 -33.55625 
L 909.301819 -33.55625 
L 913.370613 -33.55625 
L 917.439406 -33.55625 
L 921.5082 -33.55625 
L 925.576993 -33.55625 
L 929.645787 -33.55625 
L 933.714581 -33.55625 
L 937.783374 -33.55625 
L 941.852168 -33.55625 
L 945.920961 -33.55625 
L 949.989755 -33.55625 
L 954.058549 -33.55625 
L 958.127342 -33.55625 
L 962.196136 -33.55625 
L 966.264929 -33.55625 
L 970.333723 -33.55625 
L 974.402516 -33.55625 
L 978.47131 -33.55625 
L 982.540104 -33.55625 
L 986.608897 -33.55625 
L 990.677691 -33.55625 
L 994.746484 -33.55625 
L 998.815278 -33.55625 
L 1002.884072 -33.55625 
L 1006.952865 -33.55625 
L 1011.021659 -33.55625 
L 1015.090452 -33.55625 
L 1019.159246 -33.55625 
L 1023.228039 -33.55625 
L 1027.296833 -33.55625 
L 1031.365627 -33.55625 
L 1035.43442 -33.55625 
L 1039.503214 -33.55625 
L 1043.572007 -33.55625 
L 1047.640801 -33.55625 
L 1051.709595 -33.55625 
L 1055.778388 -33.55625 
L 1059.847182 -33.55625 
L 1063.915975 -33.55625 
L 1067.984769 -33.55625 
L 1072.053562 -33.55625 
L 1076.122356 -33.55625 
L 1080.19115 -33.55625 
L 1084.259943 -33.55625 
L 1088.328737 -33.55625 
L 1092.39753 -33.55625 
L 1096.466324 -33.55625 
L 1100.535118 -33.55625 
L 1104.603911 -33.55625 
L 1108.672705 -33.55625 
L 1112.741498 -33.55625 
L 1116.810292 -33.55625 
L 1120.879086 -33.55625 
L 1124.947879 -33.55625 
L 1129.016673 -33.55625 
L 1133.085466 -33.55625 
L 1137.15426 -33.55625 
L 1141.223053 -33.55625 
L 1145.291847 -33.55625 
L 1149.360641 -33.55625 
L 1153.429434 -33.55625 
L 1157.498228 -33.55625 
L 1161.567021 -33.55625 
L 1165.635815 -33.55625 
L 1169.704609 -33.55625 
L 1173.773402 -33.55625 
L 1177.842196 -33.55625 
L 1181.910989 -33.55625 
L 1185.979783 -33.55625 
L 1190.048576 -33.55625 
L 1194.11737 -33.55625 
L 1198.186164 -33.55625 
L 1202.254957 -33.55625 
L 1206.323751 -33.55625 
L 1210.392544 -33.55625 
L 1214.461338 -33.55625 
L 1218.530132 -33.55625 
L 1222.598925 -33.55625 
L 1226.667719 -33.55625 
L 1230.736512 -33.55625 
L 1234.805306 -33.55625 
L 1238.874099 -33.55625 
L 1242.942893 -33.55625 
L 1247.011687 -33.55625 
L 1251.08048 -33.55625 
L 1255.149274 -33.55625 
L 1259.218067 -33.55625 
L 1263.286861 -33.55625 
L 1267.355655 -33.55625 
L 1271.424448 -33.55625 
L 1275.493242 -33.55625 
L 1279.562035 -33.55625 
L 1283.630829 -33.55625 
L 1287.699622 -33.55625 
L 1291.768416 -33.55625 
L 1295.83721 -33.55625 
L 1299.906003 -33.55625 
L 1303.974797 -33.55625 
L 1308.04359 -33.55625 
L 1312.112384 -33.55625 
L 1316.181178 -33.55625 
L 1320.249971 -33.55625 
L 1324.318765 -33.55625 
L 1328.387558 -33.55625 
L 1332.456352 -33.55625 
L 1336.525146 -33.55625 
L 1340.593939 -33.55625 
L 1344.662733 -33.55625 
L 1348.731526 -33.55625 
L 1352.80032 -33.55625 
L 1356.869113 -33.55625 
L 1360.937907 -33.55625 
L 1365.006701 -33.55625 
L 1369.075494 -33.55625 
L 1373.144288 -33.55625 
L 1377.213081 -33.55625 
L 1381.281875 -33.55625 
L 1385.350669 -33.55625 
L 1389.419462 -33.55625 
L 1393.488256 -33.55625 
L 1397.557049 -33.55625 
L 1401.625843 -33.55625 
L 1405.694636 -33.55625 
L 1409.76343 -33.55625 
L 1413.832224 -33.55625 
L 1417.901017 -33.55625 
L 1421.969811 -33.55625 
L 1426.038604 -33.55625 
L 1430.107398 -33.55625 
L 1434.176192 -33.55625 
L 1438.244985 -33.55625 
L 1442.313779 -33.55625 
L 1446.382572 -33.55625 
L 1450.451366 -33.55625 
L 1454.520159 -33.55625 
L 1458.588953 -33.55625 
L 1462.657747 -33.55625 
L 1466.72654 -33.55625 
L 1470.795334 -33.55625 
L 1474.864127 -33.55625 
L 1478.932921 -33.55625 
L 1483.001715 -33.55625 
L 1487.070508 -33.55625 
L 1491.139302 -33.55625 
L 1495.208095 -33.55625 
L 1499.276889 -33.55625 
L 1503.345683 -33.55625 
L 1507.414476 -33.55625 
L 1511.48327 -33.55625 
L 1515.552063 -33.55625 
L 1519.620857 -33.55625 
L 1523.68965 -33.55625 
L 1527.758444 -33.55625 
L 1531.827238 -33.55625 
L 1535.896031 -33.55625 
L 1539.964825 -33.55625 
L 1544.033618 -33.55625 
L 1548.102412 -33.55625 
L 1552.171206 -33.55625 
L 1556.239999 -33.55625 
L 1560.308793 -33.55625 
L 1564.377586 -33.55625 
L 1568.44638 -33.55625 
L 1572.515173 -33.55625 
L 1576.583967 -33.55625 
L 1580.652761 -33.55625 
L 1584.721554 -33.55625 
L 1588.790348 -33.55625 
L 1592.859141 -33.55625 
L 1592.859141 -33.610174 
L 1592.859141 -33.610174 
L 1588.790348 -33.631478 
L 1584.721554 -33.660001 
L 1580.652761 -33.697712 
L 1576.583967 -33.746944 
L 1572.515173 -33.810411 
L 1568.44638 -33.891198 
L 1564.377586 -33.992737 
L 1560.308793 -34.118744 
L 1556.239999 -34.273137 
L 1552.171206 -34.459912 
L 1548.102412 -34.682989 
L 1544.033618 -34.946038 
L 1539.964825 -35.252273 
L 1535.896031 -35.604246 
L 1531.827238 -36.003643 
L 1527.758444 -36.451097 
L 1523.68965 -36.946046 
L 1519.620857 -37.486635 
L 1515.552063 -38.069687 
L 1511.48327 -38.690752 
L 1507.414476 -39.344227 
L 1503.345683 -40.023557 
L 1499.276889 -40.721497 
L 1495.208095 -41.430414 
L 1491.139302 -42.142624 
L 1487.070508 -42.850715 
L 1483.001715 -43.547853 
L 1478.932921 -44.228027 
L 1474.864127 -44.886228 
L 1470.795334 -45.518546 
L 1466.72654 -46.122178 
L 1462.657747 -46.69536 
L 1458.588953 -47.237233 
L 1454.520159 -47.747659 
L 1450.451366 -48.227027 
L 1446.382572 -48.676057 
L 1442.313779 -49.095642 
L 1438.244985 -49.486746 
L 1434.176192 -49.850369 
L 1430.107398 -50.187596 
L 1426.038604 -50.499735 
L 1421.969811 -50.788529 
L 1417.901017 -51.056444 
L 1413.832224 -51.307006 
L 1409.76343 -51.545185 
L 1405.694636 -51.777781 
L 1401.625843 -52.013802 
L 1397.557049 -52.264797 
L 1393.488256 -52.545121 
L 1389.419462 -52.872096 
L 1385.350669 -53.266035 
L 1381.281875 -53.750116 
L 1377.213081 -54.350072 
L 1373.144288 -55.093683 
L 1369.075494 -56.010084 
L 1365.006701 -57.128883 
L 1360.937907 -58.47913 
L 1356.869113 -60.088175 
L 1352.80032 -61.980481 
L 1348.731526 -64.176461 
L 1344.662733 -66.691423 
L 1340.593939 -69.534714 
L 1336.525146 -72.709124 
L 1332.456352 -76.210648 
L 1328.387558 -80.028614 
L 1324.318765 -84.146238 
L 1320.249971 -88.541549 
L 1316.181178 -93.188679 
L 1312.112384 -98.059401 
L 1308.04359 -103.124828 
L 1303.974797 -108.357126 
L 1299.906003 -113.731104 
L 1295.83721 -119.225543 
L 1291.768416 -124.824124 
L 1287.699622 -130.515875 
L 1283.630829 -136.295063 
L 1279.562035 -142.160545 
L 1275.493242 -148.114601 
L 1271.424448 -154.161366 
L 1267.355655 -160.305003 
L 1263.286861 -166.547793 
L 1259.218067 -172.888344 
L 1255.149274 -179.320122 
L 1251.08048 -185.83048 
L 1247.011687 -192.400319 
L 1242.942893 -199.004472 
L 1238.874099 -205.612811 
L 1234.805306 -212.192023 
L 1230.736512 -218.707918 
L 1226.667719 -225.128067 
L 1222.598925 -231.424532 
L 1218.530132 -237.576425 
L 1214.461338 -243.572035 
L 1210.392544 -249.410286 
L 1206.323751 -255.101366 
L 1202.254957 -260.666416 
L 1198.186164 -266.136274 
L 1194.11737 -271.549344 
L 1190.048576 -276.948755 
L 1185.979783 -282.379023 
L 1181.910989 -287.882504 
L 1177.842196 -293.495906 
L 1173.773402 -299.247141 
L 1169.704609 -305.152777 
L 1165.635815 -311.216247 
L 1161.567021 -317.426943 
L 1157.498228 -323.760242 
L 1153.429434 -330.178398 
L 1149.360641 -336.632213 
L 1145.291847 -343.063327 
L 1141.223053 -349.406918 
L 1137.15426 -355.594617 
L 1133.085466 -361.557434 
L 1129.016673 -367.228508 
L 1124.947879 -372.545542 
L 1120.879086 -377.452823 
L 1116.810292 -381.902779 
L 1112.741498 -385.857066 
L 1108.672705 -389.287234 
L 1104.603911 -392.175032 
L 1100.535118 -394.512447 
L 1096.466324 -396.301571 
L 1092.39753 -397.554376 
L 1088.328737 -398.29245 
L 1084.259943 -398.546726 
L 1080.19115 -398.35718 
L 1076.122356 -397.772448 
L 1072.053562 -396.849275 
L 1067.984769 -395.65169 
L 1063.915975 -394.249797 
L 1059.847182 -392.718092 
L 1055.778388 -391.133242 
L 1051.709595 -389.571333 
L 1047.640801 -388.10464 
L 1043.572007 -386.798058 
L 1039.503214 -385.705389 
L 1035.43442 -384.86575 
L 1031.365627 -384.300386 
L 1027.296833 -384.010196 
L 1023.228039 -383.974233 
L 1019.159246 -384.149415 
L 1015.090452 -384.471571 
L 1011.021659 -384.857852 
L 1006.952865 -385.210428 
L 1002.884072 -385.421243 
L 998.815278 -385.377538 
L 994.746484 -384.967721 
L 990.677691 -384.087156 
L 986.608897 -382.643408 
L 982.540104 -380.560532 
L 978.47131 -377.782067 
L 974.402516 -374.272521 
L 970.333723 -370.017242 
L 966.264929 -365.020775 
L 962.196136 -359.303884 
L 958.127342 -352.899604 
L 954.058549 -345.848752 
L 949.989755 -338.195371 
L 945.920961 -329.9826 
L 941.852168 -321.249398 
L 937.783374 -312.02845 
L 933.714581 -302.34546 
L 929.645787 -292.219868 
L 925.576993 -281.666879 
L 921.5082 -270.700529 
L 917.439406 -259.337424 
L 913.370613 -247.600685 
L 909.301819 -235.523623 
L 905.233025 -223.152702 
L 901.164232 -210.549412 
L 897.095438 -197.790811 
L 893.026645 -184.968617 
L 888.957851 -172.186901 
L 884.889058 -159.558552 
L 880.820264 -147.200826 
L 876.75147 -135.230359 
L 872.682677 -123.758048 
L 868.613883 -112.884242 
L 864.54509 -102.694584 
L 860.476296 -93.2568 
L 856.407502 -84.618629 
L 852.338709 -76.80696 
L 848.269915 -69.828145 
L 844.201122 -63.669372 
L 840.132328 -58.300892 
L 836.063535 -53.678879 
L 831.994741 -49.748637 
L 827.925947 -46.447937 
L 823.857154 -43.710232 
L 819.78836 -41.467596 
L 815.719567 -39.653236 
L 811.650773 -38.20352 
L 807.581979 -37.059481 
L 803.513186 -36.167814 
L 799.444392 -35.48142 
L 795.375599 -34.959555 
L 791.306805 -34.567663 
L 787.238012 -34.276994 
L 783.169218 -34.064049 
z
"/>
    </defs>
    <g clip-path="url(#p68d82e6923)">
     <use xlink:href="#m0a32950001" x="0" y="423.99625" style="fill: #ff69b4; fill-opacity: 0.5"/>
    </g>
   </g>
   <g id="matplotlib.axis_3">
    <g id="xtick_10">
     <g id="line2d_22">
      <g>
       <use xlink:href="#m9dea763afc" x="891.5325" y="390.44" style="stroke: #000000; stroke-width: 0.8"/>
      </g>
     </g>
     <g id="text_16">
      <!-- 0 -->
      <g transform="translate(885.17 412.636875) scale(0.2 -0.2)">
       <use xlink:href="#DejaVuSans-30"/>
      </g>
     </g>
    </g>
    <g id="xtick_11">
     <g id="line2d_23">
      <g>
       <use xlink:href="#m9dea763afc" x="984.557097" y="390.44" style="stroke: #000000; stroke-width: 0.8"/>
      </g>
     </g>
     <g id="text_17">
      <!-- 5 -->
      <g transform="translate(978.194597 412.636875) scale(0.2 -0.2)">
       <use xlink:href="#DejaVuSans-35"/>
      </g>
     </g>
    </g>
    <g id="xtick_12">
     <g id="line2d_24">
      <g>
       <use xlink:href="#m9dea763afc" x="1077.581694" y="390.44" style="stroke: #000000; stroke-width: 0.8"/>
      </g>
     </g>
     <g id="text_18">
      <!-- 10 -->
      <g transform="translate(1064.856694 412.636875) scale(0.2 -0.2)">
       <use xlink:href="#DejaVuSans-31"/>
       <use xlink:href="#DejaVuSans-30" x="63.623047"/>
      </g>
     </g>
    </g>
    <g id="xtick_13">
     <g id="line2d_25">
      <g>
       <use xlink:href="#m9dea763afc" x="1170.606291" y="390.44" style="stroke: #000000; stroke-width: 0.8"/>
      </g>
     </g>
     <g id="text_19">
      <!-- 15 -->
      <g transform="translate(1157.881291 412.636875) scale(0.2 -0.2)">
       <use xlink:href="#DejaVuSans-31"/>
       <use xlink:href="#DejaVuSans-35" x="63.623047"/>
      </g>
     </g>
    </g>
    <g id="xtick_14">
     <g id="line2d_26">
      <g>
       <use xlink:href="#m9dea763afc" x="1263.630888" y="390.44" style="stroke: #000000; stroke-width: 0.8"/>
      </g>
     </g>
     <g id="text_20">
      <!-- 20 -->
      <g transform="translate(1250.905888 412.636875) scale(0.2 -0.2)">
       <use xlink:href="#DejaVuSans-32"/>
       <use xlink:href="#DejaVuSans-30" x="63.623047"/>
      </g>
     </g>
    </g>
    <g id="xtick_15">
     <g id="line2d_27">
      <g>
       <use xlink:href="#m9dea763afc" x="1356.655486" y="390.44" style="stroke: #000000; stroke-width: 0.8"/>
      </g>
     </g>
     <g id="text_21">
      <!-- 25 -->
      <g transform="translate(1343.930486 412.636875) scale(0.2 -0.2)">
       <use xlink:href="#DejaVuSans-32"/>
       <use xlink:href="#DejaVuSans-35" x="63.623047"/>
      </g>
     </g>
    </g>
    <g id="xtick_16">
     <g id="line2d_28">
      <g>
       <use xlink:href="#m9dea763afc" x="1449.680083" y="390.44" style="stroke: #000000; stroke-width: 0.8"/>
      </g>
     </g>
     <g id="text_22">
      <!-- 30 -->
      <g transform="translate(1436.955083 412.636875) scale(0.2 -0.2)">
       <use xlink:href="#DejaVuSans-33"/>
       <use xlink:href="#DejaVuSans-30" x="63.623047"/>
      </g>
     </g>
    </g>
    <g id="xtick_17">
     <g id="line2d_29">
      <g>
       <use xlink:href="#m9dea763afc" x="1542.70468" y="390.44" style="stroke: #000000; stroke-width: 0.8"/>
      </g>
     </g>
     <g id="text_23">
      <!-- 35 -->
      <g transform="translate(1529.97968 412.636875) scale(0.2 -0.2)">
       <use xlink:href="#DejaVuSans-33"/>
       <use xlink:href="#DejaVuSans-35" x="63.623047"/>
      </g>
     </g>
    </g>
    <g id="xtick_18">
     <g id="line2d_30">
      <g>
       <use xlink:href="#m9dea763afc" x="1635.729277" y="390.44" style="stroke: #000000; stroke-width: 0.8"/>
      </g>
     </g>
     <g id="text_24">
      <!-- 40 -->
      <g transform="translate(1623.004277 412.636875) scale(0.2 -0.2)">
       <use xlink:href="#DejaVuSans-34"/>
       <use xlink:href="#DejaVuSans-30" x="63.623047"/>
      </g>
     </g>
    </g>
   </g>
   <g id="matplotlib.axis_4">
    <g id="ytick_7">
     <g id="line2d_31">
      <path d="M 891.5325 390.44 
L 1713.49 390.44 
" clip-path="url(#p68d82e6923)" style="fill: none; stroke: #b0b0b0; stroke-opacity: 0.8; stroke-width: 0.8; stroke-linecap: square"/>
     </g>
     <g id="line2d_32">
      <g>
       <use xlink:href="#m44d708fe43" x="891.5325" y="390.44" style="stroke: #000000; stroke-width: 0.8"/>
      </g>
     </g>
    </g>
    <g id="ytick_8">
     <g id="line2d_33">
      <path d="M 891.5325 325.263934 
L 1713.49 325.263934 
" clip-path="url(#p68d82e6923)" style="fill: none; stroke: #b0b0b0; stroke-opacity: 0.8; stroke-width: 0.8; stroke-linecap: square"/>
     </g>
     <g id="line2d_34">
      <g>
       <use xlink:href="#m44d708fe43" x="891.5325" y="325.263934" style="stroke: #000000; stroke-width: 0.8"/>
      </g>
     </g>
    </g>
    <g id="ytick_9">
     <g id="line2d_35">
      <path d="M 891.5325 260.087869 
L 1713.49 260.087869 
" clip-path="url(#p68d82e6923)" style="fill: none; stroke: #b0b0b0; stroke-opacity: 0.8; stroke-width: 0.8; stroke-linecap: square"/>
     </g>
     <g id="line2d_36">
      <g>
       <use xlink:href="#m44d708fe43" x="891.5325" y="260.087869" style="stroke: #000000; stroke-width: 0.8"/>
      </g>
     </g>
    </g>
    <g id="ytick_10">
     <g id="line2d_37">
      <path d="M 891.5325 194.911803 
L 1713.49 194.911803 
" clip-path="url(#p68d82e6923)" style="fill: none; stroke: #b0b0b0; stroke-opacity: 0.8; stroke-width: 0.8; stroke-linecap: square"/>
     </g>
     <g id="line2d_38">
      <g>
       <use xlink:href="#m44d708fe43" x="891.5325" y="194.911803" style="stroke: #000000; stroke-width: 0.8"/>
      </g>
     </g>
    </g>
    <g id="ytick_11">
     <g id="line2d_39">
      <path d="M 891.5325 129.735737 
L 1713.49 129.735737 
" clip-path="url(#p68d82e6923)" style="fill: none; stroke: #b0b0b0; stroke-opacity: 0.8; stroke-width: 0.8; stroke-linecap: square"/>
     </g>
     <g id="line2d_40">
      <g>
       <use xlink:href="#m44d708fe43" x="891.5325" y="129.735737" style="stroke: #000000; stroke-width: 0.8"/>
      </g>
     </g>
    </g>
    <g id="ytick_12">
     <g id="line2d_41">
      <path d="M 891.5325 64.559672 
L 1713.49 64.559672 
" clip-path="url(#p68d82e6923)" style="fill: none; stroke: #b0b0b0; stroke-opacity: 0.8; stroke-width: 0.8; stroke-linecap: square"/>
     </g>
     <g id="line2d_42">
      <g>
       <use xlink:href="#m44d708fe43" x="891.5325" y="64.559672" style="stroke: #000000; stroke-width: 0.8"/>
      </g>
     </g>
    </g>
   </g>
  </g>
 </g>
 <defs>
  <clipPath id="pb97e620cec">
   <rect x="39.65" y="7.2" width="821.9575" height="383.24"/>
  </clipPath>
  <clipPath id="p68d82e6923">
   <rect x="891.5325" y="7.2" width="821.9575" height="383.24"/>
  </clipPath>
 </defs>
</svg>
