<?xml version="1.0" encoding="utf-8" standalone="no"?>
<!DOCTYPE svg PUBLIC "-//W3C//DTD SVG 1.1//EN"
  "http://www.w3.org/Graphics/SVG/1.1/DTD/svg11.dtd">
<svg xmlns:xlink="http://www.w3.org/1999/xlink" width="856.835pt" height="424.398125pt" viewBox="0 0 856.835 424.398125" xmlns="http://www.w3.org/2000/svg" version="1.1">
 <metadata>
  <rdf:RDF xmlns:dc="http://purl.org/dc/elements/1.1/" xmlns:cc="http://creativecommons.org/ns#" xmlns:rdf="http://www.w3.org/1999/02/22-rdf-syntax-ns#">
   <cc:Work>
    <dc:type rdf:resource="http://purl.org/dc/dcmitype/StillImage"/>
    <dc:date>2025-04-15T12:55:16.919192</dc:date>
    <dc:format>image/svg+xml</dc:format>
    <dc:creator>
     <cc:Agent>
      <dc:title>Matplotlib v3.10.0, https://matplotlib.org/</dc:title>
     </cc:Agent>
    </dc:creator>
   </cc:Work>
  </rdf:RDF>
 </metadata>
 <defs>
  <style type="text/css">*{stroke-linejoin: round; stroke-linecap: butt}</style>
 </defs>
 <g id="figure_1">
  <g id="patch_1">
   <path d="M 0 424.398125 
L 856.835 424.398125 
L 856.835 0 
L 0 0 
z
" style="fill: #ffffff"/>
  </g>
  <g id="axes_1">
   <g id="patch_2">
    <path d="M 26.925 400.52 
L 849.635 400.52 
L 849.635 7.2 
L 26.925 7.2 
z
" style="fill: #ffffff"/>
   </g>
   <g id="FillBetweenPolyCollection_1">
    <defs>
     <path id="m7b653d6ba0" d="M 74.512984 -24.316599 
L 74.512984 -23.878125 
L 78.152801 -23.878125 
L 81.792618 -23.878125 
L 85.432435 -23.878125 
L 89.072252 -23.878125 
L 92.712069 -23.878125 
L 96.351886 -23.878125 
L 99.991703 -23.878125 
L 103.63152 -23.878125 
L 107.271337 -23.878125 
L 110.911154 -23.878125 
L 114.550971 -23.878125 
L 118.190788 -23.878125 
L 121.830605 -23.878125 
L 125.470422 -23.878125 
L 129.11024 -23.878125 
L 132.750057 -23.878125 
L 136.389874 -23.878125 
L 140.029691 -23.878125 
L 143.669508 -23.878125 
L 147.309325 -23.878125 
L 150.949142 -23.878125 
L 154.588959 -23.878125 
L 158.228776 -23.878125 
L 161.868593 -23.878125 
L 165.50841 -23.878125 
L 169.148227 -23.878125 
L 172.788044 -23.878125 
L 176.427861 -23.878125 
L 180.067678 -23.878125 
L 183.707495 -23.878125 
L 187.347312 -23.878125 
L 190.98713 -23.878125 
L 194.626947 -23.878125 
L 198.266764 -23.878125 
L 201.906581 -23.878125 
L 205.546398 -23.878125 
L 209.186215 -23.878125 
L 212.826032 -23.878125 
L 216.465849 -23.878125 
L 220.105666 -23.878125 
L 223.745483 -23.878125 
L 227.3853 -23.878125 
L 231.025117 -23.878125 
L 234.664934 -23.878125 
L 238.304751 -23.878125 
L 241.944568 -23.878125 
L 245.584385 -23.878125 
L 249.224203 -23.878125 
L 252.86402 -23.878125 
L 256.503837 -23.878125 
L 260.143654 -23.878125 
L 263.783471 -23.878125 
L 267.423288 -23.878125 
L 271.063105 -23.878125 
L 274.702922 -23.878125 
L 278.342739 -23.878125 
L 281.982556 -23.878125 
L 285.622373 -23.878125 
L 289.26219 -23.878125 
L 292.902007 -23.878125 
L 296.541824 -23.878125 
L 300.181641 -23.878125 
L 303.821458 -23.878125 
L 307.461275 -23.878125 
L 311.101093 -23.878125 
L 314.74091 -23.878125 
L 318.380727 -23.878125 
L 322.020544 -23.878125 
L 325.660361 -23.878125 
L 329.300178 -23.878125 
L 332.939995 -23.878125 
L 336.579812 -23.878125 
L 340.219629 -23.878125 
L 343.859446 -23.878125 
L 347.499263 -23.878125 
L 351.13908 -23.878125 
L 354.778897 -23.878125 
L 358.418714 -23.878125 
L 362.058531 -23.878125 
L 365.698348 -23.878125 
L 369.338166 -23.878125 
L 372.977983 -23.878125 
L 376.6178 -23.878125 
L 380.257617 -23.878125 
L 383.897434 -23.878125 
L 387.537251 -23.878125 
L 391.177068 -23.878125 
L 394.816885 -23.878125 
L 398.456702 -23.878125 
L 402.096519 -23.878125 
L 405.736336 -23.878125 
L 409.376153 -23.878125 
L 413.01597 -23.878125 
L 416.655787 -23.878125 
L 420.295604 -23.878125 
L 423.935421 -23.878125 
L 427.575239 -23.878125 
L 431.215056 -23.878125 
L 434.854873 -23.878125 
L 438.49469 -23.878125 
L 442.134507 -23.878125 
L 445.774324 -23.878125 
L 449.414141 -23.878125 
L 453.053958 -23.878125 
L 456.693775 -23.878125 
L 460.333592 -23.878125 
L 463.973409 -23.878125 
L 467.613226 -23.878125 
L 471.253043 -23.878125 
L 474.89286 -23.878125 
L 478.532677 -23.878125 
L 482.172494 -23.878125 
L 485.812311 -23.878125 
L 489.452129 -23.878125 
L 493.091946 -23.878125 
L 496.731763 -23.878125 
L 500.37158 -23.878125 
L 504.011397 -23.878125 
L 507.651214 -23.878125 
L 511.291031 -23.878125 
L 514.930848 -23.878125 
L 518.570665 -23.878125 
L 522.210482 -23.878125 
L 525.850299 -23.878125 
L 529.490116 -23.878125 
L 533.129933 -23.878125 
L 536.76975 -23.878125 
L 540.409567 -23.878125 
L 544.049384 -23.878125 
L 547.689202 -23.878125 
L 551.329019 -23.878125 
L 554.968836 -23.878125 
L 558.608653 -23.878125 
L 562.24847 -23.878125 
L 565.888287 -23.878125 
L 569.528104 -23.878125 
L 573.167921 -23.878125 
L 576.807738 -23.878125 
L 580.447555 -23.878125 
L 584.087372 -23.878125 
L 587.727189 -23.878125 
L 591.367006 -23.878125 
L 595.006823 -23.878125 
L 598.64664 -23.878125 
L 602.286457 -23.878125 
L 605.926275 -23.878125 
L 609.566092 -23.878125 
L 613.205909 -23.878125 
L 616.845726 -23.878125 
L 620.485543 -23.878125 
L 624.12536 -23.878125 
L 627.765177 -23.878125 
L 631.404994 -23.878125 
L 635.044811 -23.878125 
L 638.684628 -23.878125 
L 642.324445 -23.878125 
L 645.964262 -23.878125 
L 649.604079 -23.878125 
L 653.243896 -23.878125 
L 656.883713 -23.878125 
L 660.52353 -23.878125 
L 664.163347 -23.878125 
L 667.803165 -23.878125 
L 671.442982 -23.878125 
L 675.082799 -23.878125 
L 678.722616 -23.878125 
L 682.362433 -23.878125 
L 686.00225 -23.878125 
L 689.642067 -23.878125 
L 693.281884 -23.878125 
L 696.921701 -23.878125 
L 700.561518 -23.878125 
L 704.201335 -23.878125 
L 707.841152 -23.878125 
L 711.480969 -23.878125 
L 715.120786 -23.878125 
L 718.760603 -23.878125 
L 722.40042 -23.878125 
L 726.040238 -23.878125 
L 729.680055 -23.878125 
L 733.319872 -23.878125 
L 736.959689 -23.878125 
L 740.599506 -23.878125 
L 744.239323 -23.878125 
L 747.87914 -23.878125 
L 751.518957 -23.878125 
L 755.158774 -23.878125 
L 758.798591 -23.878125 
L 762.438408 -23.878125 
L 766.078225 -23.878125 
L 769.718042 -23.878125 
L 773.357859 -23.878125 
L 776.997676 -23.878125 
L 780.637493 -23.878125 
L 784.27731 -23.878125 
L 787.917128 -23.878125 
L 791.556945 -23.878125 
L 795.196762 -23.878125 
L 798.836579 -23.878125 
L 798.836579 -23.904113 
L 798.836579 -23.904113 
L 795.196762 -23.916588 
L 791.556945 -23.934043 
L 787.917128 -23.957982 
L 784.27731 -23.990149 
L 780.637493 -24.032491 
L 776.997676 -24.087072 
L 773.357859 -24.155947 
L 769.718042 -24.240991 
L 766.078225 -24.343685 
L 762.438408 -24.464886 
L 758.798591 -24.604581 
L 755.158774 -24.761673 
L 751.518957 -24.933819 
L 747.87914 -25.117363 
L 744.239323 -25.307385 
L 740.599506 -25.497896 
L 736.959689 -25.682176 
L 733.319872 -25.853248 
L 729.680055 -26.004466 
L 726.040238 -26.130146 
L 722.40042 -26.226211 
L 718.760603 -26.290762 
L 715.120786 -26.324516 
L 711.480969 -26.331067 
L 707.841152 -26.316923 
L 704.201335 -26.291303 
L 700.561518 -26.265715 
L 696.921701 -26.253315 
L 693.281884 -26.268131 
L 689.642067 -26.324167 
L 686.00225 -26.434492 
L 682.362433 -26.610356 
L 678.722616 -26.860408 
L 675.082799 -27.190084 
L 671.442982 -27.601202 
L 667.803165 -28.091818 
L 664.163347 -28.656353 
L 660.52353 -29.286009 
L 656.883713 -29.96943 
L 653.243896 -30.693592 
L 649.604079 -31.444833 
L 645.964262 -32.209936 
L 642.324445 -32.977192 
L 638.684628 -33.737306 
L 635.044811 -34.484105 
L 631.404994 -35.214951 
L 627.765177 -35.93084 
L 624.12536 -36.636193 
L 620.485543 -37.338358 
L 616.845726 -38.046898 
L 613.205909 -38.772723 
L 609.566092 -39.527168 
L 605.926275 -40.321088 
L 602.286457 -41.164048 
L 598.64664 -42.063676 
L 595.006823 -43.025234 
L 591.367006 -44.051442 
L 587.727189 -45.142597 
L 584.087372 -46.296983 
L 580.447555 -47.51158 
L 576.807738 -48.783012 
L 573.167921 -50.108679 
L 569.528104 -51.487942 
L 565.888287 -52.923247 
L 562.24847 -54.421011 
L 558.608653 -55.992133 
L 554.968836 -57.652005 
L 551.329019 -59.419969 
L 547.689202 -61.318212 
L 544.049384 -63.370203 
L 540.409567 -65.598821 
L 536.76975 -68.024405 
L 533.129933 -70.662974 
L 529.490116 -73.524855 
L 525.850299 -76.61393 
L 522.210482 -79.927638 
L 518.570665 -83.457775 
L 514.930848 -87.192068 
L 511.291031 -91.116374 
L 507.651214 -95.217314 
L 504.011397 -99.485088 
L 500.37158 -103.916189 
L 496.731763 -108.515727 
L 493.091946 -113.299081 
L 489.452129 -118.29264 
L 485.812311 -123.533426 
L 482.172494 -129.067451 
L 478.532677 -134.946768 
L 474.89286 -141.225258 
L 471.253043 -147.953328 
L 467.613226 -155.171855 
L 463.973409 -162.905844 
L 460.333592 -171.158402 
L 456.693775 -179.905726 
L 453.053958 -189.093821 
L 449.414141 -198.637591 
L 445.774324 -208.422778 
L 442.134507 -218.310961 
L 438.49469 -228.147482 
L 434.854873 -237.771793 
L 431.215056 -247.029365 
L 427.575239 -255.784025 
L 423.935421 -263.929438 
L 420.295604 -271.398445 
L 416.655787 -278.16918 
L 413.01597 -284.267188 
L 409.376153 -289.763233 
L 405.736336 -294.766947 
L 402.096519 -299.416972 
L 398.456702 -303.868574 
L 394.816885 -308.279996 
L 391.177068 -312.798852 
L 387.537251 -317.549819 
L 383.897434 -322.62463 
L 380.257617 -328.07511 
L 376.6178 -333.909632 
L 372.977983 -340.093037 
L 369.338166 -346.549796 
L 365.698348 -353.169961 
L 362.058531 -359.817306 
L 358.418714 -366.338986 
L 354.778897 -372.575985 
L 351.13908 -378.37366 
L 347.499263 -383.591698 
L 343.859446 -388.112858 
L 340.219629 -391.849968 
L 336.579812 -394.750757 
L 332.939995 -396.800248 
L 329.300178 -398.020612 
L 325.660361 -398.468601 
L 322.020544 -398.23084 
L 318.380727 -397.417449 
L 314.74091 -396.154577 
L 311.101093 -394.576499 
L 307.461275 -392.817898 
L 303.821458 -391.006914 
L 300.181641 -389.259368 
L 296.541824 -387.674446 
L 292.902007 -386.331922 
L 289.26219 -385.290861 
L 285.622373 -384.589583 
L 281.982556 -384.246592 
L 278.342739 -384.262144 
L 274.702922 -384.620106 
L 271.063105 -385.289857 
L 267.423288 -386.228035 
L 263.783471 -387.380082 
L 260.143654 -388.681601 
L 256.503837 -390.059677 
L 252.86402 -391.434313 
L 249.224203 -392.720164 
L 245.584385 -393.828664 
L 241.944568 -394.670576 
L 238.304751 -395.158813 
L 234.664934 -395.211283 
L 231.025117 -394.753395 
L 227.3853 -393.719801 
L 223.745483 -392.055008 
L 220.105666 -389.712595 
L 216.465849 -386.653011 
L 212.826032 -382.840147 
L 209.186215 -378.237216 
L 205.546398 -372.802654 
L 201.906581 -366.486953 
L 198.266764 -359.231319 
L 194.626947 -350.968901 
L 190.98713 -341.629041 
L 187.347312 -331.144525 
L 183.707495 -319.461344 
L 180.067678 -306.549958 
L 176.427861 -292.416685 
L 172.788044 -277.113646 
L 169.148227 -260.745707 
L 165.50841 -243.473151 
L 161.868593 -225.50929 
L 158.228776 -207.112875 
L 154.588959 -188.575812 
L 150.949142 -170.207333 
L 147.309325 -152.316214 
L 143.669508 -135.192853 
L 140.029691 -119.093026 
L 136.389874 -104.224837 
L 132.750057 -90.739949 
L 129.11024 -78.729616 
L 125.470422 -68.22547 
L 121.830605 -59.204475 
L 118.190788 -51.59712 
L 114.550971 -45.297691 
L 110.911154 -40.175409 
L 107.271337 -36.085348 
L 103.63152 -32.878262 
L 99.991703 -30.408712 
L 96.351886 -28.541202 
L 92.712069 -27.15426 
L 89.072252 -26.142645 
L 85.432435 -25.417967 
L 81.792618 -24.908097 
L 78.152801 -24.555753 
L 74.512984 -24.316599 
z
"/>
    </defs>
    <g clip-path="url(#p6a16717f81)">
     <use xlink:href="#m7b653d6ba0" x="0" y="424.398125" style="fill: #a9a9a9; fill-opacity: 0.6"/>
    </g>
   </g>
   <g id="FillBetweenPolyCollection_2">
    <defs>
     <path id="m246c8e81a4" d="M 64.320909 -24.384068 
L 64.320909 -23.878125 
L 68.079292 -23.878125 
L 71.837675 -23.878125 
L 75.596058 -23.878125 
L 79.35444 -23.878125 
L 83.112823 -23.878125 
L 86.871206 -23.878125 
L 90.629589 -23.878125 
L 94.387972 -23.878125 
L 98.146354 -23.878125 
L 101.904737 -23.878125 
L 105.66312 -23.878125 
L 109.421503 -23.878125 
L 113.179886 -23.878125 
L 116.938269 -23.878125 
L 120.696651 -23.878125 
L 124.455034 -23.878125 
L 128.213417 -23.878125 
L 131.9718 -23.878125 
L 135.730183 -23.878125 
L 139.488566 -23.878125 
L 143.246948 -23.878125 
L 147.005331 -23.878125 
L 150.763714 -23.878125 
L 154.522097 -23.878125 
L 158.28048 -23.878125 
L 162.038862 -23.878125 
L 165.797245 -23.878125 
L 169.555628 -23.878125 
L 173.314011 -23.878125 
L 177.072394 -23.878125 
L 180.830777 -23.878125 
L 184.589159 -23.878125 
L 188.347542 -23.878125 
L 192.105925 -23.878125 
L 195.864308 -23.878125 
L 199.622691 -23.878125 
L 203.381074 -23.878125 
L 207.139456 -23.878125 
L 210.897839 -23.878125 
L 214.656222 -23.878125 
L 218.414605 -23.878125 
L 222.172988 -23.878125 
L 225.93137 -23.878125 
L 229.689753 -23.878125 
L 233.448136 -23.878125 
L 237.206519 -23.878125 
L 240.964902 -23.878125 
L 244.723285 -23.878125 
L 248.481667 -23.878125 
L 252.24005 -23.878125 
L 255.998433 -23.878125 
L 259.756816 -23.878125 
L 263.515199 -23.878125 
L 267.273582 -23.878125 
L 271.031964 -23.878125 
L 274.790347 -23.878125 
L 278.54873 -23.878125 
L 282.307113 -23.878125 
L 286.065496 -23.878125 
L 289.823878 -23.878125 
L 293.582261 -23.878125 
L 297.340644 -23.878125 
L 301.099027 -23.878125 
L 304.85741 -23.878125 
L 308.615793 -23.878125 
L 312.374175 -23.878125 
L 316.132558 -23.878125 
L 319.890941 -23.878125 
L 323.649324 -23.878125 
L 327.407707 -23.878125 
L 331.16609 -23.878125 
L 334.924472 -23.878125 
L 338.682855 -23.878125 
L 342.441238 -23.878125 
L 346.199621 -23.878125 
L 349.958004 -23.878125 
L 353.716386 -23.878125 
L 357.474769 -23.878125 
L 361.233152 -23.878125 
L 364.991535 -23.878125 
L 368.749918 -23.878125 
L 372.508301 -23.878125 
L 376.266683 -23.878125 
L 380.025066 -23.878125 
L 383.783449 -23.878125 
L 387.541832 -23.878125 
L 391.300215 -23.878125 
L 395.058598 -23.878125 
L 398.81698 -23.878125 
L 402.575363 -23.878125 
L 406.333746 -23.878125 
L 410.092129 -23.878125 
L 413.850512 -23.878125 
L 417.608894 -23.878125 
L 421.367277 -23.878125 
L 425.12566 -23.878125 
L 428.884043 -23.878125 
L 432.642426 -23.878125 
L 436.400809 -23.878125 
L 440.159191 -23.878125 
L 443.917574 -23.878125 
L 447.675957 -23.878125 
L 451.43434 -23.878125 
L 455.192723 -23.878125 
L 458.951106 -23.878125 
L 462.709488 -23.878125 
L 466.467871 -23.878125 
L 470.226254 -23.878125 
L 473.984637 -23.878125 
L 477.74302 -23.878125 
L 481.501402 -23.878125 
L 485.259785 -23.878125 
L 489.018168 -23.878125 
L 492.776551 -23.878125 
L 496.534934 -23.878125 
L 500.293317 -23.878125 
L 504.051699 -23.878125 
L 507.810082 -23.878125 
L 511.568465 -23.878125 
L 515.326848 -23.878125 
L 519.085231 -23.878125 
L 522.843614 -23.878125 
L 526.601996 -23.878125 
L 530.360379 -23.878125 
L 534.118762 -23.878125 
L 537.877145 -23.878125 
L 541.635528 -23.878125 
L 545.39391 -23.878125 
L 549.152293 -23.878125 
L 552.910676 -23.878125 
L 556.669059 -23.878125 
L 560.427442 -23.878125 
L 564.185825 -23.878125 
L 567.944207 -23.878125 
L 571.70259 -23.878125 
L 575.460973 -23.878125 
L 579.219356 -23.878125 
L 582.977739 -23.878125 
L 586.736122 -23.878125 
L 590.494504 -23.878125 
L 594.252887 -23.878125 
L 598.01127 -23.878125 
L 601.769653 -23.878125 
L 605.528036 -23.878125 
L 609.286418 -23.878125 
L 613.044801 -23.878125 
L 616.803184 -23.878125 
L 620.561567 -23.878125 
L 624.31995 -23.878125 
L 628.078333 -23.878125 
L 631.836715 -23.878125 
L 635.595098 -23.878125 
L 639.353481 -23.878125 
L 643.111864 -23.878125 
L 646.870247 -23.878125 
L 650.62863 -23.878125 
L 654.387012 -23.878125 
L 658.145395 -23.878125 
L 661.903778 -23.878125 
L 665.662161 -23.878125 
L 669.420544 -23.878125 
L 673.178926 -23.878125 
L 676.937309 -23.878125 
L 680.695692 -23.878125 
L 684.454075 -23.878125 
L 688.212458 -23.878125 
L 691.970841 -23.878125 
L 695.729223 -23.878125 
L 699.487606 -23.878125 
L 703.245989 -23.878125 
L 707.004372 -23.878125 
L 710.762755 -23.878125 
L 714.521138 -23.878125 
L 718.27952 -23.878125 
L 722.037903 -23.878125 
L 725.796286 -23.878125 
L 729.554669 -23.878125 
L 733.313052 -23.878125 
L 737.071434 -23.878125 
L 740.829817 -23.878125 
L 744.5882 -23.878125 
L 748.346583 -23.878125 
L 752.104966 -23.878125 
L 755.863349 -23.878125 
L 759.621731 -23.878125 
L 763.380114 -23.878125 
L 767.138497 -23.878125 
L 770.89688 -23.878125 
L 774.655263 -23.878125 
L 778.413646 -23.878125 
L 782.172028 -23.878125 
L 785.930411 -23.878125 
L 789.688794 -23.878125 
L 793.447177 -23.878125 
L 797.20556 -23.878125 
L 800.963942 -23.878125 
L 804.722325 -23.878125 
L 808.480708 -23.878125 
L 812.239091 -23.878125 
L 812.239091 -23.919551 
L 812.239091 -23.919551 
L 808.480708 -23.936834 
L 804.722325 -23.960165 
L 800.963942 -23.991169 
L 797.20556 -24.031715 
L 793.447177 -24.083892 
L 789.688794 -24.149947 
L 785.930411 -24.232197 
L 782.172028 -24.332902 
L 778.413646 -24.454103 
L 774.655263 -24.597437 
L 770.89688 -24.763924 
L 767.138497 -24.953757 
L 763.380114 -25.166108 
L 759.621731 -25.398959 
L 755.863349 -25.649012 
L 752.104966 -25.911667 
L 748.346583 -26.181105 
L 744.5882 -26.450486 
L 740.829817 -26.712252 
L 737.071434 -26.958535 
L 733.313052 -27.181645 
L 729.554669 -27.374596 
L 725.796286 -27.53165 
L 722.037903 -27.648808 
L 718.27952 -27.724226 
L 714.521138 -27.758504 
L 710.762755 -27.754812 
L 707.004372 -27.718858 
L 703.245989 -27.658664 
L 699.487606 -27.58419 
L 695.729223 -27.506819 
L 691.970841 -27.438746 
L 688.212458 -27.392309 
L 684.454075 -27.379334 
L 680.695692 -27.410517 
L 676.937309 -27.494909 
L 673.178926 -27.639529 
L 669.420544 -27.849142 
L 665.662161 -28.126204 
L 661.903778 -28.470987 
L 658.145395 -28.881872 
L 654.387012 -29.355781 
L 650.62863 -29.888717 
L 646.870247 -30.476379 
L 643.111864 -31.11479 
L 639.353481 -31.800903 
L 635.595098 -32.533125 
L 631.836715 -33.311718 
L 628.078333 -34.139045 
L 624.31995 -35.019627 
L 620.561567 -35.960016 
L 616.803184 -36.968474 
L 613.044801 -38.054494 
L 609.286418 -39.228194 
L 605.528036 -40.499645 
L 601.769653 -41.878177 
L 598.01127 -43.371747 
L 594.252887 -44.986394 
L 590.494504 -46.725865 
L 586.736122 -48.591407 
L 582.977739 -50.581755 
L 579.219356 -52.693297 
L 575.460973 -54.920376 
L 571.70259 -57.255699 
L 567.944207 -59.690777 
L 564.185825 -62.216359 
L 560.427442 -64.822803 
L 556.669059 -67.50038 
L 552.910676 -70.239487 
L 549.152293 -73.030817 
L 545.39391 -75.865525 
L 541.635528 -78.735452 
L 537.877145 -81.63348 
L 534.118762 -84.554064 
L 530.360379 -87.493984 
L 526.601996 -90.453301 
L 522.843614 -93.436482 
L 519.085231 -96.453611 
L 515.326848 -99.521544 
L 511.568465 -102.664893 
L 507.810082 -105.916643 
L 504.051699 -109.318283 
L 500.293317 -112.919299 
L 496.534934 -116.775949 
L 492.776551 -120.949287 
L 489.018168 -125.502456 
L 485.259785 -130.49733 
L 481.501402 -135.990678 
L 477.74302 -142.030041 
L 473.984637 -148.649597 
L 470.226254 -155.866311 
L 466.467871 -163.676683 
L 462.709488 -172.054409 
L 458.951106 -180.949248 
L 455.192723 -190.287307 
L 451.43434 -199.972891 
L 447.675957 -209.891945 
L 443.917574 -219.916973 
L 440.159191 -229.913208 
L 436.400809 -239.745641 
L 432.642426 -249.286434 
L 428.884043 -258.422161 
L 425.12566 -267.06028 
L 421.367277 -275.134312 
L 417.608894 -282.607234 
L 413.850512 -289.472787 
L 410.092129 -295.754525 
L 406.333746 -301.502667 
L 402.575363 -306.788971 
L 398.81698 -311.700051 
L 395.058598 -316.329663 
L 391.300215 -320.770597 
L 387.541832 -325.106827 
L 383.783449 -329.406535 
L 380.025066 -333.716569 
L 376.266683 -338.058738 
L 372.508301 -342.428238 
L 368.749918 -346.794294 
L 364.991535 -351.102955 
L 361.233152 -355.281811 
L 357.474769 -359.246246 
L 353.716386 -362.906741 
L 349.958004 -366.176646 
L 346.199621 -368.979805 
L 342.441238 -371.257436 
L 338.682855 -372.973692 
L 334.924472 -374.119473 
L 331.16609 -374.714135 
L 327.407707 -374.804971 
L 323.649324 -374.464478 
L 319.890941 -373.785629 
L 316.132558 -372.875551 
L 312.374175 -371.848132 
L 308.615793 -370.816194 
L 304.85741 -369.883892 
L 301.099027 -369.140007 
L 297.340644 -368.652666 
L 293.582261 -368.465929 
L 289.823878 -368.598469 
L 286.065496 -369.044379 
L 282.307113 -369.77592 
L 278.54873 -370.747847 
L 274.790347 -371.902785 
L 271.031964 -373.177063 
L 267.273582 -374.506345 
L 263.515199 -375.830497 
L 259.756816 -377.097164 
L 255.998433 -378.263758 
L 252.24005 -379.297676 
L 248.481667 -380.174807 
L 244.723285 -380.876541 
L 240.964902 -381.385662 
L 237.206519 -381.681604 
L 233.448136 -381.735617 
L 229.689753 -381.506379 
L 225.93137 -380.93658 
L 222.172988 -379.95088 
L 218.414605 -378.455563 
L 214.656222 -376.340058 
L 210.897839 -373.480361 
L 207.139456 -369.744256 
L 203.381074 -364.998068 
L 199.622691 -359.114587 
L 195.864308 -351.981662 
L 192.105925 -343.510899 
L 188.347542 -333.64584 
L 184.589159 -322.368977 
L 180.830777 -309.707017 
L 177.072394 -295.733876 
L 173.314011 -280.57104 
L 169.555628 -264.385103 
L 165.797245 -247.382517 
L 162.038862 -229.801804 
L 158.28048 -211.903711 
L 154.522097 -193.959959 
L 150.763714 -176.241364 
L 147.005331 -159.006161 
L 143.246948 -142.489344 
L 139.488566 -126.893718 
L 135.730183 -112.383203 
L 131.9718 -99.078721 
L 128.213417 -87.056763 
L 124.455034 -76.350496 
L 120.696651 -66.953116 
L 116.938269 -58.822951 
L 113.179886 -51.889784 
L 109.421503 -46.061806 
L 105.66312 -41.232655 
L 101.904737 -37.288063 
L 98.146354 -34.111757 
L 94.387972 -31.590359 
L 90.629589 -29.617172 
L 86.871206 -28.094832 
L 83.112823 -26.936911 
L 79.35444 -26.068594 
L 75.596058 -25.426622 
L 71.837675 -24.958673 
L 68.079292 -24.622368 
L 64.320909 -24.384068 
z
"/>
    </defs>
    <g clip-path="url(#p6a16717f81)">
     <use xlink:href="#m246c8e81a4" x="0" y="424.398125" style="fill: #6495ed; fill-opacity: 0.5"/>
    </g>
   </g>
   <g id="matplotlib.axis_1">
    <g id="xtick_1">
     <g id="line2d_1">
      <defs>
       <path id="ma9d43e525f" d="M 0 0 
L 0 3.5 
" style="stroke: #000000; stroke-width: 0.8"/>
      </defs>
      <g>
       <use xlink:href="#ma9d43e525f" x="153.923932" y="400.52" style="stroke: #000000; stroke-width: 0.8"/>
      </g>
     </g>
     <g id="text_1">
      <!-- 0 -->
      <g transform="translate(150.742682 415.118437) scale(0.1 -0.1)">
       <defs>
        <path id="DejaVuSans-30" d="M 2034 4250 
Q 1547 4250 1301 3770 
Q 1056 3291 1056 2328 
Q 1056 1369 1301 889 
Q 1547 409 2034 409 
Q 2525 409 2770 889 
Q 3016 1369 3016 2328 
Q 3016 3291 2770 3770 
Q 2525 4250 2034 4250 
z
M 2034 4750 
Q 2819 4750 3233 4129 
Q 3647 3509 3647 2328 
Q 3647 1150 3233 529 
Q 2819 -91 2034 -91 
Q 1250 -91 836 529 
Q 422 1150 422 2328 
Q 422 3509 836 4129 
Q 1250 4750 2034 4750 
z
" transform="scale(0.015625)"/>
       </defs>
       <use xlink:href="#DejaVuSans-30"/>
      </g>
     </g>
    </g>
    <g id="xtick_2">
     <g id="line2d_2">
      <g>
       <use xlink:href="#ma9d43e525f" x="308.215032" y="400.52" style="stroke: #000000; stroke-width: 0.8"/>
      </g>
     </g>
     <g id="text_2">
      <!-- 10 -->
      <g transform="translate(301.852532 415.118437) scale(0.1 -0.1)">
       <defs>
        <path id="DejaVuSans-31" d="M 794 531 
L 1825 531 
L 1825 4091 
L 703 3866 
L 703 4441 
L 1819 4666 
L 2450 4666 
L 2450 531 
L 3481 531 
L 3481 0 
L 794 0 
L 794 531 
z
" transform="scale(0.015625)"/>
       </defs>
       <use xlink:href="#DejaVuSans-31"/>
       <use xlink:href="#DejaVuSans-30" transform="translate(63.623047 0)"/>
      </g>
     </g>
    </g>
    <g id="xtick_3">
     <g id="line2d_3">
      <g>
       <use xlink:href="#ma9d43e525f" x="462.506132" y="400.52" style="stroke: #000000; stroke-width: 0.8"/>
      </g>
     </g>
     <g id="text_3">
      <!-- 20 -->
      <g transform="translate(456.143632 415.118437) scale(0.1 -0.1)">
       <defs>
        <path id="DejaVuSans-32" d="M 1228 531 
L 3431 531 
L 3431 0 
L 469 0 
L 469 531 
Q 828 903 1448 1529 
Q 2069 2156 2228 2338 
Q 2531 2678 2651 2914 
Q 2772 3150 2772 3378 
Q 2772 3750 2511 3984 
Q 2250 4219 1831 4219 
Q 1534 4219 1204 4116 
Q 875 4013 500 3803 
L 500 4441 
Q 881 4594 1212 4672 
Q 1544 4750 1819 4750 
Q 2544 4750 2975 4387 
Q 3406 4025 3406 3419 
Q 3406 3131 3298 2873 
Q 3191 2616 2906 2266 
Q 2828 2175 2409 1742 
Q 1991 1309 1228 531 
z
" transform="scale(0.015625)"/>
       </defs>
       <use xlink:href="#DejaVuSans-32"/>
       <use xlink:href="#DejaVuSans-30" transform="translate(63.623047 0)"/>
      </g>
     </g>
    </g>
    <g id="xtick_4">
     <g id="line2d_4">
      <g>
       <use xlink:href="#ma9d43e525f" x="616.797231" y="400.52" style="stroke: #000000; stroke-width: 0.8"/>
      </g>
     </g>
     <g id="text_4">
      <!-- 30 -->
      <g transform="translate(610.434731 415.118437) scale(0.1 -0.1)">
       <defs>
        <path id="DejaVuSans-33" d="M 2597 2516 
Q 3050 2419 3304 2112 
Q 3559 1806 3559 1356 
Q 3559 666 3084 287 
Q 2609 -91 1734 -91 
Q 1441 -91 1130 -33 
Q 819 25 488 141 
L 488 750 
Q 750 597 1062 519 
Q 1375 441 1716 441 
Q 2309 441 2620 675 
Q 2931 909 2931 1356 
Q 2931 1769 2642 2001 
Q 2353 2234 1838 2234 
L 1294 2234 
L 1294 2753 
L 1863 2753 
Q 2328 2753 2575 2939 
Q 2822 3125 2822 3475 
Q 2822 3834 2567 4026 
Q 2313 4219 1838 4219 
Q 1578 4219 1281 4162 
Q 984 4106 628 3988 
L 628 4550 
Q 988 4650 1302 4700 
Q 1616 4750 1894 4750 
Q 2613 4750 3031 4423 
Q 3450 4097 3450 3541 
Q 3450 3153 3228 2886 
Q 3006 2619 2597 2516 
z
" transform="scale(0.015625)"/>
       </defs>
       <use xlink:href="#DejaVuSans-33"/>
       <use xlink:href="#DejaVuSans-30" transform="translate(63.623047 0)"/>
      </g>
     </g>
    </g>
    <g id="xtick_5">
     <g id="line2d_5">
      <g>
       <use xlink:href="#ma9d43e525f" x="771.088331" y="400.52" style="stroke: #000000; stroke-width: 0.8"/>
      </g>
     </g>
     <g id="text_5">
      <!-- 40 -->
      <g transform="translate(764.725831 415.118437) scale(0.1 -0.1)">
       <defs>
        <path id="DejaVuSans-34" d="M 2419 4116 
L 825 1625 
L 2419 1625 
L 2419 4116 
z
M 2253 4666 
L 3047 4666 
L 3047 1625 
L 3713 1625 
L 3713 1100 
L 3047 1100 
L 3047 0 
L 2419 0 
L 2419 1100 
L 313 1100 
L 313 1709 
L 2253 4666 
z
" transform="scale(0.015625)"/>
       </defs>
       <use xlink:href="#DejaVuSans-34"/>
       <use xlink:href="#DejaVuSans-30" transform="translate(63.623047 0)"/>
      </g>
     </g>
    </g>
   </g>
   <g id="matplotlib.axis_2">
    <g id="ytick_1">
     <g id="line2d_6">
      <path d="M 26.925 400.52 
L 849.635 400.52 
" clip-path="url(#p6a16717f81)" style="fill: none; stroke: #b0b0b0; stroke-opacity: 0.8; stroke-width: 0.8; stroke-linecap: square"/>
     </g>
     <g id="line2d_7">
      <defs>
       <path id="m96415745c8" d="M 0 0 
L -3.5 0 
" style="stroke: #000000; stroke-width: 0.8"/>
      </defs>
      <g>
       <use xlink:href="#m96415745c8" x="26.925" y="400.52" style="stroke: #000000; stroke-width: 0.8"/>
      </g>
     </g>
     <g id="text_6">
      <!-- 0 -->
      <g transform="translate(13.5625 404.319219) scale(0.1 -0.1)">
       <use xlink:href="#DejaVuSans-30"/>
      </g>
     </g>
    </g>
    <g id="ytick_2">
     <g id="line2d_8">
      <path d="M 26.925 330.043818 
L 849.635 330.043818 
" clip-path="url(#p6a16717f81)" style="fill: none; stroke: #b0b0b0; stroke-opacity: 0.8; stroke-width: 0.8; stroke-linecap: square"/>
     </g>
     <g id="line2d_9">
      <g>
       <use xlink:href="#m96415745c8" x="26.925" y="330.043818" style="stroke: #000000; stroke-width: 0.8"/>
      </g>
     </g>
     <g id="text_7">
      <!-- 10 -->
      <g transform="translate(7.2 333.843037) scale(0.1 -0.1)">
       <use xlink:href="#DejaVuSans-31"/>
       <use xlink:href="#DejaVuSans-30" transform="translate(63.623047 0)"/>
      </g>
     </g>
    </g>
    <g id="ytick_3">
     <g id="line2d_10">
      <path d="M 26.925 259.567636 
L 849.635 259.567636 
" clip-path="url(#p6a16717f81)" style="fill: none; stroke: #b0b0b0; stroke-opacity: 0.8; stroke-width: 0.8; stroke-linecap: square"/>
     </g>
     <g id="line2d_11">
      <g>
       <use xlink:href="#m96415745c8" x="26.925" y="259.567636" style="stroke: #000000; stroke-width: 0.8"/>
      </g>
     </g>
     <g id="text_8">
      <!-- 20 -->
      <g transform="translate(7.2 263.366855) scale(0.1 -0.1)">
       <use xlink:href="#DejaVuSans-32"/>
       <use xlink:href="#DejaVuSans-30" transform="translate(63.623047 0)"/>
      </g>
     </g>
    </g>
    <g id="ytick_4">
     <g id="line2d_12">
      <path d="M 26.925 189.091454 
L 849.635 189.091454 
" clip-path="url(#p6a16717f81)" style="fill: none; stroke: #b0b0b0; stroke-opacity: 0.8; stroke-width: 0.8; stroke-linecap: square"/>
     </g>
     <g id="line2d_13">
      <g>
       <use xlink:href="#m96415745c8" x="26.925" y="189.091454" style="stroke: #000000; stroke-width: 0.8"/>
      </g>
     </g>
     <g id="text_9">
      <!-- 30 -->
      <g transform="translate(7.2 192.890672) scale(0.1 -0.1)">
       <use xlink:href="#DejaVuSans-33"/>
       <use xlink:href="#DejaVuSans-30" transform="translate(63.623047 0)"/>
      </g>
     </g>
    </g>
    <g id="ytick_5">
     <g id="line2d_14">
      <path d="M 26.925 118.615272 
L 849.635 118.615272 
" clip-path="url(#p6a16717f81)" style="fill: none; stroke: #b0b0b0; stroke-opacity: 0.8; stroke-width: 0.8; stroke-linecap: square"/>
     </g>
     <g id="line2d_15">
      <g>
       <use xlink:href="#m96415745c8" x="26.925" y="118.615272" style="stroke: #000000; stroke-width: 0.8"/>
      </g>
     </g>
     <g id="text_10">
      <!-- 40 -->
      <g transform="translate(7.2 122.41449) scale(0.1 -0.1)">
       <use xlink:href="#DejaVuSans-34"/>
       <use xlink:href="#DejaVuSans-30" transform="translate(63.623047 0)"/>
      </g>
     </g>
    </g>
    <g id="ytick_6">
     <g id="line2d_16">
      <path d="M 26.925 48.139089 
L 849.635 48.139089 
" clip-path="url(#p6a16717f81)" style="fill: none; stroke: #b0b0b0; stroke-opacity: 0.8; stroke-width: 0.8; stroke-linecap: square"/>
     </g>
     <g id="line2d_17">
      <g>
       <use xlink:href="#m96415745c8" x="26.925" y="48.139089" style="stroke: #000000; stroke-width: 0.8"/>
      </g>
     </g>
     <g id="text_11">
      <!-- 50 -->
      <g transform="translate(7.2 51.938308) scale(0.1 -0.1)">
       <defs>
        <path id="DejaVuSans-35" d="M 691 4666 
L 3169 4666 
L 3169 4134 
L 1269 4134 
L 1269 2991 
Q 1406 3038 1543 3061 
Q 1681 3084 1819 3084 
Q 2600 3084 3056 2656 
Q 3513 2228 3513 1497 
Q 3513 744 3044 326 
Q 2575 -91 1722 -91 
Q 1428 -91 1123 -41 
Q 819 9 494 109 
L 494 744 
Q 775 591 1075 516 
Q 1375 441 1709 441 
Q 2250 441 2565 725 
Q 2881 1009 2881 1497 
Q 2881 1984 2565 2268 
Q 2250 2553 1709 2553 
Q 1456 2553 1204 2497 
Q 953 2441 691 2322 
L 691 4666 
z
" transform="scale(0.015625)"/>
       </defs>
       <use xlink:href="#DejaVuSans-35"/>
       <use xlink:href="#DejaVuSans-30" transform="translate(63.623047 0)"/>
      </g>
     </g>
    </g>
   </g>
  </g>
 </g>
 <defs>
  <clipPath id="p6a16717f81">
   <rect x="26.925" y="7.2" width="822.71" height="393.32"/>
  </clipPath>
 </defs>
</svg>
