<?xml version="1.0" encoding="utf-8" standalone="no"?>
<!DOCTYPE svg PUBLIC "-//W3C//DTD SVG 1.1//EN"
  "http://www.w3.org/Graphics/SVG/1.1/DTD/svg11.dtd">
<svg xmlns:xlink="http://www.w3.org/1999/xlink" width="856.835pt" height="424.398125pt" viewBox="0 0 856.835 424.398125" xmlns="http://www.w3.org/2000/svg" version="1.1">
 <metadata>
  <rdf:RDF xmlns:dc="http://purl.org/dc/elements/1.1/" xmlns:cc="http://creativecommons.org/ns#" xmlns:rdf="http://www.w3.org/1999/02/22-rdf-syntax-ns#">
   <cc:Work>
    <dc:type rdf:resource="http://purl.org/dc/dcmitype/StillImage"/>
    <dc:date>2025-04-15T12:55:17.061378</dc:date>
    <dc:format>image/svg+xml</dc:format>
    <dc:creator>
     <cc:Agent>
      <dc:title>Matplotlib v3.10.0, https://matplotlib.org/</dc:title>
     </cc:Agent>
    </dc:creator>
   </cc:Work>
  </rdf:RDF>
 </metadata>
 <defs>
  <style type="text/css">*{stroke-linejoin: round; stroke-linecap: butt}</style>
 </defs>
 <g id="figure_1">
  <g id="patch_1">
   <path d="M 0 424.398125 
L 856.835 424.398125 
L 856.835 0 
L 0 0 
z
" style="fill: #ffffff"/>
  </g>
  <g id="axes_1">
   <g id="patch_2">
    <path d="M 26.925 400.52 
L 849.635 400.52 
L 849.635 7.2 
L 26.925 7.2 
z
" style="fill: #ffffff"/>
   </g>
   <g id="FillBetweenPolyCollection_1">
    <defs>
     <path id="m0e6011a989" d="M 74.962884 -24.294289 
L 74.962884 -23.878125 
L 78.667789 -23.878125 
L 82.372695 -23.878125 
L 86.0776 -23.878125 
L 89.782506 -23.878125 
L 93.487412 -23.878125 
L 97.192317 -23.878125 
L 100.897223 -23.878125 
L 104.602128 -23.878125 
L 108.307034 -23.878125 
L 112.011939 -23.878125 
L 115.716845 -23.878125 
L 119.421751 -23.878125 
L 123.126656 -23.878125 
L 126.831562 -23.878125 
L 130.536467 -23.878125 
L 134.241373 -23.878125 
L 137.946278 -23.878125 
L 141.651184 -23.878125 
L 145.35609 -23.878125 
L 149.060995 -23.878125 
L 152.765901 -23.878125 
L 156.470806 -23.878125 
L 160.175712 -23.878125 
L 163.880617 -23.878125 
L 167.585523 -23.878125 
L 171.290428 -23.878125 
L 174.995334 -23.878125 
L 178.70024 -23.878125 
L 182.405145 -23.878125 
L 186.110051 -23.878125 
L 189.814956 -23.878125 
L 193.519862 -23.878125 
L 197.224767 -23.878125 
L 200.929673 -23.878125 
L 204.634579 -23.878125 
L 208.339484 -23.878125 
L 212.04439 -23.878125 
L 215.749295 -23.878125 
L 219.454201 -23.878125 
L 223.159106 -23.878125 
L 226.864012 -23.878125 
L 230.568917 -23.878125 
L 234.273823 -23.878125 
L 237.978729 -23.878125 
L 241.683634 -23.878125 
L 245.38854 -23.878125 
L 249.093445 -23.878125 
L 252.798351 -23.878125 
L 256.503256 -23.878125 
L 260.208162 -23.878125 
L 263.913068 -23.878125 
L 267.617973 -23.878125 
L 271.322879 -23.878125 
L 275.027784 -23.878125 
L 278.73269 -23.878125 
L 282.437595 -23.878125 
L 286.142501 -23.878125 
L 289.847406 -23.878125 
L 293.552312 -23.878125 
L 297.257218 -23.878125 
L 300.962123 -23.878125 
L 304.667029 -23.878125 
L 308.371934 -23.878125 
L 312.07684 -23.878125 
L 315.781745 -23.878125 
L 319.486651 -23.878125 
L 323.191557 -23.878125 
L 326.896462 -23.878125 
L 330.601368 -23.878125 
L 334.306273 -23.878125 
L 338.011179 -23.878125 
L 341.716084 -23.878125 
L 345.42099 -23.878125 
L 349.125895 -23.878125 
L 352.830801 -23.878125 
L 356.535707 -23.878125 
L 360.240612 -23.878125 
L 363.945518 -23.878125 
L 367.650423 -23.878125 
L 371.355329 -23.878125 
L 375.060234 -23.878125 
L 378.76514 -23.878125 
L 382.470046 -23.878125 
L 386.174951 -23.878125 
L 389.879857 -23.878125 
L 393.584762 -23.878125 
L 397.289668 -23.878125 
L 400.994573 -23.878125 
L 404.699479 -23.878125 
L 408.404385 -23.878125 
L 412.10929 -23.878125 
L 415.814196 -23.878125 
L 419.519101 -23.878125 
L 423.224007 -23.878125 
L 426.928912 -23.878125 
L 430.633818 -23.878125 
L 434.338723 -23.878125 
L 438.043629 -23.878125 
L 441.748535 -23.878125 
L 445.45344 -23.878125 
L 449.158346 -23.878125 
L 452.863251 -23.878125 
L 456.568157 -23.878125 
L 460.273062 -23.878125 
L 463.977968 -23.878125 
L 467.682874 -23.878125 
L 471.387779 -23.878125 
L 475.092685 -23.878125 
L 478.79759 -23.878125 
L 482.502496 -23.878125 
L 486.207401 -23.878125 
L 489.912307 -23.878125 
L 493.617212 -23.878125 
L 497.322118 -23.878125 
L 501.027024 -23.878125 
L 504.731929 -23.878125 
L 508.436835 -23.878125 
L 512.14174 -23.878125 
L 515.846646 -23.878125 
L 519.551551 -23.878125 
L 523.256457 -23.878125 
L 526.961363 -23.878125 
L 530.666268 -23.878125 
L 534.371174 -23.878125 
L 538.076079 -23.878125 
L 541.780985 -23.878125 
L 545.48589 -23.878125 
L 549.190796 -23.878125 
L 552.895701 -23.878125 
L 556.600607 -23.878125 
L 560.305513 -23.878125 
L 564.010418 -23.878125 
L 567.715324 -23.878125 
L 571.420229 -23.878125 
L 575.125135 -23.878125 
L 578.83004 -23.878125 
L 582.534946 -23.878125 
L 586.239852 -23.878125 
L 589.944757 -23.878125 
L 593.649663 -23.878125 
L 597.354568 -23.878125 
L 601.059474 -23.878125 
L 604.764379 -23.878125 
L 608.469285 -23.878125 
L 612.17419 -23.878125 
L 615.879096 -23.878125 
L 619.584002 -23.878125 
L 623.288907 -23.878125 
L 626.993813 -23.878125 
L 630.698718 -23.878125 
L 634.403624 -23.878125 
L 638.108529 -23.878125 
L 641.813435 -23.878125 
L 645.518341 -23.878125 
L 649.223246 -23.878125 
L 652.928152 -23.878125 
L 656.633057 -23.878125 
L 660.337963 -23.878125 
L 664.042868 -23.878125 
L 667.747774 -23.878125 
L 671.45268 -23.878125 
L 675.157585 -23.878125 
L 678.862491 -23.878125 
L 682.567396 -23.878125 
L 686.272302 -23.878125 
L 689.977207 -23.878125 
L 693.682113 -23.878125 
L 697.387018 -23.878125 
L 701.091924 -23.878125 
L 704.79683 -23.878125 
L 708.501735 -23.878125 
L 712.206641 -23.878125 
L 715.911546 -23.878125 
L 719.616452 -23.878125 
L 723.321357 -23.878125 
L 727.026263 -23.878125 
L 730.731169 -23.878125 
L 734.436074 -23.878125 
L 738.14098 -23.878125 
L 741.845885 -23.878125 
L 745.550791 -23.878125 
L 749.255696 -23.878125 
L 752.960602 -23.878125 
L 756.665507 -23.878125 
L 760.370413 -23.878125 
L 764.075319 -23.878125 
L 767.780224 -23.878125 
L 771.48513 -23.878125 
L 775.190035 -23.878125 
L 778.894941 -23.878125 
L 782.599846 -23.878125 
L 786.304752 -23.878125 
L 790.009658 -23.878125 
L 793.714563 -23.878125 
L 797.419469 -23.878125 
L 801.124374 -23.878125 
L 804.82928 -23.878125 
L 808.534185 -23.878125 
L 812.239091 -23.878125 
L 812.239091 -23.90279 
L 812.239091 -23.90279 
L 808.534185 -23.914631 
L 804.82928 -23.931198 
L 801.124374 -23.953918 
L 797.419469 -23.984449 
L 793.714563 -24.024636 
L 790.009658 -24.076441 
L 786.304752 -24.141812 
L 782.599846 -24.222528 
L 778.894941 -24.319997 
L 775.190035 -24.435032 
L 771.48513 -24.567619 
L 767.780224 -24.716718 
L 764.075319 -24.880105 
L 760.370413 -25.05431 
L 756.665507 -25.234664 
L 752.960602 -25.415482 
L 749.255696 -25.590385 
L 745.550791 -25.752753 
L 741.845885 -25.896277 
L 738.14098 -26.015562 
L 734.436074 -26.10674 
L 730.731169 -26.168006 
L 727.026263 -26.200043 
L 723.321357 -26.206261 
L 719.616452 -26.192836 
L 715.911546 -26.16852 
L 712.206641 -26.144233 
L 708.501735 -26.132465 
L 704.79683 -26.146527 
L 701.091924 -26.199712 
L 697.387018 -26.304423 
L 693.682113 -26.471339 
L 689.977207 -26.708668 
L 686.272302 -27.02157 
L 682.567396 -27.41177 
L 678.862491 -27.877423 
L 675.157585 -28.413236 
L 671.45268 -29.010854 
L 667.747774 -29.659502 
L 664.042868 -30.346819 
L 660.337963 -31.059836 
L 656.633057 -31.786011 
L 652.928152 -32.514228 
L 649.223246 -33.235667 
L 645.518341 -33.944469 
L 641.813435 -34.63813 
L 638.108529 -35.317594 
L 634.403624 -35.987058 
L 630.698718 -36.653497 
L 626.993813 -37.325986 
L 623.288907 -38.01488 
L 619.584002 -38.730939 
L 615.879096 -39.484464 
L 612.17419 -40.284534 
L 608.469285 -41.13839 
L 604.764379 -42.051023 
L 601.059474 -43.025017 
L 597.354568 -44.060653 
L 593.649663 -45.156304 
L 589.944757 -46.309102 
L 586.239852 -47.515843 
L 582.534946 -48.774059 
L 578.83004 -50.083145 
L 575.125135 -51.445421 
L 571.420229 -52.866979 
L 567.715324 -54.358161 
L 564.010418 -55.933578 
L 560.305513 -57.611588 
L 556.600607 -59.413248 
L 552.895701 -61.360833 
L 549.190796 -63.476057 
L 545.48589 -65.778227 
L 541.780985 -68.282545 
L 538.076079 -70.998813 
L 534.371174 -73.930715 
L 530.666268 -77.075819 
L 526.961363 -80.426342 
L 523.256457 -83.970633 
L 519.551551 -87.69527 
L 515.846646 -91.587552 
L 512.14174 -95.63818 
L 508.436835 -99.843826 
L 504.731929 -104.209337 
L 501.027024 -108.749312 
L 497.322118 -113.488798 
L 493.617212 -118.462931 
L 489.912307 -123.715383 
L 486.207401 -129.295558 
L 482.502496 -135.254597 
L 478.79759 -141.64034 
L 475.092685 -148.491586 
L 471.387779 -155.832067 
L 467.682874 -163.664732 
L 463.977968 -171.966989 
L 460.273062 -180.687591 
L 456.568157 -189.745771 
L 452.863251 -199.033084 
L 449.158346 -208.418153 
L 445.45344 -217.754188 
L 441.748535 -226.888811 
L 438.043629 -235.675354 
L 434.338723 -243.984575 
L 430.633818 -251.715546 
L 426.928912 -258.804528 
L 423.224007 -265.230765 
L 419.519101 -271.018505 
L 415.814196 -276.234909 
L 412.10929 -280.984033 
L 408.404385 -285.397463 
L 404.699479 -289.622566 
L 400.994573 -293.809533 
L 397.289668 -298.098468 
L 393.584762 -302.607704 
L 389.879857 -307.424307 
L 386.174951 -312.597465 
L 382.470046 -318.135125 
L 378.76514 -324.003916 
L 375.060234 -330.132153 
L 371.355329 -336.415481 
L 367.650423 -342.724608 
L 363.945518 -348.914462 
L 360.240612 -354.83412 
L 356.535707 -360.336808 
L 352.830801 -365.289351 
L 349.125895 -369.580472 
L 345.42099 -373.127436 
L 341.716084 -375.880633 
L 338.011179 -377.825845 
L 334.306273 -378.984116 
L 330.601368 -379.409311 
L 326.896462 -379.183648 
L 323.191557 -378.411642 
L 319.486651 -377.213026 
L 315.781745 -375.71524 
L 312.07684 -374.046118 
L 308.371934 -372.327277 
L 304.667029 -370.668647 
L 300.962123 -369.164366 
L 297.257218 -367.89015 
L 293.552312 -366.902059 
L 289.847406 -366.236462 
L 286.142501 -365.910923 
L 282.437595 -365.925683 
L 278.73269 -366.265433 
L 275.027784 -366.901106 
L 271.322879 -367.79155 
L 267.617973 -368.88498 
L 263.913068 -370.120277 
L 260.208162 -371.428236 
L 256.503256 -372.732931 
L 252.798351 -373.953356 
L 249.093445 -375.005456 
L 245.38854 -375.804531 
L 241.683634 -376.267926 
L 237.978729 -376.317726 
L 234.273823 -375.883136 
L 230.568917 -374.902132 
L 226.864012 -373.322044 
L 223.159106 -371.098814 
L 219.454201 -368.194902 
L 215.749295 -364.576038 
L 212.04439 -360.207306 
L 208.339484 -355.049256 
L 204.634579 -349.0549 
L 200.929673 -342.168435 
L 197.224767 -334.326412 
L 193.519862 -325.461767 
L 189.814956 -315.510707 
L 186.110051 -304.42197 
L 182.405145 -292.16752 
L 178.70024 -278.753352 
L 174.995334 -264.228937 
L 171.290428 -248.693805 
L 167.585523 -232.300082 
L 163.880617 -215.250229 
L 160.175712 -197.789829 
L 156.470806 -180.195938 
L 152.765901 -162.762054 
L 149.060995 -145.78124 
L 145.35609 -129.529122 
L 141.651184 -114.24846 
L 137.946278 -100.13677 
L 134.241373 -87.337997 
L 130.536467 -75.938754 
L 126.831562 -65.969063 
L 123.126656 -57.407058 
L 119.421751 -50.186768 
L 115.716845 -44.207857 
L 112.011939 -39.346198 
L 108.307034 -35.464241 
L 104.602128 -32.420332 
L 100.897223 -30.076434 
L 97.192317 -28.303943 
L 93.487412 -26.987569 
L 89.782506 -26.027425 
L 86.0776 -25.339619 
L 82.372695 -24.855692 
L 78.667789 -24.521275 
L 74.962884 -24.294289 
z
"/>
    </defs>
    <g clip-path="url(#pf7c4c31d76)">
     <use xlink:href="#m0e6011a989" x="0" y="424.398125" style="fill: #a9a9a9; fill-opacity: 0.6"/>
    </g>
   </g>
   <g id="FillBetweenPolyCollection_2">
    <defs>
     <path id="m7e5f0dbd95" d="M 64.320909 -24.39928 
L 64.320909 -23.878125 
L 67.75551 -23.878125 
L 71.190112 -23.878125 
L 74.624713 -23.878125 
L 78.059314 -23.878125 
L 81.493915 -23.878125 
L 84.928517 -23.878125 
L 88.363118 -23.878125 
L 91.797719 -23.878125 
L 95.23232 -23.878125 
L 98.666922 -23.878125 
L 102.101523 -23.878125 
L 105.536124 -23.878125 
L 108.970726 -23.878125 
L 112.405327 -23.878125 
L 115.839928 -23.878125 
L 119.274529 -23.878125 
L 122.709131 -23.878125 
L 126.143732 -23.878125 
L 129.578333 -23.878125 
L 133.012934 -23.878125 
L 136.447536 -23.878125 
L 139.882137 -23.878125 
L 143.316738 -23.878125 
L 146.751339 -23.878125 
L 150.185941 -23.878125 
L 153.620542 -23.878125 
L 157.055143 -23.878125 
L 160.489745 -23.878125 
L 163.924346 -23.878125 
L 167.358947 -23.878125 
L 170.793548 -23.878125 
L 174.22815 -23.878125 
L 177.662751 -23.878125 
L 181.097352 -23.878125 
L 184.531953 -23.878125 
L 187.966555 -23.878125 
L 191.401156 -23.878125 
L 194.835757 -23.878125 
L 198.270358 -23.878125 
L 201.70496 -23.878125 
L 205.139561 -23.878125 
L 208.574162 -23.878125 
L 212.008764 -23.878125 
L 215.443365 -23.878125 
L 218.877966 -23.878125 
L 222.312567 -23.878125 
L 225.747169 -23.878125 
L 229.18177 -23.878125 
L 232.616371 -23.878125 
L 236.050972 -23.878125 
L 239.485574 -23.878125 
L 242.920175 -23.878125 
L 246.354776 -23.878125 
L 249.789377 -23.878125 
L 253.223979 -23.878125 
L 256.65858 -23.878125 
L 260.093181 -23.878125 
L 263.527782 -23.878125 
L 266.962384 -23.878125 
L 270.396985 -23.878125 
L 273.831586 -23.878125 
L 277.266188 -23.878125 
L 280.700789 -23.878125 
L 284.13539 -23.878125 
L 287.569991 -23.878125 
L 291.004593 -23.878125 
L 294.439194 -23.878125 
L 297.873795 -23.878125 
L 301.308396 -23.878125 
L 304.742998 -23.878125 
L 308.177599 -23.878125 
L 311.6122 -23.878125 
L 315.046801 -23.878125 
L 318.481403 -23.878125 
L 321.916004 -23.878125 
L 325.350605 -23.878125 
L 328.785207 -23.878125 
L 332.219808 -23.878125 
L 335.654409 -23.878125 
L 339.08901 -23.878125 
L 342.523612 -23.878125 
L 345.958213 -23.878125 
L 349.392814 -23.878125 
L 352.827415 -23.878125 
L 356.262017 -23.878125 
L 359.696618 -23.878125 
L 363.131219 -23.878125 
L 366.56582 -23.878125 
L 370.000422 -23.878125 
L 373.435023 -23.878125 
L 376.869624 -23.878125 
L 380.304226 -23.878125 
L 383.738827 -23.878125 
L 387.173428 -23.878125 
L 390.608029 -23.878125 
L 394.042631 -23.878125 
L 397.477232 -23.878125 
L 400.911833 -23.878125 
L 404.346434 -23.878125 
L 407.781036 -23.878125 
L 411.215637 -23.878125 
L 414.650238 -23.878125 
L 418.084839 -23.878125 
L 421.519441 -23.878125 
L 424.954042 -23.878125 
L 428.388643 -23.878125 
L 431.823244 -23.878125 
L 435.257846 -23.878125 
L 438.692447 -23.878125 
L 442.127048 -23.878125 
L 445.56165 -23.878125 
L 448.996251 -23.878125 
L 452.430852 -23.878125 
L 455.865453 -23.878125 
L 459.300055 -23.878125 
L 462.734656 -23.878125 
L 466.169257 -23.878125 
L 469.603858 -23.878125 
L 473.03846 -23.878125 
L 476.473061 -23.878125 
L 479.907662 -23.878125 
L 483.342263 -23.878125 
L 486.776865 -23.878125 
L 490.211466 -23.878125 
L 493.646067 -23.878125 
L 497.080669 -23.878125 
L 500.51527 -23.878125 
L 503.949871 -23.878125 
L 507.384472 -23.878125 
L 510.819074 -23.878125 
L 514.253675 -23.878125 
L 517.688276 -23.878125 
L 521.122877 -23.878125 
L 524.557479 -23.878125 
L 527.99208 -23.878125 
L 531.426681 -23.878125 
L 534.861282 -23.878125 
L 538.295884 -23.878125 
L 541.730485 -23.878125 
L 545.165086 -23.878125 
L 548.599688 -23.878125 
L 552.034289 -23.878125 
L 555.46889 -23.878125 
L 558.903491 -23.878125 
L 562.338093 -23.878125 
L 565.772694 -23.878125 
L 569.207295 -23.878125 
L 572.641896 -23.878125 
L 576.076498 -23.878125 
L 579.511099 -23.878125 
L 582.9457 -23.878125 
L 586.380301 -23.878125 
L 589.814903 -23.878125 
L 593.249504 -23.878125 
L 596.684105 -23.878125 
L 600.118707 -23.878125 
L 603.553308 -23.878125 
L 606.987909 -23.878125 
L 610.42251 -23.878125 
L 613.857112 -23.878125 
L 617.291713 -23.878125 
L 620.726314 -23.878125 
L 624.160915 -23.878125 
L 627.595517 -23.878125 
L 631.030118 -23.878125 
L 634.464719 -23.878125 
L 637.89932 -23.878125 
L 641.333922 -23.878125 
L 644.768523 -23.878125 
L 648.203124 -23.878125 
L 651.637725 -23.878125 
L 655.072327 -23.878125 
L 658.506928 -23.878125 
L 661.941529 -23.878125 
L 665.376131 -23.878125 
L 668.810732 -23.878125 
L 672.245333 -23.878125 
L 675.679934 -23.878125 
L 679.114536 -23.878125 
L 682.549137 -23.878125 
L 685.983738 -23.878125 
L 689.418339 -23.878125 
L 692.852941 -23.878125 
L 696.287542 -23.878125 
L 699.722143 -23.878125 
L 703.156744 -23.878125 
L 706.591346 -23.878125 
L 710.025947 -23.878125 
L 713.460548 -23.878125 
L 716.89515 -23.878125 
L 720.329751 -23.878125 
L 723.764352 -23.878125 
L 727.198953 -23.878125 
L 730.633555 -23.878125 
L 734.068156 -23.878125 
L 737.502757 -23.878125 
L 740.937358 -23.878125 
L 744.37196 -23.878125 
L 747.806561 -23.878125 
L 747.806561 -23.933467 
L 747.806561 -23.933467 
L 744.37196 -23.955332 
L 740.937358 -23.984605 
L 737.502757 -24.023307 
L 734.068156 -24.073834 
L 730.633555 -24.13897 
L 727.198953 -24.221883 
L 723.764352 -24.326092 
L 720.329751 -24.455414 
L 716.89515 -24.613868 
L 713.460548 -24.805555 
L 710.025947 -25.0345 
L 706.591346 -25.304468 
L 703.156744 -25.618757 
L 699.722143 -25.979988 
L 696.287542 -26.389889 
L 692.852941 -26.849113 
L 689.418339 -27.35708 
L 685.983738 -27.911887 
L 682.549137 -28.510275 
L 679.114536 -29.147675 
L 675.679934 -29.818337 
L 672.245333 -30.515536 
L 668.810732 -31.231833 
L 665.376131 -31.959396 
L 661.941529 -32.690338 
L 658.506928 -33.417053 
L 655.072327 -34.132528 
L 651.637725 -34.830591 
L 648.203124 -35.506105 
L 644.768523 -36.155054 
L 641.333922 -36.774563 
L 637.89932 -37.362821 
L 634.464719 -37.918946 
L 631.030118 -38.442798 
L 627.595517 -38.934774 
L 624.160915 -39.395614 
L 620.726314 -39.826235 
L 617.291713 -40.227626 
L 613.857112 -40.600812 
L 610.42251 -40.946909 
L 606.987909 -41.267259 
L 603.553308 -41.563649 
L 600.118707 -41.83861 
L 596.684105 -42.095762 
L 593.249504 -42.340206 
L 589.814903 -42.57892 
L 586.380301 -42.821148 
L 582.9457 -43.078745 
L 579.511099 -43.366443 
L 576.076498 -43.702017 
L 572.641896 -44.106318 
L 569.207295 -44.603132 
L 565.772694 -45.218867 
L 562.338093 -45.982037 
L 558.903491 -46.922541 
L 555.46889 -48.070767 
L 552.034289 -49.456528 
L 548.599688 -51.107894 
L 545.165086 -53.049972 
L 541.730485 -55.30371 
L 538.295884 -57.884821 
L 534.861282 -60.802896 
L 531.426681 -64.0608 
L 527.99208 -67.654421 
L 524.557479 -71.572808 
L 521.122877 -75.798733 
L 517.688276 -80.30965 
L 514.253675 -85.079009 
L 510.819074 -90.077842 
L 507.384472 -95.2765 
L 503.949871 -100.646418 
L 500.51527 -106.161743 
L 497.080669 -111.800697 
L 493.646067 -117.546532 
L 490.211466 -123.387987 
L 486.776865 -129.31918 
L 483.342263 -135.338936 
L 479.907662 -141.449596 
L 476.473061 -147.655403 
L 473.03846 -153.960631 
L 469.603858 -160.367619 
L 466.169257 -166.87494 
L 462.734656 -173.475887 
L 459.300055 -180.157481 
L 455.865453 -186.90012 
L 452.430852 -193.677975 
L 448.996251 -200.460127 
L 445.56165 -207.212386 
L 442.127048 -213.899663 
L 438.692447 -220.488675 
L 435.257846 -226.950749 
L 431.823244 -233.26445 
L 428.388643 -239.417757 
L 424.954042 -245.409566 
L 421.519441 -251.250333 
L 418.084839 -256.961756 
L 414.650238 -262.575482 
L 411.215637 -268.130927 
L 407.781036 -273.672353 
L 404.346434 -279.245448 
L 400.911833 -284.893683 
L 397.477232 -290.654728 
L 394.042631 -296.557233 
L 390.608029 -302.618199 
L 387.173428 -308.84115 
L 383.738827 -315.215201 
L 380.304226 -321.715079 
L 376.869624 -328.302045 
L 373.435023 -334.925609 
L 370.000422 -341.525875 
L 366.56582 -348.036315 
L 363.131219 -354.386763 
L 359.696618 -360.506414 
L 356.262017 -366.32665 
L 352.827415 -371.783533 
L 349.392814 -376.819885 
L 345.958213 -381.386884 
L 342.523612 -385.445177 
L 339.08901 -388.965566 
L 335.654409 -391.929318 
L 332.219808 -394.328212 
L 328.785207 -396.164394 
L 325.350605 -397.45015 
L 321.916004 -398.207637 
L 318.481403 -398.468601 
L 315.046801 -398.27407 
L 311.6122 -397.673958 
L 308.177599 -396.726504 
L 304.742998 -395.49742 
L 301.308396 -394.058654 
L 297.873795 -392.486662 
L 294.439194 -390.860127 
L 291.004593 -389.257136 
L 287.569991 -387.751867 
L 284.13539 -386.410919 
L 280.700789 -385.289511 
L 277.266188 -384.427787 
L 273.831586 -383.847553 
L 270.396985 -383.54973 
L 266.962384 -383.512821 
L 263.527782 -383.692611 
L 260.093181 -384.02324 
L 256.65858 -384.419682 
L 253.223979 -384.781531 
L 249.789377 -384.997891 
L 246.354776 -384.953036 
L 242.920175 -384.53244 
L 239.485574 -383.628715 
L 236.050972 -382.146993 
L 232.616371 -380.009333 
L 229.18177 -377.157789 
L 225.747169 -373.555934 
L 222.312567 -369.188733 
L 218.877966 -364.060849 
L 215.443365 -358.193591 
L 212.008764 -351.620866 
L 208.574162 -344.384562 
L 205.139561 -336.529882 
L 201.70496 -328.101098 
L 198.270358 -319.138194 
L 194.835757 -309.674716 
L 191.401156 -299.737044 
L 187.966555 -289.345129 
L 184.531953 -278.514574 
L 181.097352 -267.259786 
L 177.662751 -255.597808 
L 174.22815 -243.552368 
L 170.793548 -231.157655 
L 167.358947 -218.461353 
L 163.924346 -205.526571 
L 160.489745 -192.432392 
L 157.055143 -179.272949 
L 153.620542 -166.155047 
L 150.185941 -153.194546 
L 146.751339 -140.511787 
L 143.316738 -128.226472 
L 139.882137 -116.452416 
L 136.447536 -105.292607 
L 133.012934 -94.834939 
L 129.578333 -85.148922 
L 126.143732 -76.28355 
L 122.709131 -68.266418 
L 119.274529 -61.104046 
L 115.839928 -54.783284 
L 112.405327 -49.273602 
L 108.970726 -44.53002 
L 105.536124 -40.496405 
L 102.101523 -37.10889 
L 98.666922 -34.299178 
L 95.23232 -31.997556 
L 91.797719 -30.135474 
L 88.363118 -28.647628 
L 84.928517 -27.473498 
L 81.493915 -26.558378 
L 78.059314 -25.853931 
L 74.624713 -25.318339 
L 71.190112 -24.916141 
L 67.75551 -24.617826 
L 64.320909 -24.39928 
z
"/>
    </defs>
    <g clip-path="url(#pf7c4c31d76)">
     <use xlink:href="#m7e5f0dbd95" x="0" y="424.398125" style="fill: #ff69b4; fill-opacity: 0.5"/>
    </g>
   </g>
   <g id="matplotlib.axis_1">
    <g id="xtick_1">
     <g id="line2d_1">
      <defs>
       <path id="md3baf2e6fa" d="M 0 0 
L 0 3.5 
" style="stroke: #000000; stroke-width: 0.8"/>
      </defs>
      <g>
       <use xlink:href="#md3baf2e6fa" x="155.793887" y="400.52" style="stroke: #000000; stroke-width: 0.8"/>
      </g>
     </g>
     <g id="text_1">
      <!-- 0 -->
      <g transform="translate(152.612637 415.118437) scale(0.1 -0.1)">
       <defs>
        <path id="DejaVuSans-30" d="M 2034 4250 
Q 1547 4250 1301 3770 
Q 1056 3291 1056 2328 
Q 1056 1369 1301 889 
Q 1547 409 2034 409 
Q 2525 409 2770 889 
Q 3016 1369 3016 2328 
Q 3016 3291 2770 3770 
Q 2525 4250 2034 4250 
z
M 2034 4750 
Q 2819 4750 3233 4129 
Q 3647 3509 3647 2328 
Q 3647 1150 3233 529 
Q 2819 -91 2034 -91 
Q 1250 -91 836 529 
Q 422 1150 422 2328 
Q 422 3509 836 4129 
Q 1250 4750 2034 4750 
z
" transform="scale(0.015625)"/>
       </defs>
       <use xlink:href="#DejaVuSans-30"/>
      </g>
     </g>
    </g>
    <g id="xtick_2">
     <g id="line2d_2">
      <g>
       <use xlink:href="#md3baf2e6fa" x="312.844075" y="400.52" style="stroke: #000000; stroke-width: 0.8"/>
      </g>
     </g>
     <g id="text_2">
      <!-- 10 -->
      <g transform="translate(306.481575 415.118437) scale(0.1 -0.1)">
       <defs>
        <path id="DejaVuSans-31" d="M 794 531 
L 1825 531 
L 1825 4091 
L 703 3866 
L 703 4441 
L 1819 4666 
L 2450 4666 
L 2450 531 
L 3481 531 
L 3481 0 
L 794 0 
L 794 531 
z
" transform="scale(0.015625)"/>
       </defs>
       <use xlink:href="#DejaVuSans-31"/>
       <use xlink:href="#DejaVuSans-30" transform="translate(63.623047 0)"/>
      </g>
     </g>
    </g>
    <g id="xtick_3">
     <g id="line2d_3">
      <g>
       <use xlink:href="#md3baf2e6fa" x="469.894263" y="400.52" style="stroke: #000000; stroke-width: 0.8"/>
      </g>
     </g>
     <g id="text_3">
      <!-- 20 -->
      <g transform="translate(463.531763 415.118437) scale(0.1 -0.1)">
       <defs>
        <path id="DejaVuSans-32" d="M 1228 531 
L 3431 531 
L 3431 0 
L 469 0 
L 469 531 
Q 828 903 1448 1529 
Q 2069 2156 2228 2338 
Q 2531 2678 2651 2914 
Q 2772 3150 2772 3378 
Q 2772 3750 2511 3984 
Q 2250 4219 1831 4219 
Q 1534 4219 1204 4116 
Q 875 4013 500 3803 
L 500 4441 
Q 881 4594 1212 4672 
Q 1544 4750 1819 4750 
Q 2544 4750 2975 4387 
Q 3406 4025 3406 3419 
Q 3406 3131 3298 2873 
Q 3191 2616 2906 2266 
Q 2828 2175 2409 1742 
Q 1991 1309 1228 531 
z
" transform="scale(0.015625)"/>
       </defs>
       <use xlink:href="#DejaVuSans-32"/>
       <use xlink:href="#DejaVuSans-30" transform="translate(63.623047 0)"/>
      </g>
     </g>
    </g>
    <g id="xtick_4">
     <g id="line2d_4">
      <g>
       <use xlink:href="#md3baf2e6fa" x="626.944451" y="400.52" style="stroke: #000000; stroke-width: 0.8"/>
      </g>
     </g>
     <g id="text_4">
      <!-- 30 -->
      <g transform="translate(620.581951 415.118437) scale(0.1 -0.1)">
       <defs>
        <path id="DejaVuSans-33" d="M 2597 2516 
Q 3050 2419 3304 2112 
Q 3559 1806 3559 1356 
Q 3559 666 3084 287 
Q 2609 -91 1734 -91 
Q 1441 -91 1130 -33 
Q 819 25 488 141 
L 488 750 
Q 750 597 1062 519 
Q 1375 441 1716 441 
Q 2309 441 2620 675 
Q 2931 909 2931 1356 
Q 2931 1769 2642 2001 
Q 2353 2234 1838 2234 
L 1294 2234 
L 1294 2753 
L 1863 2753 
Q 2328 2753 2575 2939 
Q 2822 3125 2822 3475 
Q 2822 3834 2567 4026 
Q 2313 4219 1838 4219 
Q 1578 4219 1281 4162 
Q 984 4106 628 3988 
L 628 4550 
Q 988 4650 1302 4700 
Q 1616 4750 1894 4750 
Q 2613 4750 3031 4423 
Q 3450 4097 3450 3541 
Q 3450 3153 3228 2886 
Q 3006 2619 2597 2516 
z
" transform="scale(0.015625)"/>
       </defs>
       <use xlink:href="#DejaVuSans-33"/>
       <use xlink:href="#DejaVuSans-30" transform="translate(63.623047 0)"/>
      </g>
     </g>
    </g>
    <g id="xtick_5">
     <g id="line2d_5">
      <g>
       <use xlink:href="#md3baf2e6fa" x="783.994639" y="400.52" style="stroke: #000000; stroke-width: 0.8"/>
      </g>
     </g>
     <g id="text_5">
      <!-- 40 -->
      <g transform="translate(777.632139 415.118437) scale(0.1 -0.1)">
       <defs>
        <path id="DejaVuSans-34" d="M 2419 4116 
L 825 1625 
L 2419 1625 
L 2419 4116 
z
M 2253 4666 
L 3047 4666 
L 3047 1625 
L 3713 1625 
L 3713 1100 
L 3047 1100 
L 3047 0 
L 2419 0 
L 2419 1100 
L 313 1100 
L 313 1709 
L 2253 4666 
z
" transform="scale(0.015625)"/>
       </defs>
       <use xlink:href="#DejaVuSans-34"/>
       <use xlink:href="#DejaVuSans-30" transform="translate(63.623047 0)"/>
      </g>
     </g>
    </g>
   </g>
   <g id="matplotlib.axis_2">
    <g id="ytick_1">
     <g id="line2d_6">
      <path d="M 26.925 400.52 
L 849.635 400.52 
" clip-path="url(#pf7c4c31d76)" style="fill: none; stroke: #b0b0b0; stroke-opacity: 0.8; stroke-width: 0.8; stroke-linecap: square"/>
     </g>
     <g id="line2d_7">
      <defs>
       <path id="m968e1b39f8" d="M 0 0 
L -3.5 0 
" style="stroke: #000000; stroke-width: 0.8"/>
      </defs>
      <g>
       <use xlink:href="#m968e1b39f8" x="26.925" y="400.52" style="stroke: #000000; stroke-width: 0.8"/>
      </g>
     </g>
     <g id="text_6">
      <!-- 0 -->
      <g transform="translate(13.5625 404.319219) scale(0.1 -0.1)">
       <use xlink:href="#DejaVuSans-30"/>
      </g>
     </g>
    </g>
    <g id="ytick_2">
     <g id="line2d_8">
      <path d="M 26.925 333.62967 
L 849.635 333.62967 
" clip-path="url(#pf7c4c31d76)" style="fill: none; stroke: #b0b0b0; stroke-opacity: 0.8; stroke-width: 0.8; stroke-linecap: square"/>
     </g>
     <g id="line2d_9">
      <g>
       <use xlink:href="#m968e1b39f8" x="26.925" y="333.62967" style="stroke: #000000; stroke-width: 0.8"/>
      </g>
     </g>
     <g id="text_7">
      <!-- 10 -->
      <g transform="translate(7.2 337.428889) scale(0.1 -0.1)">
       <use xlink:href="#DejaVuSans-31"/>
       <use xlink:href="#DejaVuSans-30" transform="translate(63.623047 0)"/>
      </g>
     </g>
    </g>
    <g id="ytick_3">
     <g id="line2d_10">
      <path d="M 26.925 266.73934 
L 849.635 266.73934 
" clip-path="url(#pf7c4c31d76)" style="fill: none; stroke: #b0b0b0; stroke-opacity: 0.8; stroke-width: 0.8; stroke-linecap: square"/>
     </g>
     <g id="line2d_11">
      <g>
       <use xlink:href="#m968e1b39f8" x="26.925" y="266.73934" style="stroke: #000000; stroke-width: 0.8"/>
      </g>
     </g>
     <g id="text_8">
      <!-- 20 -->
      <g transform="translate(7.2 270.538558) scale(0.1 -0.1)">
       <use xlink:href="#DejaVuSans-32"/>
       <use xlink:href="#DejaVuSans-30" transform="translate(63.623047 0)"/>
      </g>
     </g>
    </g>
    <g id="ytick_4">
     <g id="line2d_12">
      <path d="M 26.925 199.849009 
L 849.635 199.849009 
" clip-path="url(#pf7c4c31d76)" style="fill: none; stroke: #b0b0b0; stroke-opacity: 0.8; stroke-width: 0.8; stroke-linecap: square"/>
     </g>
     <g id="line2d_13">
      <g>
       <use xlink:href="#m968e1b39f8" x="26.925" y="199.849009" style="stroke: #000000; stroke-width: 0.8"/>
      </g>
     </g>
     <g id="text_9">
      <!-- 30 -->
      <g transform="translate(7.2 203.648228) scale(0.1 -0.1)">
       <use xlink:href="#DejaVuSans-33"/>
       <use xlink:href="#DejaVuSans-30" transform="translate(63.623047 0)"/>
      </g>
     </g>
    </g>
    <g id="ytick_5">
     <g id="line2d_14">
      <path d="M 26.925 132.958679 
L 849.635 132.958679 
" clip-path="url(#pf7c4c31d76)" style="fill: none; stroke: #b0b0b0; stroke-opacity: 0.8; stroke-width: 0.8; stroke-linecap: square"/>
     </g>
     <g id="line2d_15">
      <g>
       <use xlink:href="#m968e1b39f8" x="26.925" y="132.958679" style="stroke: #000000; stroke-width: 0.8"/>
      </g>
     </g>
     <g id="text_10">
      <!-- 40 -->
      <g transform="translate(7.2 136.757898) scale(0.1 -0.1)">
       <use xlink:href="#DejaVuSans-34"/>
       <use xlink:href="#DejaVuSans-30" transform="translate(63.623047 0)"/>
      </g>
     </g>
    </g>
    <g id="ytick_6">
     <g id="line2d_16">
      <path d="M 26.925 66.068349 
L 849.635 66.068349 
" clip-path="url(#pf7c4c31d76)" style="fill: none; stroke: #b0b0b0; stroke-opacity: 0.8; stroke-width: 0.8; stroke-linecap: square"/>
     </g>
     <g id="line2d_17">
      <g>
       <use xlink:href="#m968e1b39f8" x="26.925" y="66.068349" style="stroke: #000000; stroke-width: 0.8"/>
      </g>
     </g>
     <g id="text_11">
      <!-- 50 -->
      <g transform="translate(7.2 69.867568) scale(0.1 -0.1)">
       <defs>
        <path id="DejaVuSans-35" d="M 691 4666 
L 3169 4666 
L 3169 4134 
L 1269 4134 
L 1269 2991 
Q 1406 3038 1543 3061 
Q 1681 3084 1819 3084 
Q 2600 3084 3056 2656 
Q 3513 2228 3513 1497 
Q 3513 744 3044 326 
Q 2575 -91 1722 -91 
Q 1428 -91 1123 -41 
Q 819 9 494 109 
L 494 744 
Q 775 591 1075 516 
Q 1375 441 1709 441 
Q 2250 441 2565 725 
Q 2881 1009 2881 1497 
Q 2881 1984 2565 2268 
Q 2250 2553 1709 2553 
Q 1456 2553 1204 2497 
Q 953 2441 691 2322 
L 691 4666 
z
" transform="scale(0.015625)"/>
       </defs>
       <use xlink:href="#DejaVuSans-35"/>
       <use xlink:href="#DejaVuSans-30" transform="translate(63.623047 0)"/>
      </g>
     </g>
    </g>
   </g>
  </g>
 </g>
 <defs>
  <clipPath id="pf7c4c31d76">
   <rect x="26.925" y="7.2" width="822.71" height="393.32"/>
  </clipPath>
 </defs>
</svg>
