<?xml version="1.0" encoding="utf-8" standalone="no"?>
<!DOCTYPE svg PUBLIC "-//W3C//DTD SVG 1.1//EN"
  "http://www.w3.org/Graphics/SVG/1.1/DTD/svg11.dtd">
<svg xmlns:xlink="http://www.w3.org/1999/xlink" width="1144.695pt" height="425.885pt" viewBox="0 0 1144.695 425.885" xmlns="http://www.w3.org/2000/svg" version="1.1">
 <metadata>
  <rdf:RDF xmlns:dc="http://purl.org/dc/elements/1.1/" xmlns:cc="http://creativecommons.org/ns#" xmlns:rdf="http://www.w3.org/1999/02/22-rdf-syntax-ns#">
   <cc:Work>
    <dc:type rdf:resource="http://purl.org/dc/dcmitype/StillImage"/>
    <dc:date>2025-04-15T14:56:30.369531</dc:date>
    <dc:format>image/svg+xml</dc:format>
    <dc:creator>
     <cc:Agent>
      <dc:title>Matplotlib v3.10.0, https://matplotlib.org/</dc:title>
     </cc:Agent>
    </dc:creator>
   </cc:Work>
  </rdf:RDF>
 </metadata>
 <defs>
  <style type="text/css">*{stroke-linejoin: round; stroke-linecap: butt}</style>
 </defs>
 <g id="figure_1">
  <g id="patch_1">
   <path d="M 0 425.885 
L 1144.695 425.885 
L 1144.695 0 
L 0 0 
z
" style="fill: #ffffff"/>
  </g>
  <g id="axes_1">
   <g id="patch_2">
    <path d="M 34.56 396.2 
L 1127.315 396.2 
L 1127.315 7.2 
L 34.56 7.2 
z
" style="fill: #ffffff"/>
   </g>
   <g id="FillBetweenPolyCollection_1">
    <path d="M -124.091652 395.676216 
L -124.091652 396.2 
L -117.437036 396.2 
L -110.782421 396.2 
L -104.127806 396.2 
L -97.473191 396.2 
L -90.818575 396.2 
L -84.16396 396.2 
L -77.509345 396.2 
L -70.85473 396.2 
L -64.200114 396.2 
L -57.545499 396.2 
L -50.890884 396.2 
L -44.236269 396.2 
L -37.581653 396.2 
L -30.927038 396.2 
L -24.272423 396.2 
L -17.617808 396.2 
L -10.963192 396.2 
L -4.308577 396.2 
L 2.346038 396.2 
L 9.000653 396.2 
L 15.655269 396.2 
L 22.309884 396.2 
L 28.964499 396.2 
L 35.619114 396.2 
L 42.27373 396.2 
L 48.928345 396.2 
L 55.58296 396.2 
L 62.237575 396.2 
L 68.892191 396.2 
L 75.546806 396.2 
L 82.201421 396.2 
L 88.856036 396.2 
L 95.510652 396.2 
L 102.165267 396.2 
L 108.819882 396.2 
L 115.474497 396.2 
L 122.129113 396.2 
L 128.783728 396.2 
L 135.438343 396.2 
L 142.092958 396.2 
L 148.747574 396.2 
L 155.402189 396.2 
L 162.056804 396.2 
L 168.711419 396.2 
L 175.366035 396.2 
L 182.02065 396.2 
L 188.675265 396.2 
L 195.32988 396.2 
L 201.984496 396.2 
L 208.639111 396.2 
L 215.293726 396.2 
L 221.948341 396.2 
L 228.602957 396.2 
L 235.257572 396.2 
L 241.912187 396.2 
L 248.566802 396.2 
L 255.221418 396.2 
L 261.876033 396.2 
L 268.530648 396.2 
L 275.185263 396.2 
L 281.839879 396.2 
L 288.494494 396.2 
L 295.149109 396.2 
L 301.803724 396.2 
L 308.458339 396.2 
L 315.112955 396.2 
L 321.76757 396.2 
L 328.422185 396.2 
L 335.0768 396.2 
L 341.731416 396.2 
L 348.386031 396.2 
L 355.040646 396.2 
L 361.695261 396.2 
L 368.349877 396.2 
L 375.004492 396.2 
L 381.659107 396.2 
L 388.313722 396.2 
L 394.968338 396.2 
L 401.622953 396.2 
L 408.277568 396.2 
L 414.932183 396.2 
L 421.586799 396.2 
L 428.241414 396.2 
L 434.896029 396.2 
L 441.550644 396.2 
L 448.20526 396.2 
L 454.859875 396.2 
L 461.51449 396.2 
L 468.169105 396.2 
L 474.823721 396.2 
L 481.478336 396.2 
L 488.132951 396.2 
L 494.787566 396.2 
L 501.442182 396.2 
L 508.096797 396.2 
L 514.751412 396.2 
L 521.406027 396.2 
L 528.060643 396.2 
L 534.715258 396.2 
L 541.369873 396.2 
L 548.024488 396.2 
L 554.679104 396.2 
L 561.333719 396.2 
L 567.988334 396.2 
L 574.642949 396.2 
L 581.297565 396.2 
L 587.95218 396.2 
L 594.606795 396.2 
L 601.26141 396.2 
L 607.916026 396.2 
L 614.570641 396.2 
L 621.225256 396.2 
L 627.879871 396.2 
L 634.534487 396.2 
L 641.189102 396.2 
L 647.843717 396.2 
L 654.498332 396.2 
L 661.152948 396.2 
L 667.807563 396.2 
L 674.462178 396.2 
L 681.116793 396.2 
L 687.771409 396.2 
L 694.426024 396.2 
L 701.080639 396.2 
L 707.735254 396.2 
L 714.38987 396.2 
L 721.044485 396.2 
L 727.6991 396.2 
L 734.353715 396.2 
L 741.008331 396.2 
L 747.662946 396.2 
L 754.317561 396.2 
L 760.972176 396.2 
L 767.626792 396.2 
L 774.281407 396.2 
L 780.936022 396.2 
L 787.590637 396.2 
L 794.245253 396.2 
L 800.899868 396.2 
L 807.554483 396.2 
L 814.209098 396.2 
L 820.863714 396.2 
L 827.518329 396.2 
L 834.172944 396.2 
L 840.827559 396.2 
L 847.482175 396.2 
L 854.13679 396.2 
L 860.791405 396.2 
L 867.44602 396.2 
L 874.100636 396.2 
L 880.755251 396.2 
L 887.409866 396.2 
L 894.064481 396.2 
L 900.719097 396.2 
L 907.373712 396.2 
L 914.028327 396.2 
L 920.682942 396.2 
L 927.337558 396.2 
L 933.992173 396.2 
L 940.646788 396.2 
L 947.301403 396.2 
L 953.956019 396.2 
L 960.610634 396.2 
L 967.265249 396.2 
L 973.919864 396.2 
L 980.57448 396.2 
L 987.229095 396.2 
L 993.88371 396.2 
L 1000.538325 396.2 
L 1007.192941 396.2 
L 1013.847556 396.2 
L 1020.502171 396.2 
L 1027.156786 396.2 
L 1033.811401 396.2 
L 1040.466017 396.2 
L 1047.120632 396.2 
L 1053.775247 396.2 
L 1060.429862 396.2 
L 1067.084478 396.2 
L 1073.739093 396.2 
L 1080.393708 396.2 
L 1087.048323 396.2 
L 1093.702939 396.2 
L 1100.357554 396.2 
L 1107.012169 396.2 
L 1113.666784 396.2 
L 1120.3214 396.2 
L 1126.976015 396.2 
L 1133.63063 396.2 
L 1140.285245 396.2 
L 1146.939861 396.2 
L 1153.594476 396.2 
L 1160.249091 396.2 
L 1166.903706 396.2 
L 1173.558322 396.2 
L 1180.212937 396.2 
L 1186.867552 396.2 
L 1193.522167 396.2 
L 1200.176783 396.2 
L 1200.176783 396.157113 
L 1200.176783 396.157113 
L 1193.522167 396.139221 
L 1186.867552 396.115067 
L 1180.212937 396.08297 
L 1173.558322 396.040994 
L 1166.903706 395.986978 
L 1160.249091 395.918593 
L 1153.594476 395.833443 
L 1146.939861 395.729187 
L 1140.285245 395.603712 
L 1133.63063 395.455324 
L 1126.976015 395.282967 
L 1120.3214 395.086439 
L 1113.666784 394.866601 
L 1107.012169 394.625538 
L 1100.357554 394.366668 
L 1093.702939 394.094752 
L 1087.048323 393.815813 
L 1080.393708 393.536933 
L 1073.739093 393.265937 
L 1067.084478 393.010969 
L 1060.429862 392.779992 
L 1053.775247 392.580237 
L 1047.120632 392.417645 
L 1040.466017 392.296356 
L 1033.811401 392.218278 
L 1027.156786 392.182792 
L 1020.502171 392.186614 
L 1013.847556 392.223836 
L 1007.192941 392.286153 
L 1000.538325 392.363253 
L 993.88371 392.443351 
L 987.229095 392.513825 
L 980.57448 392.5619 
L 973.919864 392.575332 
L 967.265249 392.54305 
L 960.610634 392.455682 
L 953.956019 392.305962 
L 947.301403 392.088958 
L 940.646788 391.802127 
L 933.992173 391.445186 
L 927.337558 391.019812 
L 920.682942 390.529192 
L 914.028327 389.977464 
L 907.373712 389.36908 
L 900.719097 388.708157 
L 894.064481 387.99785 
L 887.409866 387.239809 
L 880.755251 386.433761 
L 874.100636 385.577262 
L 867.44602 384.665629 
L 860.791405 383.69208 
L 854.13679 382.648061 
L 847.482175 381.523747 
L 840.827559 380.30866 
L 834.172944 378.992376 
L 827.518329 377.565233 
L 820.863714 376.018998 
L 814.209098 374.347415 
L 807.554483 372.546608 
L 800.899868 370.615283 
L 794.245253 368.554752 
L 787.590637 366.368753 
L 780.936022 364.063143 
L 774.281407 361.645473 
L 767.626792 359.124529 
L 760.972176 356.509891 
L 754.317561 353.811539 
L 747.662946 351.039546 
L 741.008331 348.203853 
L 734.353715 345.314096 
L 727.6991 342.379431 
L 721.044485 339.408305 
L 714.38987 336.408088 
L 707.735254 333.384518 
L 701.080639 330.340932 
L 694.426024 327.277264 
L 687.771409 324.18889 
L 681.116793 321.065372 
L 674.462178 317.889258 
L 667.807563 314.635069 
L 661.152948 311.268656 
L 654.498332 307.747068 
L 647.843717 304.019074 
L 641.189102 300.026432 
L 634.534487 295.705934 
L 627.879871 290.992212 
L 621.225256 285.82121 
L 614.570641 280.134157 
L 607.916026 273.881835 
L 601.26141 267.028862 
L 594.606795 259.557673 
L 587.95218 251.471894 
L 581.297565 242.798754 
L 574.642949 233.590267 
L 567.988334 223.922931 
L 561.333719 213.895816 
L 554.679104 203.626998 
L 548.024488 193.24847 
L 541.369873 182.89975 
L 534.715258 172.720607 
L 528.060643 162.843388 
L 521.406027 153.38552 
L 514.751412 144.442805 
L 508.096797 136.084068 
L 501.442182 128.347637 
L 494.787566 121.239993 
L 488.132951 114.736749 
L 481.478336 108.785918 
L 474.823721 103.313208 
L 468.169105 98.228955 
L 461.51449 93.436095 
L 454.859875 88.838565 
L 448.20526 84.349432 
L 441.550644 79.898108 
L 434.896029 75.436095 
L 428.241414 70.940814 
L 421.586799 66.417237 
L 414.932183 61.897226 
L 408.277568 57.436634 
L 401.622953 53.110424 
L 394.968338 49.006196 
L 388.313722 45.216625 
L 381.659107 41.831418 
L 375.004492 38.929414 
L 368.349877 36.57147 
L 361.695261 34.794695 
L 355.040646 33.608512 
L 348.386031 32.992881 
L 341.731416 32.898842 
L 335.0768 33.251342 
L 328.422185 33.954129 
L 321.76757 34.896297 
L 315.112955 35.959944 
L 308.458339 37.028271 
L 301.803724 37.993448 
L 295.149109 38.763563 
L 288.494494 39.268089 
L 281.839879 39.461411 
L 275.185263 39.324197 
L 268.530648 38.862563 
L 261.876033 38.105226 
L 255.221418 37.099028 
L 248.566802 35.903364 
L 241.912187 34.584154 
L 235.257572 33.207998 
L 228.602957 31.837154 
L 221.948341 30.525822 
L 215.293726 29.318092 
L 208.639111 28.247716 
L 201.984496 27.339656 
L 195.32988 26.613178 
L 188.675265 26.086105 
L 182.02065 25.779727 
L 175.366035 25.72381 
L 168.711419 25.961131 
L 162.056804 26.551022 
L 155.402189 27.571479 
L 148.747574 29.119523 
L 142.092958 31.309626 
L 135.438343 34.270161 
L 128.783728 38.138008 
L 122.129113 43.051554 
L 115.474497 49.142497 
L 108.819882 56.526942 
L 102.165267 65.296399 
L 95.510652 75.509318 
L 88.856036 87.183824 
L 82.201421 100.292267 
L 75.546806 114.758126 
L 68.892191 130.455631 
L 62.237575 147.212313 
L 55.58296 164.814441 
L 48.928345 183.015082 
L 42.27373 201.544294 
L 35.619114 220.120775 
L 28.964499 238.464159 
L 22.309884 256.307106 
L 15.655269 273.406336 
L 9.000653 289.551892 
L 2.346038 304.574074 
L -4.308577 318.347696 
L -10.963192 330.79357 
L -17.617808 341.877358 
L -24.272423 351.606107 
L -30.927038 360.022957 
L -37.581653 367.2006 
L -44.236269 373.234083 
L -50.890884 378.233518 
L -57.545499 382.317203 
L -64.200114 385.605512 
L -70.85473 388.215818 
L -77.509345 390.258584 
L -84.16396 391.834604 
L -90.818575 393.033356 
L -97.473191 393.932291 
L -104.127806 394.5969 
L -110.782421 395.08135 
L -117.437036 395.429514 
L -124.091652 395.676216 
z
" clip-path="url(#pf9296a9a4d)" style="fill: #6495ed; fill-opacity: 0.5"/>
   </g>
   <g id="FillBetweenPolyCollection_2">
    <path d="M -124.557215 395.713638 
L -124.557215 396.2 
L -118.582727 396.2 
L -112.608239 396.2 
L -106.633751 396.2 
L -100.659264 396.2 
L -94.684776 396.2 
L -88.710288 396.2 
L -82.7358 396.2 
L -76.761313 396.2 
L -70.786825 396.2 
L -64.812337 396.2 
L -58.837849 396.2 
L -52.863362 396.2 
L -46.888874 396.2 
L -40.914386 396.2 
L -34.939898 396.2 
L -28.96541 396.2 
L -22.990923 396.2 
L -17.016435 396.2 
L -11.041947 396.2 
L -5.067459 396.2 
L 0.907028 396.2 
L 6.881516 396.2 
L 12.856004 396.2 
L 18.830492 396.2 
L 24.804979 396.2 
L 30.779467 396.2 
L 36.753955 396.2 
L 42.728443 396.2 
L 48.70293 396.2 
L 54.677418 396.2 
L 60.651906 396.2 
L 66.626394 396.2 
L 72.600881 396.2 
L 78.575369 396.2 
L 84.549857 396.2 
L 90.524345 396.2 
L 96.498832 396.2 
L 102.47332 396.2 
L 108.447808 396.2 
L 114.422296 396.2 
L 120.396783 396.2 
L 126.371271 396.2 
L 132.345759 396.2 
L 138.320247 396.2 
L 144.294735 396.2 
L 150.269222 396.2 
L 156.24371 396.2 
L 162.218198 396.2 
L 168.192686 396.2 
L 174.167173 396.2 
L 180.141661 396.2 
L 186.116149 396.2 
L 192.090637 396.2 
L 198.065124 396.2 
L 204.039612 396.2 
L 210.0141 396.2 
L 215.988588 396.2 
L 221.963075 396.2 
L 227.937563 396.2 
L 233.912051 396.2 
L 239.886539 396.2 
L 245.861026 396.2 
L 251.835514 396.2 
L 257.810002 396.2 
L 263.78449 396.2 
L 269.758977 396.2 
L 275.733465 396.2 
L 281.707953 396.2 
L 287.682441 396.2 
L 293.656929 396.2 
L 299.631416 396.2 
L 305.605904 396.2 
L 311.580392 396.2 
L 317.55488 396.2 
L 323.529367 396.2 
L 329.503855 396.2 
L 335.478343 396.2 
L 341.452831 396.2 
L 347.427318 396.2 
L 353.401806 396.2 
L 359.376294 396.2 
L 365.350782 396.2 
L 371.325269 396.2 
L 377.299757 396.2 
L 383.274245 396.2 
L 389.248733 396.2 
L 395.22322 396.2 
L 401.197708 396.2 
L 407.172196 396.2 
L 413.146684 396.2 
L 419.121171 396.2 
L 425.095659 396.2 
L 431.070147 396.2 
L 437.044635 396.2 
L 443.019123 396.2 
L 448.99361 396.2 
L 454.968098 396.2 
L 460.942586 396.2 
L 466.917074 396.2 
L 472.891561 396.2 
L 478.866049 396.2 
L 484.840537 396.2 
L 490.815025 396.2 
L 496.789512 396.2 
L 502.764 396.2 
L 508.738488 396.2 
L 514.712976 396.2 
L 520.687463 396.2 
L 526.661951 396.2 
L 532.636439 396.2 
L 538.610927 396.2 
L 544.585414 396.2 
L 550.559902 396.2 
L 556.53439 396.2 
L 562.508878 396.2 
L 568.483365 396.2 
L 574.457853 396.2 
L 580.432341 396.2 
L 586.406829 396.2 
L 592.381316 396.2 
L 598.355804 396.2 
L 604.330292 396.2 
L 610.30478 396.2 
L 616.279268 396.2 
L 622.253755 396.2 
L 628.228243 396.2 
L 634.202731 396.2 
L 640.177219 396.2 
L 646.151706 396.2 
L 652.126194 396.2 
L 658.100682 396.2 
L 664.07517 396.2 
L 670.049657 396.2 
L 676.024145 396.2 
L 681.998633 396.2 
L 687.973121 396.2 
L 693.947608 396.2 
L 699.922096 396.2 
L 705.896584 396.2 
L 711.871072 396.2 
L 717.845559 396.2 
L 723.820047 396.2 
L 729.794535 396.2 
L 735.769023 396.2 
L 741.74351 396.2 
L 747.717998 396.2 
L 753.692486 396.2 
L 759.666974 396.2 
L 765.641462 396.2 
L 771.615949 396.2 
L 777.590437 396.2 
L 783.564925 396.2 
L 789.539413 396.2 
L 795.5139 396.2 
L 801.488388 396.2 
L 807.462876 396.2 
L 813.437364 396.2 
L 819.411851 396.2 
L 825.386339 396.2 
L 831.360827 396.2 
L 837.335315 396.2 
L 843.309802 396.2 
L 849.28429 396.2 
L 855.258778 396.2 
L 861.233266 396.2 
L 867.207753 396.2 
L 873.182241 396.2 
L 879.156729 396.2 
L 885.131217 396.2 
L 891.105704 396.2 
L 897.080192 396.2 
L 903.05468 396.2 
L 909.029168 396.2 
L 915.003655 396.2 
L 920.978143 396.2 
L 926.952631 396.2 
L 932.927119 396.2 
L 938.901607 396.2 
L 944.876094 396.2 
L 950.850582 396.2 
L 956.82507 396.2 
L 962.799558 396.2 
L 968.774045 396.2 
L 974.748533 396.2 
L 980.723021 396.2 
L 986.697509 396.2 
L 992.671996 396.2 
L 998.646484 396.2 
L 1004.620972 396.2 
L 1010.59546 396.2 
L 1016.569947 396.2 
L 1022.544435 396.2 
L 1028.518923 396.2 
L 1034.493411 396.2 
L 1040.467898 396.2 
L 1046.442386 396.2 
L 1052.416874 396.2 
L 1058.391362 396.2 
L 1064.365849 396.2 
L 1064.365849 396.148353 
L 1064.365849 396.148353 
L 1058.391362 396.127948 
L 1052.416874 396.100629 
L 1046.442386 396.06451 
L 1040.467898 396.017356 
L 1034.493411 395.956569 
L 1028.518923 395.879192 
L 1022.544435 395.78194 
L 1016.569947 395.661252 
L 1010.59546 395.513376 
L 1004.620972 395.334486 
L 998.646484 395.120826 
L 992.671996 394.868882 
L 986.697509 394.575574 
L 980.723021 394.23846 
L 974.748533 393.855924 
L 968.774045 393.427359 
L 962.799558 392.953304 
L 956.82507 392.435536 
L 950.850582 391.877098 
L 944.876094 391.282252 
L 938.901607 390.656363 
L 932.927119 390.005711 
L 926.952631 389.337234 
L 920.978143 388.658244 
L 915.003655 387.976101 
L 909.029168 387.297902 
L 903.05468 386.630193 
L 897.080192 385.978733 
L 891.105704 385.348318 
L 885.131217 384.742693 
L 879.156729 384.164544 
L 873.182241 383.615558 
L 867.207753 383.096561 
L 861.233266 382.607682 
L 855.258778 382.148551 
L 849.28429 381.718477 
L 843.309802 381.316604 
L 837.335315 380.942011 
L 831.360827 380.593739 
L 825.386339 380.270748 
L 819.411851 379.971785 
L 813.437364 379.695182 
L 807.462876 379.438578 
L 801.488388 379.198594 
L 795.5139 378.970469 
L 789.539413 378.747692 
L 783.564925 378.521635 
L 777.590437 378.281236 
L 771.615949 378.012745 
L 765.641462 377.699574 
L 759.666974 377.322265 
L 753.692486 376.858619 
L 747.717998 376.28399 
L 741.74351 375.571771 
L 735.769023 374.694056 
L 729.794535 373.622487 
L 723.820047 372.329241 
L 717.845559 370.788122 
L 711.871072 368.9757 
L 705.896584 366.872424 
L 699.922096 364.46363 
L 693.947608 361.74037 
L 687.973121 358.699967 
L 681.998633 355.346261 
L 676.024145 351.689469 
L 670.049657 347.745672 
L 664.07517 343.535909 
L 658.100682 339.084958 
L 652.126194 334.419853 
L 646.151706 329.568264 
L 640.177219 324.556848 
L 634.202731 319.409733 
L 628.228243 314.147242 
L 622.253755 308.785005 
L 616.279268 303.333533 
L 610.30478 297.798313 
L 604.330292 292.180443 
L 598.355804 286.477738 
L 592.381316 280.686237 
L 586.406829 274.801954 
L 580.432341 268.822704 
L 574.457853 262.74982 
L 568.483365 256.589559 
L 562.508878 250.354037 
L 556.53439 244.061544 
L 550.559902 237.736186 
L 544.585414 231.406818 
L 538.610927 225.105348 
L 532.636439 218.864522 
L 526.661951 212.7154 
L 520.687463 206.684741 
L 514.712976 200.79255 
L 508.738488 195.050045 
L 502.764 189.458256 
L 496.789512 184.007426 
L 490.815025 178.677305 
L 484.840537 173.438357 
L 478.866049 168.2538 
L 472.891561 163.082326 
L 466.917074 157.881297 
L 460.942586 152.610145 
L 454.968098 147.233714 
L 448.99361 141.725268 
L 443.019123 136.068938 
L 437.044635 130.261439 
L 431.070147 124.312927 
L 425.095659 118.246989 
L 419.121171 112.099776 
L 413.146684 105.918409 
L 407.172196 99.758785 
L 401.197708 93.682989 
L 395.22322 87.756505 
L 389.248733 82.045408 
L 383.274245 76.613739 
L 377.299757 71.521164 
L 371.325269 66.821044 
L 365.350782 62.558943 
L 359.376294 58.771587 
L 353.401806 55.486223 
L 347.427318 52.720334 
L 341.452831 50.481593 
L 335.478343 48.767997 
L 329.503855 47.56808 
L 323.529367 46.861163 
L 317.55488 46.617621 
L 311.580392 46.799165 
L 305.605904 47.359213 
L 299.631416 48.243414 
L 293.656929 49.390443 
L 287.682441 50.733155 
L 281.707953 52.2002 
L 275.733465 53.718145 
L 269.758977 55.214118 
L 263.78449 56.618894 
L 257.810002 57.870318 
L 251.835514 58.91686 
L 245.861026 59.721054 
L 239.886539 60.262551 
L 233.912051 60.540491 
L 227.937563 60.574936 
L 221.963075 60.407149 
L 215.988588 60.098593 
L 210.0141 59.728618 
L 204.039612 59.390927 
L 198.065124 59.189011 
L 192.090637 59.230872 
L 186.116149 59.623388 
L 180.141661 60.46678 
L 174.167173 61.84958 
L 168.192686 63.844527 
L 162.218198 66.505699 
L 156.24371 69.86709 
L 150.269222 73.942731 
L 144.294735 78.728272 
L 138.320247 84.203825 
L 132.345759 90.337747 
L 126.371271 97.090947 
L 120.396783 104.42124 
L 114.422296 112.287308 
L 108.447808 120.651838 
L 102.47332 129.483523 
L 96.498832 138.757745 
L 90.524345 148.455884 
L 84.549857 158.563378 
L 78.575369 169.066783 
L 72.600881 179.950194 
L 66.626394 191.191466 
L 60.651906 202.758693 
L 54.677418 214.607375 
L 48.70293 226.678616 
L 42.728443 238.898612 
L 36.753955 251.179516 
L 30.779467 263.421651 
L 24.804979 275.516894 
L 18.830492 287.352937 
L 12.856004 298.818071 
L 6.881516 309.806077 
L 0.907028 320.220844 
L -5.067459 329.980345 
L -11.041947 339.019713 
L -17.016435 347.293223 
L -22.990923 354.775121 
L -28.96541 361.459325 
L -34.939898 367.358106 
L -40.914386 372.499955 
L -46.888874 376.92685 
L -52.863362 380.691176 
L -58.837849 383.852537 
L -64.812337 386.474669 
L -70.786825 388.622632 
L -76.761313 390.360399 
L -82.7358 391.748915 
L -88.710288 392.844658 
L -94.684776 393.698684 
L -100.659264 394.356101 
L -106.633751 394.855936 
L -112.608239 395.231283 
L -118.582727 395.509682 
L -124.557215 395.713638 
z
" clip-path="url(#pf9296a9a4d)" style="fill: #ff69b4; fill-opacity: 0.5"/>
   </g>
   <g id="matplotlib.axis_1">
    <g id="xtick_1">
     <g id="line2d_1">
      <defs>
       <path id="m12c02a5b7b" d="M 0 0 
L 0 3.5 
" style="stroke: #000000; stroke-width: 0.8"/>
      </defs>
      <g>
       <use xlink:href="#m12c02a5b7b" x="34.56" y="396.2" style="stroke: #000000; stroke-width: 0.8"/>
      </g>
     </g>
     <g id="text_1">
      <!-- 0 -->
      <g transform="translate(29.47 415.3575) scale(0.16 -0.16)">
       <defs>
        <path id="DejaVuSans-30" d="M 2034 4250 
Q 1547 4250 1301 3770 
Q 1056 3291 1056 2328 
Q 1056 1369 1301 889 
Q 1547 409 2034 409 
Q 2525 409 2770 889 
Q 3016 1369 3016 2328 
Q 3016 3291 2770 3770 
Q 2525 4250 2034 4250 
z
M 2034 4750 
Q 2819 4750 3233 4129 
Q 3647 3509 3647 2328 
Q 3647 1150 3233 529 
Q 2819 -91 2034 -91 
Q 1250 -91 836 529 
Q 422 1150 422 2328 
Q 422 3509 836 4129 
Q 1250 4750 2034 4750 
z
" transform="scale(0.015625)"/>
       </defs>
       <use xlink:href="#DejaVuSans-30"/>
      </g>
     </g>
    </g>
    <g id="xtick_2">
     <g id="line2d_2">
      <g>
       <use xlink:href="#m12c02a5b7b" x="171.154375" y="396.2" style="stroke: #000000; stroke-width: 0.8"/>
      </g>
     </g>
     <g id="text_2">
      <!-- 5 -->
      <g transform="translate(166.064375 415.3575) scale(0.16 -0.16)">
       <defs>
        <path id="DejaVuSans-35" d="M 691 4666 
L 3169 4666 
L 3169 4134 
L 1269 4134 
L 1269 2991 
Q 1406 3038 1543 3061 
Q 1681 3084 1819 3084 
Q 2600 3084 3056 2656 
Q 3513 2228 3513 1497 
Q 3513 744 3044 326 
Q 2575 -91 1722 -91 
Q 1428 -91 1123 -41 
Q 819 9 494 109 
L 494 744 
Q 775 591 1075 516 
Q 1375 441 1709 441 
Q 2250 441 2565 725 
Q 2881 1009 2881 1497 
Q 2881 1984 2565 2268 
Q 2250 2553 1709 2553 
Q 1456 2553 1204 2497 
Q 953 2441 691 2322 
L 691 4666 
z
" transform="scale(0.015625)"/>
       </defs>
       <use xlink:href="#DejaVuSans-35"/>
      </g>
     </g>
    </g>
    <g id="xtick_3">
     <g id="line2d_3">
      <g>
       <use xlink:href="#m12c02a5b7b" x="307.74875" y="396.2" style="stroke: #000000; stroke-width: 0.8"/>
      </g>
     </g>
     <g id="text_3">
      <!-- 10 -->
      <g transform="translate(297.56875 415.3575) scale(0.16 -0.16)">
       <defs>
        <path id="DejaVuSans-31" d="M 794 531 
L 1825 531 
L 1825 4091 
L 703 3866 
L 703 4441 
L 1819 4666 
L 2450 4666 
L 2450 531 
L 3481 531 
L 3481 0 
L 794 0 
L 794 531 
z
" transform="scale(0.015625)"/>
       </defs>
       <use xlink:href="#DejaVuSans-31"/>
       <use xlink:href="#DejaVuSans-30" transform="translate(63.623047 0)"/>
      </g>
     </g>
    </g>
    <g id="xtick_4">
     <g id="line2d_4">
      <g>
       <use xlink:href="#m12c02a5b7b" x="444.343125" y="396.2" style="stroke: #000000; stroke-width: 0.8"/>
      </g>
     </g>
     <g id="text_4">
      <!-- 15 -->
      <g transform="translate(434.163125 415.3575) scale(0.16 -0.16)">
       <use xlink:href="#DejaVuSans-31"/>
       <use xlink:href="#DejaVuSans-35" transform="translate(63.623047 0)"/>
      </g>
     </g>
    </g>
    <g id="xtick_5">
     <g id="line2d_5">
      <g>
       <use xlink:href="#m12c02a5b7b" x="580.9375" y="396.2" style="stroke: #000000; stroke-width: 0.8"/>
      </g>
     </g>
     <g id="text_5">
      <!-- 20 -->
      <g transform="translate(570.7575 415.3575) scale(0.16 -0.16)">
       <defs>
        <path id="DejaVuSans-32" d="M 1228 531 
L 3431 531 
L 3431 0 
L 469 0 
L 469 531 
Q 828 903 1448 1529 
Q 2069 2156 2228 2338 
Q 2531 2678 2651 2914 
Q 2772 3150 2772 3378 
Q 2772 3750 2511 3984 
Q 2250 4219 1831 4219 
Q 1534 4219 1204 4116 
Q 875 4013 500 3803 
L 500 4441 
Q 881 4594 1212 4672 
Q 1544 4750 1819 4750 
Q 2544 4750 2975 4387 
Q 3406 4025 3406 3419 
Q 3406 3131 3298 2873 
Q 3191 2616 2906 2266 
Q 2828 2175 2409 1742 
Q 1991 1309 1228 531 
z
" transform="scale(0.015625)"/>
       </defs>
       <use xlink:href="#DejaVuSans-32"/>
       <use xlink:href="#DejaVuSans-30" transform="translate(63.623047 0)"/>
      </g>
     </g>
    </g>
    <g id="xtick_6">
     <g id="line2d_6">
      <g>
       <use xlink:href="#m12c02a5b7b" x="717.531875" y="396.2" style="stroke: #000000; stroke-width: 0.8"/>
      </g>
     </g>
     <g id="text_6">
      <!-- 25 -->
      <g transform="translate(707.351875 415.3575) scale(0.16 -0.16)">
       <use xlink:href="#DejaVuSans-32"/>
       <use xlink:href="#DejaVuSans-35" transform="translate(63.623047 0)"/>
      </g>
     </g>
    </g>
    <g id="xtick_7">
     <g id="line2d_7">
      <g>
       <use xlink:href="#m12c02a5b7b" x="854.12625" y="396.2" style="stroke: #000000; stroke-width: 0.8"/>
      </g>
     </g>
     <g id="text_7">
      <!-- 30 -->
      <g transform="translate(843.94625 415.3575) scale(0.16 -0.16)">
       <defs>
        <path id="DejaVuSans-33" d="M 2597 2516 
Q 3050 2419 3304 2112 
Q 3559 1806 3559 1356 
Q 3559 666 3084 287 
Q 2609 -91 1734 -91 
Q 1441 -91 1130 -33 
Q 819 25 488 141 
L 488 750 
Q 750 597 1062 519 
Q 1375 441 1716 441 
Q 2309 441 2620 675 
Q 2931 909 2931 1356 
Q 2931 1769 2642 2001 
Q 2353 2234 1838 2234 
L 1294 2234 
L 1294 2753 
L 1863 2753 
Q 2328 2753 2575 2939 
Q 2822 3125 2822 3475 
Q 2822 3834 2567 4026 
Q 2313 4219 1838 4219 
Q 1578 4219 1281 4162 
Q 984 4106 628 3988 
L 628 4550 
Q 988 4650 1302 4700 
Q 1616 4750 1894 4750 
Q 2613 4750 3031 4423 
Q 3450 4097 3450 3541 
Q 3450 3153 3228 2886 
Q 3006 2619 2597 2516 
z
" transform="scale(0.015625)"/>
       </defs>
       <use xlink:href="#DejaVuSans-33"/>
       <use xlink:href="#DejaVuSans-30" transform="translate(63.623047 0)"/>
      </g>
     </g>
    </g>
    <g id="xtick_8">
     <g id="line2d_8">
      <g>
       <use xlink:href="#m12c02a5b7b" x="990.720625" y="396.2" style="stroke: #000000; stroke-width: 0.8"/>
      </g>
     </g>
     <g id="text_8">
      <!-- 35 -->
      <g transform="translate(980.540625 415.3575) scale(0.16 -0.16)">
       <use xlink:href="#DejaVuSans-33"/>
       <use xlink:href="#DejaVuSans-35" transform="translate(63.623047 0)"/>
      </g>
     </g>
    </g>
    <g id="xtick_9">
     <g id="line2d_9">
      <g>
       <use xlink:href="#m12c02a5b7b" x="1127.315" y="396.2" style="stroke: #000000; stroke-width: 0.8"/>
      </g>
     </g>
     <g id="text_9">
      <!-- 40 -->
      <g transform="translate(1117.135 415.3575) scale(0.16 -0.16)">
       <defs>
        <path id="DejaVuSans-34" d="M 2419 4116 
L 825 1625 
L 2419 1625 
L 2419 4116 
z
M 2253 4666 
L 3047 4666 
L 3047 1625 
L 3713 1625 
L 3713 1100 
L 3047 1100 
L 3047 0 
L 2419 0 
L 2419 1100 
L 313 1100 
L 313 1709 
L 2253 4666 
z
" transform="scale(0.015625)"/>
       </defs>
       <use xlink:href="#DejaVuSans-34"/>
       <use xlink:href="#DejaVuSans-30" transform="translate(63.623047 0)"/>
      </g>
     </g>
    </g>
   </g>
   <g id="matplotlib.axis_2">
    <g id="ytick_1">
     <g id="line2d_10">
      <path d="M 34.56 396.2 
L 1127.315 396.2 
" clip-path="url(#pf9296a9a4d)" style="fill: none; stroke: #b0b0b0; stroke-opacity: 0.8; stroke-width: 0.8; stroke-linecap: square"/>
     </g>
     <g id="line2d_11">
      <defs>
       <path id="md3bd40bb1d" d="M 0 0 
L -3.5 0 
" style="stroke: #000000; stroke-width: 0.8"/>
      </defs>
      <g>
       <use xlink:href="#md3bd40bb1d" x="34.56" y="396.2" style="stroke: #000000; stroke-width: 0.8"/>
      </g>
     </g>
     <g id="text_10">
      <!-- 0 -->
      <g transform="translate(17.38 402.27875) scale(0.16 -0.16)">
       <use xlink:href="#DejaVuSans-30"/>
      </g>
     </g>
    </g>
    <g id="ytick_2">
     <g id="line2d_12">
      <path d="M 34.56 328.507024 
L 1127.315 328.507024 
" clip-path="url(#pf9296a9a4d)" style="fill: none; stroke: #b0b0b0; stroke-opacity: 0.8; stroke-width: 0.8; stroke-linecap: square"/>
     </g>
     <g id="line2d_13">
      <g>
       <use xlink:href="#md3bd40bb1d" x="34.56" y="328.507024" style="stroke: #000000; stroke-width: 0.8"/>
      </g>
     </g>
     <g id="text_11">
      <!-- 5 -->
      <g transform="translate(17.38 334.585774) scale(0.16 -0.16)">
       <use xlink:href="#DejaVuSans-35"/>
      </g>
     </g>
    </g>
    <g id="ytick_3">
     <g id="line2d_14">
      <path d="M 34.56 260.814047 
L 1127.315 260.814047 
" clip-path="url(#pf9296a9a4d)" style="fill: none; stroke: #b0b0b0; stroke-opacity: 0.8; stroke-width: 0.8; stroke-linecap: square"/>
     </g>
     <g id="line2d_15">
      <g>
       <use xlink:href="#md3bd40bb1d" x="34.56" y="260.814047" style="stroke: #000000; stroke-width: 0.8"/>
      </g>
     </g>
     <g id="text_12">
      <!-- 10 -->
      <g transform="translate(7.2 266.892797) scale(0.16 -0.16)">
       <use xlink:href="#DejaVuSans-31"/>
       <use xlink:href="#DejaVuSans-30" transform="translate(63.623047 0)"/>
      </g>
     </g>
    </g>
    <g id="ytick_4">
     <g id="line2d_16">
      <path d="M 34.56 193.121071 
L 1127.315 193.121071 
" clip-path="url(#pf9296a9a4d)" style="fill: none; stroke: #b0b0b0; stroke-opacity: 0.8; stroke-width: 0.8; stroke-linecap: square"/>
     </g>
     <g id="line2d_17">
      <g>
       <use xlink:href="#md3bd40bb1d" x="34.56" y="193.121071" style="stroke: #000000; stroke-width: 0.8"/>
      </g>
     </g>
     <g id="text_13">
      <!-- 15 -->
      <g transform="translate(7.2 199.199821) scale(0.16 -0.16)">
       <use xlink:href="#DejaVuSans-31"/>
       <use xlink:href="#DejaVuSans-35" transform="translate(63.623047 0)"/>
      </g>
     </g>
    </g>
    <g id="ytick_5">
     <g id="line2d_18">
      <path d="M 34.56 125.428095 
L 1127.315 125.428095 
" clip-path="url(#pf9296a9a4d)" style="fill: none; stroke: #b0b0b0; stroke-opacity: 0.8; stroke-width: 0.8; stroke-linecap: square"/>
     </g>
     <g id="line2d_19">
      <g>
       <use xlink:href="#md3bd40bb1d" x="34.56" y="125.428095" style="stroke: #000000; stroke-width: 0.8"/>
      </g>
     </g>
     <g id="text_14">
      <!-- 20 -->
      <g transform="translate(7.2 131.506845) scale(0.16 -0.16)">
       <use xlink:href="#DejaVuSans-32"/>
       <use xlink:href="#DejaVuSans-30" transform="translate(63.623047 0)"/>
      </g>
     </g>
    </g>
    <g id="ytick_6">
     <g id="line2d_20">
      <path d="M 34.56 57.735118 
L 1127.315 57.735118 
" clip-path="url(#pf9296a9a4d)" style="fill: none; stroke: #b0b0b0; stroke-opacity: 0.8; stroke-width: 0.8; stroke-linecap: square"/>
     </g>
     <g id="line2d_21">
      <g>
       <use xlink:href="#md3bd40bb1d" x="34.56" y="57.735118" style="stroke: #000000; stroke-width: 0.8"/>
      </g>
     </g>
     <g id="text_15">
      <!-- 25 -->
      <g transform="translate(7.2 63.813868) scale(0.16 -0.16)">
       <use xlink:href="#DejaVuSans-32"/>
       <use xlink:href="#DejaVuSans-35" transform="translate(63.623047 0)"/>
      </g>
     </g>
    </g>
   </g>
   <g id="legend_1">
    <g id="patch_3">
     <path d="M 1116.315 20.2 
L 1120.315 20.2 
Q 1122.315 20.2 1122.315 18.2 
L 1122.315 14.2 
Q 1122.315 12.2 1120.315 12.2 
L 1116.315 12.2 
Q 1114.315 12.2 1114.315 14.2 
L 1114.315 18.2 
Q 1114.315 20.2 1116.315 20.2 
z
" style="fill: #ffffff; opacity: 0.8; stroke: #cccccc; stroke-linejoin: miter"/>
    </g>
   </g>
  </g>
 </g>
 <defs>
  <clipPath id="pf9296a9a4d">
   <rect x="34.56" y="7.2" width="1092.755" height="389"/>
  </clipPath>
 </defs>
</svg>
