<?xml version="1.0" encoding="utf-8" standalone="no"?>
<!DOCTYPE svg PUBLIC "-//W3C//DTD SVG 1.1//EN"
  "http://www.w3.org/Graphics/SVG/1.1/DTD/svg11.dtd">
<svg xmlns:xlink="http://www.w3.org/1999/xlink" width="712.835pt" height="407.61875pt" viewBox="0 0 712.835 407.61875" xmlns="http://www.w3.org/2000/svg" version="1.1">
 <metadata>
  <rdf:RDF xmlns:dc="http://purl.org/dc/elements/1.1/" xmlns:cc="http://creativecommons.org/ns#" xmlns:rdf="http://www.w3.org/1999/02/22-rdf-syntax-ns#">
   <cc:Work>
    <dc:type rdf:resource="http://purl.org/dc/dcmitype/StillImage"/>
    <dc:date>2025-04-15T11:37:31.920487</dc:date>
    <dc:format>image/svg+xml</dc:format>
    <dc:creator>
     <cc:Agent>
      <dc:title>Matplotlib v3.10.0, https://matplotlib.org/</dc:title>
     </cc:Agent>
    </dc:creator>
   </cc:Work>
  </rdf:RDF>
 </metadata>
 <defs>
  <style type="text/css">*{stroke-linejoin: round; stroke-linecap: butt}</style>
 </defs>
 <g id="figure_1">
  <g id="patch_1">
   <path d="M 0 407.61875 
L 712.835 407.61875 
L 712.835 0 
L 0 0 
z
" style="fill: #ffffff"/>
  </g>
  <g id="axes_1">
   <g id="patch_2">
    <path d="M 26.925 400.41875 
L 705.635 400.41875 
L 705.635 7.2 
L 26.925 7.2 
z
" style="fill: #ffffff"/>
   </g>
   <g id="matplotlib.axis_1"/>
   <g id="matplotlib.axis_2">
    <g id="ytick_1">
     <g id="line2d_1">
      <path d="M 26.925 384.147607 
L 705.635 384.147607 
" clip-path="url(#pa6c97cfc91)" style="fill: none; stroke: #999999; stroke-width: 0.8; stroke-linecap: round"/>
     </g>
     <g id="text_1">
      <!-- 0 -->
      <g style="fill: #262626" transform="translate(13.5625 387.946826) scale(0.1 -0.1)">
       <defs>
        <path id="DejaVuSans-30" d="M 2034 4250 
Q 1547 4250 1301 3770 
Q 1056 3291 1056 2328 
Q 1056 1369 1301 889 
Q 1547 409 2034 409 
Q 2525 409 2770 889 
Q 3016 1369 3016 2328 
Q 3016 3291 2770 3770 
Q 2525 4250 2034 4250 
z
M 2034 4750 
Q 2819 4750 3233 4129 
Q 3647 3509 3647 2328 
Q 3647 1150 3233 529 
Q 2819 -91 2034 -91 
Q 1250 -91 836 529 
Q 422 1150 422 2328 
Q 422 3509 836 4129 
Q 1250 4750 2034 4750 
z
" transform="scale(0.015625)"/>
       </defs>
       <use xlink:href="#DejaVuSans-30"/>
      </g>
     </g>
    </g>
    <g id="ytick_2">
     <g id="line2d_2">
      <path d="M 26.925 320.050137 
L 705.635 320.050137 
" clip-path="url(#pa6c97cfc91)" style="fill: none; stroke: #999999; stroke-width: 0.8; stroke-linecap: round"/>
     </g>
     <g id="text_2">
      <!-- 10 -->
      <g style="fill: #262626" transform="translate(7.2 323.849356) scale(0.1 -0.1)">
       <defs>
        <path id="DejaVuSans-31" d="M 794 531 
L 1825 531 
L 1825 4091 
L 703 3866 
L 703 4441 
L 1819 4666 
L 2450 4666 
L 2450 531 
L 3481 531 
L 3481 0 
L 794 0 
L 794 531 
z
" transform="scale(0.015625)"/>
       </defs>
       <use xlink:href="#DejaVuSans-31"/>
       <use xlink:href="#DejaVuSans-30" transform="translate(63.623047 0)"/>
      </g>
     </g>
    </g>
    <g id="ytick_3">
     <g id="line2d_3">
      <path d="M 26.925 255.952667 
L 705.635 255.952667 
" clip-path="url(#pa6c97cfc91)" style="fill: none; stroke: #999999; stroke-width: 0.8; stroke-linecap: round"/>
     </g>
     <g id="text_3">
      <!-- 20 -->
      <g style="fill: #262626" transform="translate(7.2 259.751886) scale(0.1 -0.1)">
       <defs>
        <path id="DejaVuSans-32" d="M 1228 531 
L 3431 531 
L 3431 0 
L 469 0 
L 469 531 
Q 828 903 1448 1529 
Q 2069 2156 2228 2338 
Q 2531 2678 2651 2914 
Q 2772 3150 2772 3378 
Q 2772 3750 2511 3984 
Q 2250 4219 1831 4219 
Q 1534 4219 1204 4116 
Q 875 4013 500 3803 
L 500 4441 
Q 881 4594 1212 4672 
Q 1544 4750 1819 4750 
Q 2544 4750 2975 4387 
Q 3406 4025 3406 3419 
Q 3406 3131 3298 2873 
Q 3191 2616 2906 2266 
Q 2828 2175 2409 1742 
Q 1991 1309 1228 531 
z
" transform="scale(0.015625)"/>
       </defs>
       <use xlink:href="#DejaVuSans-32"/>
       <use xlink:href="#DejaVuSans-30" transform="translate(63.623047 0)"/>
      </g>
     </g>
    </g>
    <g id="ytick_4">
     <g id="line2d_4">
      <path d="M 26.925 191.855197 
L 705.635 191.855197 
" clip-path="url(#pa6c97cfc91)" style="fill: none; stroke: #999999; stroke-width: 0.8; stroke-linecap: round"/>
     </g>
     <g id="text_4">
      <!-- 30 -->
      <g style="fill: #262626" transform="translate(7.2 195.654416) scale(0.1 -0.1)">
       <defs>
        <path id="DejaVuSans-33" d="M 2597 2516 
Q 3050 2419 3304 2112 
Q 3559 1806 3559 1356 
Q 3559 666 3084 287 
Q 2609 -91 1734 -91 
Q 1441 -91 1130 -33 
Q 819 25 488 141 
L 488 750 
Q 750 597 1062 519 
Q 1375 441 1716 441 
Q 2309 441 2620 675 
Q 2931 909 2931 1356 
Q 2931 1769 2642 2001 
Q 2353 2234 1838 2234 
L 1294 2234 
L 1294 2753 
L 1863 2753 
Q 2328 2753 2575 2939 
Q 2822 3125 2822 3475 
Q 2822 3834 2567 4026 
Q 2313 4219 1838 4219 
Q 1578 4219 1281 4162 
Q 984 4106 628 3988 
L 628 4550 
Q 988 4650 1302 4700 
Q 1616 4750 1894 4750 
Q 2613 4750 3031 4423 
Q 3450 4097 3450 3541 
Q 3450 3153 3228 2886 
Q 3006 2619 2597 2516 
z
" transform="scale(0.015625)"/>
       </defs>
       <use xlink:href="#DejaVuSans-33"/>
       <use xlink:href="#DejaVuSans-30" transform="translate(63.623047 0)"/>
      </g>
     </g>
    </g>
    <g id="ytick_5">
     <g id="line2d_5">
      <path d="M 26.925 127.757727 
L 705.635 127.757727 
" clip-path="url(#pa6c97cfc91)" style="fill: none; stroke: #999999; stroke-width: 0.8; stroke-linecap: round"/>
     </g>
     <g id="text_5">
      <!-- 40 -->
      <g style="fill: #262626" transform="translate(7.2 131.556945) scale(0.1 -0.1)">
       <defs>
        <path id="DejaVuSans-34" d="M 2419 4116 
L 825 1625 
L 2419 1625 
L 2419 4116 
z
M 2253 4666 
L 3047 4666 
L 3047 1625 
L 3713 1625 
L 3713 1100 
L 3047 1100 
L 3047 0 
L 2419 0 
L 2419 1100 
L 313 1100 
L 313 1709 
L 2253 4666 
z
" transform="scale(0.015625)"/>
       </defs>
       <use xlink:href="#DejaVuSans-34"/>
       <use xlink:href="#DejaVuSans-30" transform="translate(63.623047 0)"/>
      </g>
     </g>
    </g>
    <g id="ytick_6">
     <g id="line2d_6">
      <path d="M 26.925 63.660257 
L 705.635 63.660257 
" clip-path="url(#pa6c97cfc91)" style="fill: none; stroke: #999999; stroke-width: 0.8; stroke-linecap: round"/>
     </g>
     <g id="text_6">
      <!-- 50 -->
      <g style="fill: #262626" transform="translate(7.2 67.459475) scale(0.1 -0.1)">
       <defs>
        <path id="DejaVuSans-35" d="M 691 4666 
L 3169 4666 
L 3169 4134 
L 1269 4134 
L 1269 2991 
Q 1406 3038 1543 3061 
Q 1681 3084 1819 3084 
Q 2600 3084 3056 2656 
Q 3513 2228 3513 1497 
Q 3513 744 3044 326 
Q 2575 -91 1722 -91 
Q 1428 -91 1123 -41 
Q 819 9 494 109 
L 494 744 
Q 775 591 1075 516 
Q 1375 441 1709 441 
Q 2250 441 2565 725 
Q 2881 1009 2881 1497 
Q 2881 1984 2565 2268 
Q 2250 2553 1709 2553 
Q 1456 2553 1204 2497 
Q 953 2441 691 2322 
L 691 4666 
z
" transform="scale(0.015625)"/>
       </defs>
       <use xlink:href="#DejaVuSans-35"/>
       <use xlink:href="#DejaVuSans-30" transform="translate(63.623047 0)"/>
      </g>
     </g>
    </g>
   </g>
   <g id="patch_3">
    <path d="M 49.548667 163.540139 
L 230.538 163.540139 
L 230.538 35.505443 
L 49.548667 35.505443 
L 49.548667 163.540139 
z
" clip-path="url(#pa6c97cfc91)" style="fill: #857aab; stroke: #585858; stroke-width: 2; stroke-linejoin: miter"/>
   </g>
   <g id="line2d_7">
    <path d="M 140.043333 163.540139 
L 140.043333 280.117413 
" clip-path="url(#pa6c97cfc91)" style="fill: none; stroke: #585858; stroke-width: 2"/>
   </g>
   <g id="line2d_8">
    <path d="M 140.043333 35.505443 
L 140.043333 25.07358 
" clip-path="url(#pa6c97cfc91)" style="fill: none; stroke: #585858; stroke-width: 2"/>
   </g>
   <g id="line2d_9">
    <path d="M 94.796 280.117413 
L 185.290667 280.117413 
" clip-path="url(#pa6c97cfc91)" style="fill: none; stroke: #585858; stroke-width: 2; stroke-linecap: round"/>
   </g>
   <g id="line2d_10">
    <path d="M 94.796 25.07358 
L 185.290667 25.07358 
" clip-path="url(#pa6c97cfc91)" style="fill: none; stroke: #585858; stroke-width: 2; stroke-linecap: round"/>
   </g>
   <g id="line2d_11"/>
   <g id="patch_4">
    <path d="M 275.785333 380.237662 
L 456.774667 380.237662 
L 456.774667 359.470081 
L 275.785333 359.470081 
L 275.785333 380.237662 
z
" clip-path="url(#pa6c97cfc91)" style="fill: #857aab; stroke: #585858; stroke-width: 2; stroke-linejoin: miter"/>
   </g>
   <g id="line2d_12">
    <path d="M 366.28 380.237662 
L 366.28 382.54517 
" clip-path="url(#pa6c97cfc91)" style="fill: none; stroke: #585858; stroke-width: 2"/>
   </g>
   <g id="line2d_13">
    <path d="M 366.28 359.470081 
L 366.28 355.816525 
" clip-path="url(#pa6c97cfc91)" style="fill: none; stroke: #585858; stroke-width: 2"/>
   </g>
   <g id="line2d_14">
    <path d="M 321.032667 382.54517 
L 411.527333 382.54517 
" clip-path="url(#pa6c97cfc91)" style="fill: none; stroke: #585858; stroke-width: 2; stroke-linecap: round"/>
   </g>
   <g id="line2d_15">
    <path d="M 321.032667 355.816525 
L 411.527333 355.816525 
" clip-path="url(#pa6c97cfc91)" style="fill: none; stroke: #585858; stroke-width: 2; stroke-linecap: round"/>
   </g>
   <g id="line2d_16"/>
   <g id="patch_5">
    <path d="M 502.022 376.936642 
L 683.011333 376.936642 
L 683.011333 374.052256 
L 502.022 374.052256 
L 502.022 376.936642 
z
" clip-path="url(#pa6c97cfc91)" style="fill: #857aab; stroke: #585858; stroke-width: 2; stroke-linejoin: miter"/>
   </g>
   <g id="line2d_17">
    <path d="M 592.516667 376.936642 
L 592.516667 379.788979 
" clip-path="url(#pa6c97cfc91)" style="fill: none; stroke: #585858; stroke-width: 2"/>
   </g>
   <g id="line2d_18">
    <path d="M 592.516667 374.052256 
L 592.516667 374.020207 
" clip-path="url(#pa6c97cfc91)" style="fill: none; stroke: #585858; stroke-width: 2"/>
   </g>
   <g id="line2d_19">
    <path d="M 547.269333 379.788979 
L 637.764 379.788979 
" clip-path="url(#pa6c97cfc91)" style="fill: none; stroke: #585858; stroke-width: 2; stroke-linecap: round"/>
   </g>
   <g id="line2d_20">
    <path d="M 547.269333 374.020207 
L 637.764 374.020207 
" clip-path="url(#pa6c97cfc91)" style="fill: none; stroke: #585858; stroke-width: 2; stroke-linecap: round"/>
   </g>
   <g id="line2d_21"/>
   <g id="line2d_22">
    <path d="M 49.548667 81.831889 
L 230.538 81.831889 
" clip-path="url(#pa6c97cfc91)" style="fill: none; stroke: #585858; stroke-width: 2"/>
   </g>
   <g id="line2d_23">
    <path d="M 275.785333 372.353673 
L 456.774667 372.353673 
" clip-path="url(#pa6c97cfc91)" style="fill: none; stroke: #585858; stroke-width: 2"/>
   </g>
   <g id="line2d_24">
    <path d="M 502.022 374.084304 
L 683.011333 374.084304 
" clip-path="url(#pa6c97cfc91)" style="fill: none; stroke: #585858; stroke-width: 2"/>
   </g>
   <g id="patch_6">
    <path d="M 26.925 400.41875 
L 26.925 7.2 
" style="fill: none; stroke: #ffffff; stroke-width: 0.8; stroke-linejoin: miter; stroke-linecap: square"/>
   </g>
   <g id="patch_7">
    <path d="M 705.635 400.41875 
L 705.635 7.2 
" style="fill: none; stroke: #ffffff; stroke-width: 0.8; stroke-linejoin: miter; stroke-linecap: square"/>
   </g>
   <g id="patch_8">
    <path d="M 26.925 400.41875 
L 705.635 400.41875 
" style="fill: none; stroke: #ffffff; stroke-width: 0.8; stroke-linejoin: miter; stroke-linecap: square"/>
   </g>
   <g id="patch_9">
    <path d="M 26.925 7.2 
L 705.635 7.2 
" style="fill: none; stroke: #ffffff; stroke-width: 0.8; stroke-linejoin: miter; stroke-linecap: square"/>
   </g>
  </g>
 </g>
 <defs>
  <clipPath id="pa6c97cfc91">
   <rect x="26.925" y="7.2" width="678.71" height="393.21875"/>
  </clipPath>
 </defs>
</svg>
