<?xml version="1.0" encoding="utf-8" standalone="no"?>
<!DOCTYPE svg PUBLIC "-//W3C//DTD SVG 1.1//EN"
  "http://www.w3.org/Graphics/SVG/1.1/DTD/svg11.dtd">
<svg xmlns:xlink="http://www.w3.org/1999/xlink" width="712.96pt" height="424.8pt" viewBox="0 0 712.96 424.8" xmlns="http://www.w3.org/2000/svg" version="1.1">
 <metadata>
  <rdf:RDF xmlns:dc="http://purl.org/dc/elements/1.1/" xmlns:cc="http://creativecommons.org/ns#" xmlns:rdf="http://www.w3.org/1999/02/22-rdf-syntax-ns#">
   <cc:Work>
    <dc:type rdf:resource="http://purl.org/dc/dcmitype/StillImage"/>
    <dc:date>2025-04-15T11:37:30.969166</dc:date>
    <dc:format>image/svg+xml</dc:format>
    <dc:creator>
     <cc:Agent>
      <dc:title>Matplotlib v3.10.0, https://matplotlib.org/</dc:title>
     </cc:Agent>
    </dc:creator>
   </cc:Work>
  </rdf:RDF>
 </metadata>
 <defs>
  <style type="text/css">*{stroke-linejoin: round; stroke-linecap: butt}</style>
 </defs>
 <g id="figure_1">
  <g id="patch_1">
   <path d="M 0 424.8 
L 712.96 424.8 
L 712.96 0 
L 0 0 
z
" style="fill: #ffffff"/>
  </g>
  <g id="axes_1">
   <g id="patch_2">
    <path d="M 39.65 417.6 
L 705.76 417.6 
L 705.76 7.2 
L 39.65 7.2 
z
" style="fill: #ffffff"/>
   </g>
   <g id="matplotlib.axis_1"/>
   <g id="matplotlib.axis_2">
    <g id="ytick_1">
     <g id="line2d_1">
      <path d="M 39.65 398.979318 
L 705.76 398.979318 
" clip-path="url(#paacbcc672d)" style="fill: none; stroke: #999999; stroke-width: 0.8; stroke-linecap: round"/>
     </g>
     <g id="text_1">
      <!-- 0 -->
      <g style="fill: #262626" transform="translate(26.2875 402.778536) scale(0.1 -0.1)">
       <defs>
        <path id="DejaVuSans-30" d="M 2034 4250 
Q 1547 4250 1301 3770 
Q 1056 3291 1056 2328 
Q 1056 1369 1301 889 
Q 1547 409 2034 409 
Q 2525 409 2770 889 
Q 3016 1369 3016 2328 
Q 3016 3291 2770 3770 
Q 2525 4250 2034 4250 
z
M 2034 4750 
Q 2819 4750 3233 4129 
Q 3647 3509 3647 2328 
Q 3647 1150 3233 529 
Q 2819 -91 2034 -91 
Q 1250 -91 836 529 
Q 422 1150 422 2328 
Q 422 3509 836 4129 
Q 1250 4750 2034 4750 
z
" transform="scale(0.015625)"/>
       </defs>
       <use xlink:href="#DejaVuSans-30"/>
      </g>
     </g>
    </g>
    <g id="ytick_2">
     <g id="line2d_2">
      <path d="M 39.65 326.666588 
L 705.76 326.666588 
" clip-path="url(#paacbcc672d)" style="fill: none; stroke: #999999; stroke-width: 0.8; stroke-linecap: round"/>
     </g>
     <g id="text_2">
      <!-- 1000 -->
      <g style="fill: #262626" transform="translate(7.2 330.465806) scale(0.1 -0.1)">
       <defs>
        <path id="DejaVuSans-31" d="M 794 531 
L 1825 531 
L 1825 4091 
L 703 3866 
L 703 4441 
L 1819 4666 
L 2450 4666 
L 2450 531 
L 3481 531 
L 3481 0 
L 794 0 
L 794 531 
z
" transform="scale(0.015625)"/>
       </defs>
       <use xlink:href="#DejaVuSans-31"/>
       <use xlink:href="#DejaVuSans-30" transform="translate(63.623047 0)"/>
       <use xlink:href="#DejaVuSans-30" transform="translate(127.246094 0)"/>
       <use xlink:href="#DejaVuSans-30" transform="translate(190.869141 0)"/>
      </g>
     </g>
    </g>
    <g id="ytick_3">
     <g id="line2d_3">
      <path d="M 39.65 254.353858 
L 705.76 254.353858 
" clip-path="url(#paacbcc672d)" style="fill: none; stroke: #999999; stroke-width: 0.8; stroke-linecap: round"/>
     </g>
     <g id="text_3">
      <!-- 2000 -->
      <g style="fill: #262626" transform="translate(7.2 258.153076) scale(0.1 -0.1)">
       <defs>
        <path id="DejaVuSans-32" d="M 1228 531 
L 3431 531 
L 3431 0 
L 469 0 
L 469 531 
Q 828 903 1448 1529 
Q 2069 2156 2228 2338 
Q 2531 2678 2651 2914 
Q 2772 3150 2772 3378 
Q 2772 3750 2511 3984 
Q 2250 4219 1831 4219 
Q 1534 4219 1204 4116 
Q 875 4013 500 3803 
L 500 4441 
Q 881 4594 1212 4672 
Q 1544 4750 1819 4750 
Q 2544 4750 2975 4387 
Q 3406 4025 3406 3419 
Q 3406 3131 3298 2873 
Q 3191 2616 2906 2266 
Q 2828 2175 2409 1742 
Q 1991 1309 1228 531 
z
" transform="scale(0.015625)"/>
       </defs>
       <use xlink:href="#DejaVuSans-32"/>
       <use xlink:href="#DejaVuSans-30" transform="translate(63.623047 0)"/>
       <use xlink:href="#DejaVuSans-30" transform="translate(127.246094 0)"/>
       <use xlink:href="#DejaVuSans-30" transform="translate(190.869141 0)"/>
      </g>
     </g>
    </g>
    <g id="ytick_4">
     <g id="line2d_4">
      <path d="M 39.65 182.041127 
L 705.76 182.041127 
" clip-path="url(#paacbcc672d)" style="fill: none; stroke: #999999; stroke-width: 0.8; stroke-linecap: round"/>
     </g>
     <g id="text_4">
      <!-- 3000 -->
      <g style="fill: #262626" transform="translate(7.2 185.840346) scale(0.1 -0.1)">
       <defs>
        <path id="DejaVuSans-33" d="M 2597 2516 
Q 3050 2419 3304 2112 
Q 3559 1806 3559 1356 
Q 3559 666 3084 287 
Q 2609 -91 1734 -91 
Q 1441 -91 1130 -33 
Q 819 25 488 141 
L 488 750 
Q 750 597 1062 519 
Q 1375 441 1716 441 
Q 2309 441 2620 675 
Q 2931 909 2931 1356 
Q 2931 1769 2642 2001 
Q 2353 2234 1838 2234 
L 1294 2234 
L 1294 2753 
L 1863 2753 
Q 2328 2753 2575 2939 
Q 2822 3125 2822 3475 
Q 2822 3834 2567 4026 
Q 2313 4219 1838 4219 
Q 1578 4219 1281 4162 
Q 984 4106 628 3988 
L 628 4550 
Q 988 4650 1302 4700 
Q 1616 4750 1894 4750 
Q 2613 4750 3031 4423 
Q 3450 4097 3450 3541 
Q 3450 3153 3228 2886 
Q 3006 2619 2597 2516 
z
" transform="scale(0.015625)"/>
       </defs>
       <use xlink:href="#DejaVuSans-33"/>
       <use xlink:href="#DejaVuSans-30" transform="translate(63.623047 0)"/>
       <use xlink:href="#DejaVuSans-30" transform="translate(127.246094 0)"/>
       <use xlink:href="#DejaVuSans-30" transform="translate(190.869141 0)"/>
      </g>
     </g>
    </g>
    <g id="ytick_5">
     <g id="line2d_5">
      <path d="M 39.65 109.728397 
L 705.76 109.728397 
" clip-path="url(#paacbcc672d)" style="fill: none; stroke: #999999; stroke-width: 0.8; stroke-linecap: round"/>
     </g>
     <g id="text_5">
      <!-- 4000 -->
      <g style="fill: #262626" transform="translate(7.2 113.527616) scale(0.1 -0.1)">
       <defs>
        <path id="DejaVuSans-34" d="M 2419 4116 
L 825 1625 
L 2419 1625 
L 2419 4116 
z
M 2253 4666 
L 3047 4666 
L 3047 1625 
L 3713 1625 
L 3713 1100 
L 3047 1100 
L 3047 0 
L 2419 0 
L 2419 1100 
L 313 1100 
L 313 1709 
L 2253 4666 
z
" transform="scale(0.015625)"/>
       </defs>
       <use xlink:href="#DejaVuSans-34"/>
       <use xlink:href="#DejaVuSans-30" transform="translate(63.623047 0)"/>
       <use xlink:href="#DejaVuSans-30" transform="translate(127.246094 0)"/>
       <use xlink:href="#DejaVuSans-30" transform="translate(190.869141 0)"/>
      </g>
     </g>
    </g>
    <g id="ytick_6">
     <g id="line2d_6">
      <path d="M 39.65 37.415667 
L 705.76 37.415667 
" clip-path="url(#paacbcc672d)" style="fill: none; stroke: #999999; stroke-width: 0.8; stroke-linecap: round"/>
     </g>
     <g id="text_6">
      <!-- 5000 -->
      <g style="fill: #262626" transform="translate(7.2 41.214886) scale(0.1 -0.1)">
       <defs>
        <path id="DejaVuSans-35" d="M 691 4666 
L 3169 4666 
L 3169 4134 
L 1269 4134 
L 1269 2991 
Q 1406 3038 1543 3061 
Q 1681 3084 1819 3084 
Q 2600 3084 3056 2656 
Q 3513 2228 3513 1497 
Q 3513 744 3044 326 
Q 2575 -91 1722 -91 
Q 1428 -91 1123 -41 
Q 819 9 494 109 
L 494 744 
Q 775 591 1075 516 
Q 1375 441 1709 441 
Q 2250 441 2565 725 
Q 2881 1009 2881 1497 
Q 2881 1984 2565 2268 
Q 2250 2553 1709 2553 
Q 1456 2553 1204 2497 
Q 953 2441 691 2322 
L 691 4666 
z
" transform="scale(0.015625)"/>
       </defs>
       <use xlink:href="#DejaVuSans-35"/>
       <use xlink:href="#DejaVuSans-30" transform="translate(63.623047 0)"/>
       <use xlink:href="#DejaVuSans-30" transform="translate(127.246094 0)"/>
       <use xlink:href="#DejaVuSans-30" transform="translate(190.869141 0)"/>
      </g>
     </g>
    </g>
   </g>
   <g id="patch_3">
    <path d="M 47.051222 339.086215 
L 106.261 339.086215 
L 106.261 232.217034 
L 47.051222 232.217034 
L 47.051222 339.086215 
z
" clip-path="url(#paacbcc672d)" style="fill: #71aec0; stroke: #5c5c5c; stroke-width: 2; stroke-linejoin: miter"/>
   </g>
   <g id="line2d_7">
    <path d="M 76.656111 339.086215 
L 76.656111 394.498438 
" clip-path="url(#paacbcc672d)" style="fill: none; stroke: #5c5c5c; stroke-width: 2"/>
   </g>
   <g id="line2d_8">
    <path d="M 76.656111 232.217034 
L 76.656111 115.654521 
" clip-path="url(#paacbcc672d)" style="fill: none; stroke: #5c5c5c; stroke-width: 2"/>
   </g>
   <g id="line2d_9">
    <path d="M 61.853667 394.498438 
L 91.458556 394.498438 
" clip-path="url(#paacbcc672d)" style="fill: none; stroke: #5c5c5c; stroke-width: 2; stroke-linecap: round"/>
   </g>
   <g id="line2d_10">
    <path d="M 61.853667 115.654521 
L 91.458556 115.654521 
" clip-path="url(#paacbcc672d)" style="fill: none; stroke: #5c5c5c; stroke-width: 2; stroke-linecap: round"/>
   </g>
   <g id="line2d_11">
    <defs>
     <path id="mf3ede1212e" d="M -0 3.535534 
L 3.535534 0 
L 0 -3.535534 
L -3.535534 -0 
z
" style="stroke: #5c5c5c; stroke-linejoin: miter"/>
    </defs>
    <g clip-path="url(#paacbcc672d)">
     <use xlink:href="#mf3ede1212e" x="76.656111" y="52.701206" style="fill: #a9a9a9; stroke: #5c5c5c; stroke-linejoin: miter"/>
     <use xlink:href="#mf3ede1212e" x="76.656111" y="25.854545" style="fill: #a9a9a9; stroke: #5c5c5c; stroke-linejoin: miter"/>
    </g>
   </g>
   <g id="patch_4">
    <path d="M 121.063444 328.327044 
L 180.273222 328.327044 
L 180.273222 231.250865 
L 121.063444 231.250865 
L 121.063444 328.327044 
z
" clip-path="url(#paacbcc672d)" style="fill: #71aec0; stroke: #5c5c5c; stroke-width: 2; stroke-linejoin: miter"/>
   </g>
   <g id="line2d_12">
    <path d="M 150.668333 328.327044 
L 150.668333 397.531764 
" clip-path="url(#paacbcc672d)" style="fill: none; stroke: #5c5c5c; stroke-width: 2"/>
   </g>
   <g id="line2d_13">
    <path d="M 150.668333 231.250865 
L 150.668333 205.021268 
" clip-path="url(#paacbcc672d)" style="fill: none; stroke: #5c5c5c; stroke-width: 2"/>
   </g>
   <g id="line2d_14">
    <path d="M 135.865889 397.531764 
L 165.470778 397.531764 
" clip-path="url(#paacbcc672d)" style="fill: none; stroke: #5c5c5c; stroke-width: 2; stroke-linecap: round"/>
   </g>
   <g id="line2d_15">
    <path d="M 135.865889 205.021268 
L 165.470778 205.021268 
" clip-path="url(#paacbcc672d)" style="fill: none; stroke: #5c5c5c; stroke-width: 2; stroke-linecap: round"/>
   </g>
   <g id="line2d_16"/>
   <g id="patch_5">
    <path d="M 195.075667 392.703879 
L 254.285444 392.703879 
L 254.285444 338.212052 
L 195.075667 338.212052 
L 195.075667 392.703879 
z
" clip-path="url(#paacbcc672d)" style="fill: #71aec0; stroke: #5c5c5c; stroke-width: 2; stroke-linejoin: miter"/>
   </g>
   <g id="line2d_17">
    <path d="M 224.680556 392.703879 
L 224.680556 398.793019 
" clip-path="url(#paacbcc672d)" style="fill: none; stroke: #5c5c5c; stroke-width: 2"/>
   </g>
   <g id="line2d_18">
    <path d="M 224.680556 338.212052 
L 224.680556 275.2395 
" clip-path="url(#paacbcc672d)" style="fill: none; stroke: #5c5c5c; stroke-width: 2"/>
   </g>
   <g id="line2d_19">
    <path d="M 209.878111 398.793019 
L 239.483 398.793019 
" clip-path="url(#paacbcc672d)" style="fill: none; stroke: #5c5c5c; stroke-width: 2; stroke-linecap: round"/>
   </g>
   <g id="line2d_20">
    <path d="M 209.878111 275.2395 
L 239.483 275.2395 
" clip-path="url(#paacbcc672d)" style="fill: none; stroke: #5c5c5c; stroke-width: 2; stroke-linecap: round"/>
   </g>
   <g id="line2d_21">
    <g clip-path="url(#paacbcc672d)">
     <use xlink:href="#mf3ede1212e" x="224.680556" y="251.730544" style="fill: #a9a9a9; stroke: #5c5c5c; stroke-linejoin: miter"/>
     <use xlink:href="#mf3ede1212e" x="224.680556" y="213.273584" style="fill: #a9a9a9; stroke: #5c5c5c; stroke-linejoin: miter"/>
     <use xlink:href="#mf3ede1212e" x="224.680556" y="232.766225" style="fill: #a9a9a9; stroke: #5c5c5c; stroke-linejoin: miter"/>
     <use xlink:href="#mf3ede1212e" x="224.680556" y="205.324719" style="fill: #a9a9a9; stroke: #5c5c5c; stroke-linejoin: miter"/>
     <use xlink:href="#mf3ede1212e" x="224.680556" y="242.0289" style="fill: #a9a9a9; stroke: #5c5c5c; stroke-linejoin: miter"/>
    </g>
   </g>
   <g id="patch_6">
    <path d="M 269.087889 389.08156 
L 328.297667 389.08156 
L 328.297667 344.561576 
L 269.087889 344.561576 
L 269.087889 389.08156 
z
" clip-path="url(#paacbcc672d)" style="fill: #71aec0; stroke: #5c5c5c; stroke-width: 2; stroke-linejoin: miter"/>
   </g>
   <g id="line2d_22">
    <path d="M 298.692778 389.08156 
L 298.692778 398.803428 
" clip-path="url(#paacbcc672d)" style="fill: none; stroke: #5c5c5c; stroke-width: 2"/>
   </g>
   <g id="line2d_23">
    <path d="M 298.692778 344.561576 
L 298.692778 289.933322 
" clip-path="url(#paacbcc672d)" style="fill: none; stroke: #5c5c5c; stroke-width: 2"/>
   </g>
   <g id="line2d_24">
    <path d="M 283.890333 398.803428 
L 313.495222 398.803428 
" clip-path="url(#paacbcc672d)" style="fill: none; stroke: #5c5c5c; stroke-width: 2; stroke-linecap: round"/>
   </g>
   <g id="line2d_25">
    <path d="M 283.890333 289.933322 
L 313.495222 289.933322 
" clip-path="url(#paacbcc672d)" style="fill: none; stroke: #5c5c5c; stroke-width: 2; stroke-linecap: round"/>
   </g>
   <g id="line2d_26">
    <g clip-path="url(#paacbcc672d)">
     <use xlink:href="#mf3ede1212e" x="298.692778" y="276.528038" style="fill: #a9a9a9; stroke: #5c5c5c; stroke-linejoin: miter"/>
     <use xlink:href="#mf3ede1212e" x="298.692778" y="227.156048" style="fill: #a9a9a9; stroke: #5c5c5c; stroke-linejoin: miter"/>
     <use xlink:href="#mf3ede1212e" x="298.692778" y="175.63283" style="fill: #a9a9a9; stroke: #5c5c5c; stroke-linejoin: miter"/>
     <use xlink:href="#mf3ede1212e" x="298.692778" y="245.273158" style="fill: #a9a9a9; stroke: #5c5c5c; stroke-linejoin: miter"/>
    </g>
   </g>
   <g id="patch_7">
    <path d="M 343.100111 388.434395 
L 402.309889 388.434395 
L 402.309889 361.493126 
L 343.100111 361.493126 
L 343.100111 388.434395 
z
" clip-path="url(#paacbcc672d)" style="fill: #71aec0; stroke: #5c5c5c; stroke-width: 2; stroke-linejoin: miter"/>
   </g>
   <g id="line2d_27">
    <path d="M 372.705 388.434395 
L 372.705 395.74858 
" clip-path="url(#paacbcc672d)" style="fill: none; stroke: #5c5c5c; stroke-width: 2"/>
   </g>
   <g id="line2d_28">
    <path d="M 372.705 361.493126 
L 372.705 356.781401 
" clip-path="url(#paacbcc672d)" style="fill: none; stroke: #5c5c5c; stroke-width: 2"/>
   </g>
   <g id="line2d_29">
    <path d="M 357.902556 395.74858 
L 387.507444 395.74858 
" clip-path="url(#paacbcc672d)" style="fill: none; stroke: #5c5c5c; stroke-width: 2; stroke-linecap: round"/>
   </g>
   <g id="line2d_30">
    <path d="M 357.902556 356.781401 
L 387.507444 356.781401 
" clip-path="url(#paacbcc672d)" style="fill: none; stroke: #5c5c5c; stroke-width: 2; stroke-linecap: round"/>
   </g>
   <g id="line2d_31">
    <g clip-path="url(#paacbcc672d)">
     <use xlink:href="#mf3ede1212e" x="372.705" y="313.396044" style="fill: #a9a9a9; stroke: #5c5c5c; stroke-linejoin: miter"/>
    </g>
   </g>
   <g id="patch_8">
    <path d="M 417.112333 396.98074 
L 476.322111 396.98074 
L 476.322111 378.970867 
L 417.112333 378.970867 
L 417.112333 396.98074 
z
" clip-path="url(#paacbcc672d)" style="fill: #71aec0; stroke: #5c5c5c; stroke-width: 2; stroke-linejoin: miter"/>
   </g>
   <g id="line2d_32">
    <path d="M 446.717222 396.98074 
L 446.717222 398.507955 
" clip-path="url(#paacbcc672d)" style="fill: none; stroke: #5c5c5c; stroke-width: 2"/>
   </g>
   <g id="line2d_33">
    <path d="M 446.717222 378.970867 
L 446.717222 353.665769 
" clip-path="url(#paacbcc672d)" style="fill: none; stroke: #5c5c5c; stroke-width: 2"/>
   </g>
   <g id="line2d_34">
    <path d="M 431.914778 398.507955 
L 461.519667 398.507955 
" clip-path="url(#paacbcc672d)" style="fill: none; stroke: #5c5c5c; stroke-width: 2; stroke-linecap: round"/>
   </g>
   <g id="line2d_35">
    <path d="M 431.914778 353.665769 
L 461.519667 353.665769 
" clip-path="url(#paacbcc672d)" style="fill: none; stroke: #5c5c5c; stroke-width: 2; stroke-linecap: round"/>
   </g>
   <g id="line2d_36">
    <g clip-path="url(#paacbcc672d)">
     <use xlink:href="#mf3ede1212e" x="446.717222" y="325.888885" style="fill: #a9a9a9; stroke: #5c5c5c; stroke-linejoin: miter"/>
     <use xlink:href="#mf3ede1212e" x="446.717222" y="311.313404" style="fill: #a9a9a9; stroke: #5c5c5c; stroke-linejoin: miter"/>
    </g>
   </g>
   <g id="patch_9">
    <path d="M 491.124556 398.251075 
L 550.334333 398.251075 
L 550.334333 395.78097 
L 491.124556 395.78097 
L 491.124556 398.251075 
z
" clip-path="url(#paacbcc672d)" style="fill: #71aec0; stroke: #5c5c5c; stroke-width: 2; stroke-linejoin: miter"/>
   </g>
   <g id="line2d_37">
    <path d="M 520.729444 398.251075 
L 520.729444 398.945455 
" clip-path="url(#paacbcc672d)" style="fill: none; stroke: #5c5c5c; stroke-width: 2"/>
   </g>
   <g id="line2d_38">
    <path d="M 520.729444 395.78097 
L 520.729444 392.561196 
" clip-path="url(#paacbcc672d)" style="fill: none; stroke: #5c5c5c; stroke-width: 2"/>
   </g>
   <g id="line2d_39">
    <path d="M 505.927 398.945455 
L 535.531889 398.945455 
" clip-path="url(#paacbcc672d)" style="fill: none; stroke: #5c5c5c; stroke-width: 2; stroke-linecap: round"/>
   </g>
   <g id="line2d_40">
    <path d="M 505.927 392.561196 
L 535.531889 392.561196 
" clip-path="url(#paacbcc672d)" style="fill: none; stroke: #5c5c5c; stroke-width: 2; stroke-linecap: round"/>
   </g>
   <g id="line2d_41">
    <g clip-path="url(#paacbcc672d)">
     <use xlink:href="#mf3ede1212e" x="520.729444" y="390.288523" style="fill: #a9a9a9; stroke: #5c5c5c; stroke-linejoin: miter"/>
     <use xlink:href="#mf3ede1212e" x="520.729444" y="389.522139" style="fill: #a9a9a9; stroke: #5c5c5c; stroke-linejoin: miter"/>
     <use xlink:href="#mf3ede1212e" x="520.729444" y="387.149453" style="fill: #a9a9a9; stroke: #5c5c5c; stroke-linejoin: miter"/>
     <use xlink:href="#mf3ede1212e" x="520.729444" y="389.682646" style="fill: #a9a9a9; stroke: #5c5c5c; stroke-linejoin: miter"/>
     <use xlink:href="#mf3ede1212e" x="520.729444" y="391.47207" style="fill: #a9a9a9; stroke: #5c5c5c; stroke-linejoin: miter"/>
     <use xlink:href="#mf3ede1212e" x="520.729444" y="357.247091" style="fill: #a9a9a9; stroke: #5c5c5c; stroke-linejoin: miter"/>
     <use xlink:href="#mf3ede1212e" x="520.729444" y="391.739622" style="fill: #a9a9a9; stroke: #5c5c5c; stroke-linejoin: miter"/>
     <use xlink:href="#mf3ede1212e" x="520.729444" y="387.786009" style="fill: #a9a9a9; stroke: #5c5c5c; stroke-linejoin: miter"/>
     <use xlink:href="#mf3ede1212e" x="520.729444" y="385.299022" style="fill: #a9a9a9; stroke: #5c5c5c; stroke-linejoin: miter"/>
     <use xlink:href="#mf3ede1212e" x="520.729444" y="381.37761" style="fill: #a9a9a9; stroke: #5c5c5c; stroke-linejoin: miter"/>
     <use xlink:href="#mf3ede1212e" x="520.729444" y="389.254508" style="fill: #a9a9a9; stroke: #5c5c5c; stroke-linejoin: miter"/>
     <use xlink:href="#mf3ede1212e" x="520.729444" y="389.446788" style="fill: #a9a9a9; stroke: #5c5c5c; stroke-linejoin: miter"/>
     <use xlink:href="#mf3ede1212e" x="520.729444" y="390.289175" style="fill: #a9a9a9; stroke: #5c5c5c; stroke-linejoin: miter"/>
     <use xlink:href="#mf3ede1212e" x="520.729444" y="389.984149" style="fill: #a9a9a9; stroke: #5c5c5c; stroke-linejoin: miter"/>
     <use xlink:href="#mf3ede1212e" x="520.729444" y="390.314143" style="fill: #a9a9a9; stroke: #5c5c5c; stroke-linejoin: miter"/>
     <use xlink:href="#mf3ede1212e" x="520.729444" y="376.101918" style="fill: #a9a9a9; stroke: #5c5c5c; stroke-linejoin: miter"/>
     <use xlink:href="#mf3ede1212e" x="520.729444" y="392.066849" style="fill: #a9a9a9; stroke: #5c5c5c; stroke-linejoin: miter"/>
     <use xlink:href="#mf3ede1212e" x="520.729444" y="387.198293" style="fill: #a9a9a9; stroke: #5c5c5c; stroke-linejoin: miter"/>
     <use xlink:href="#mf3ede1212e" x="520.729444" y="386.480852" style="fill: #a9a9a9; stroke: #5c5c5c; stroke-linejoin: miter"/>
     <use xlink:href="#mf3ede1212e" x="520.729444" y="389.595227" style="fill: #a9a9a9; stroke: #5c5c5c; stroke-linejoin: miter"/>
     <use xlink:href="#mf3ede1212e" x="520.729444" y="390.777439" style="fill: #a9a9a9; stroke: #5c5c5c; stroke-linejoin: miter"/>
     <use xlink:href="#mf3ede1212e" x="520.729444" y="380.96865" style="fill: #a9a9a9; stroke: #5c5c5c; stroke-linejoin: miter"/>
     <use xlink:href="#mf3ede1212e" x="520.729444" y="389.675989" style="fill: #a9a9a9; stroke: #5c5c5c; stroke-linejoin: miter"/>
     <use xlink:href="#mf3ede1212e" x="520.729444" y="391.739926" style="fill: #a9a9a9; stroke: #5c5c5c; stroke-linejoin: miter"/>
     <use xlink:href="#mf3ede1212e" x="520.729444" y="390.568045" style="fill: #a9a9a9; stroke: #5c5c5c; stroke-linejoin: miter"/>
     <use xlink:href="#mf3ede1212e" x="520.729444" y="390.344315" style="fill: #a9a9a9; stroke: #5c5c5c; stroke-linejoin: miter"/>
     <use xlink:href="#mf3ede1212e" x="520.729444" y="382.959502" style="fill: #a9a9a9; stroke: #5c5c5c; stroke-linejoin: miter"/>
     <use xlink:href="#mf3ede1212e" x="520.729444" y="378.809826" style="fill: #a9a9a9; stroke: #5c5c5c; stroke-linejoin: miter"/>
     <use xlink:href="#mf3ede1212e" x="520.729444" y="383.972931" style="fill: #a9a9a9; stroke: #5c5c5c; stroke-linejoin: miter"/>
     <use xlink:href="#mf3ede1212e" x="520.729444" y="389.156196" style="fill: #a9a9a9; stroke: #5c5c5c; stroke-linejoin: miter"/>
     <use xlink:href="#mf3ede1212e" x="520.729444" y="389.571198" style="fill: #a9a9a9; stroke: #5c5c5c; stroke-linejoin: miter"/>
     <use xlink:href="#mf3ede1212e" x="520.729444" y="386.981586" style="fill: #a9a9a9; stroke: #5c5c5c; stroke-linejoin: miter"/>
     <use xlink:href="#mf3ede1212e" x="520.729444" y="381.541921" style="fill: #a9a9a9; stroke: #5c5c5c; stroke-linejoin: miter"/>
     <use xlink:href="#mf3ede1212e" x="520.729444" y="388.656371" style="fill: #a9a9a9; stroke: #5c5c5c; stroke-linejoin: miter"/>
    </g>
   </g>
   <g id="patch_10">
    <path d="M 565.136778 398.079917 
L 624.346556 398.079917 
L 624.346556 396.702961 
L 565.136778 396.702961 
L 565.136778 398.079917 
z
" clip-path="url(#paacbcc672d)" style="fill: #71aec0; stroke: #5c5c5c; stroke-width: 2; stroke-linejoin: miter"/>
   </g>
   <g id="line2d_42">
    <path d="M 594.741667 398.079917 
L 594.741667 398.856717 
" clip-path="url(#paacbcc672d)" style="fill: none; stroke: #5c5c5c; stroke-width: 2"/>
   </g>
   <g id="line2d_43">
    <path d="M 594.741667 396.702961 
L 594.741667 395.569446 
" clip-path="url(#paacbcc672d)" style="fill: none; stroke: #5c5c5c; stroke-width: 2"/>
   </g>
   <g id="line2d_44">
    <path d="M 579.939222 398.856717 
L 609.544111 398.856717 
" clip-path="url(#paacbcc672d)" style="fill: none; stroke: #5c5c5c; stroke-width: 2; stroke-linecap: round"/>
   </g>
   <g id="line2d_45">
    <path d="M 579.939222 395.569446 
L 609.544111 395.569446 
" clip-path="url(#paacbcc672d)" style="fill: none; stroke: #5c5c5c; stroke-width: 2; stroke-linecap: round"/>
   </g>
   <g id="line2d_46">
    <g clip-path="url(#paacbcc672d)">
     <use xlink:href="#mf3ede1212e" x="594.741667" y="116.402067" style="fill: #a9a9a9; stroke: #5c5c5c; stroke-linejoin: miter"/>
     <use xlink:href="#mf3ede1212e" x="594.741667" y="390.909146" style="fill: #a9a9a9; stroke: #5c5c5c; stroke-linejoin: miter"/>
    </g>
   </g>
   <g id="patch_11">
    <path d="M 639.149 398.471659 
L 698.358778 398.471659 
L 698.358778 396.711905 
L 639.149 396.711905 
L 639.149 398.471659 
z
" clip-path="url(#paacbcc672d)" style="fill: #71aec0; stroke: #5c5c5c; stroke-width: 2; stroke-linejoin: miter"/>
   </g>
   <g id="line2d_47">
    <path d="M 668.753889 398.471659 
L 668.753889 398.824698 
" clip-path="url(#paacbcc672d)" style="fill: none; stroke: #5c5c5c; stroke-width: 2"/>
   </g>
   <g id="line2d_48">
    <path d="M 668.753889 396.711905 
L 668.753889 394.161572 
" clip-path="url(#paacbcc672d)" style="fill: none; stroke: #5c5c5c; stroke-width: 2"/>
   </g>
   <g id="line2d_49">
    <path d="M 653.951444 398.824698 
L 683.556333 398.824698 
" clip-path="url(#paacbcc672d)" style="fill: none; stroke: #5c5c5c; stroke-width: 2; stroke-linecap: round"/>
   </g>
   <g id="line2d_50">
    <path d="M 653.951444 394.161572 
L 683.556333 394.161572 
" clip-path="url(#paacbcc672d)" style="fill: none; stroke: #5c5c5c; stroke-width: 2; stroke-linecap: round"/>
   </g>
   <g id="line2d_51">
    <g clip-path="url(#paacbcc672d)">
     <use xlink:href="#mf3ede1212e" x="668.753889" y="390.478989" style="fill: #a9a9a9; stroke: #5c5c5c; stroke-linejoin: miter"/>
     <use xlink:href="#mf3ede1212e" x="668.753889" y="279.503629" style="fill: #a9a9a9; stroke: #5c5c5c; stroke-linejoin: miter"/>
     <use xlink:href="#mf3ede1212e" x="668.753889" y="392.488104" style="fill: #a9a9a9; stroke: #5c5c5c; stroke-linejoin: miter"/>
     <use xlink:href="#mf3ede1212e" x="668.753889" y="387.446916" style="fill: #a9a9a9; stroke: #5c5c5c; stroke-linejoin: miter"/>
     <use xlink:href="#mf3ede1212e" x="668.753889" y="385.268704" style="fill: #a9a9a9; stroke: #5c5c5c; stroke-linejoin: miter"/>
    </g>
   </g>
   <g id="line2d_52">
    <path d="M 47.051222 284.548587 
L 106.261 284.548587 
" clip-path="url(#paacbcc672d)" style="fill: none; stroke: #5c5c5c; stroke-width: 2"/>
   </g>
   <g id="line2d_53">
    <path d="M 121.063444 298.986411 
L 180.273222 298.986411 
" clip-path="url(#paacbcc672d)" style="fill: none; stroke: #5c5c5c; stroke-width: 2"/>
   </g>
   <g id="line2d_54">
    <path d="M 195.075667 372.342877 
L 254.285444 372.342877 
" clip-path="url(#paacbcc672d)" style="fill: none; stroke: #5c5c5c; stroke-width: 2"/>
   </g>
   <g id="line2d_55">
    <path d="M 269.087889 374.347078 
L 328.297667 374.347078 
" clip-path="url(#paacbcc672d)" style="fill: none; stroke: #5c5c5c; stroke-width: 2"/>
   </g>
   <g id="line2d_56">
    <path d="M 343.100111 376.16756 
L 402.309889 376.16756 
" clip-path="url(#paacbcc672d)" style="fill: none; stroke: #5c5c5c; stroke-width: 2"/>
   </g>
   <g id="line2d_57">
    <path d="M 417.112333 394.460816 
L 476.322111 394.460816 
" clip-path="url(#paacbcc672d)" style="fill: none; stroke: #5c5c5c; stroke-width: 2"/>
   </g>
   <g id="line2d_58">
    <path d="M 491.124556 397.428054 
L 550.334333 397.428054 
" clip-path="url(#paacbcc672d)" style="fill: none; stroke: #5c5c5c; stroke-width: 2"/>
   </g>
   <g id="line2d_59">
    <path d="M 565.136778 397.806897 
L 624.346556 397.806897 
" clip-path="url(#paacbcc672d)" style="fill: none; stroke: #5c5c5c; stroke-width: 2"/>
   </g>
   <g id="line2d_60">
    <path d="M 639.149 398.000271 
L 698.358778 398.000271 
" clip-path="url(#paacbcc672d)" style="fill: none; stroke: #5c5c5c; stroke-width: 2"/>
   </g>
   <g id="patch_12">
    <path d="M 39.65 417.6 
L 39.65 7.2 
" style="fill: none; stroke: #ffffff; stroke-width: 0.8; stroke-linejoin: miter; stroke-linecap: square"/>
   </g>
   <g id="patch_13">
    <path d="M 705.76 417.6 
L 705.76 7.2 
" style="fill: none; stroke: #ffffff; stroke-width: 0.8; stroke-linejoin: miter; stroke-linecap: square"/>
   </g>
   <g id="patch_14">
    <path d="M 39.65 417.6 
L 705.76 417.6 
" style="fill: none; stroke: #ffffff; stroke-width: 0.8; stroke-linejoin: miter; stroke-linecap: square"/>
   </g>
   <g id="patch_15">
    <path d="M 39.65 7.2 
L 705.76 7.2 
" style="fill: none; stroke: #ffffff; stroke-width: 0.8; stroke-linejoin: miter; stroke-linecap: square"/>
   </g>
  </g>
 </g>
 <defs>
  <clipPath id="paacbcc672d">
   <rect x="39.65" y="7.2" width="666.11" height="410.4"/>
  </clipPath>
 </defs>
</svg>
