<?xml version="1.0" encoding="utf-8" standalone="no"?>
<!DOCTYPE svg PUBLIC "-//W3C//DTD SVG 1.1//EN"
  "http://www.w3.org/Graphics/SVG/1.1/DTD/svg11.dtd">
<svg xmlns:xlink="http://www.w3.org/1999/xlink" width="712.835pt" height="407.61875pt" viewBox="0 0 712.835 407.61875" xmlns="http://www.w3.org/2000/svg" version="1.1">
 <metadata>
  <rdf:RDF xmlns:dc="http://purl.org/dc/elements/1.1/" xmlns:cc="http://creativecommons.org/ns#" xmlns:rdf="http://www.w3.org/1999/02/22-rdf-syntax-ns#">
   <cc:Work>
    <dc:type rdf:resource="http://purl.org/dc/dcmitype/StillImage"/>
    <dc:date>2025-04-15T11:37:31.605138</dc:date>
    <dc:format>image/svg+xml</dc:format>
    <dc:creator>
     <cc:Agent>
      <dc:title>Matplotlib v3.10.0, https://matplotlib.org/</dc:title>
     </cc:Agent>
    </dc:creator>
   </cc:Work>
  </rdf:RDF>
 </metadata>
 <defs>
  <style type="text/css">*{stroke-linejoin: round; stroke-linecap: butt}</style>
 </defs>
 <g id="figure_1">
  <g id="patch_1">
   <path d="M 0 407.61875 
L 712.835 407.61875 
L 712.835 0 
L 0 0 
z
" style="fill: #ffffff"/>
  </g>
  <g id="axes_1">
   <g id="patch_2">
    <path d="M 26.925 400.41875 
L 705.635 400.41875 
L 705.635 7.2 
L 26.925 7.2 
z
" style="fill: #ffffff"/>
   </g>
   <g id="matplotlib.axis_1"/>
   <g id="matplotlib.axis_2">
    <g id="ytick_1">
     <g id="line2d_1">
      <path d="M 26.925 382.649192 
L 705.635 382.649192 
" clip-path="url(#p0e9491ab3b)" style="fill: none; stroke: #999999; stroke-width: 0.8; stroke-linecap: round"/>
     </g>
     <g id="text_1">
      <!-- 0 -->
      <g style="fill: #262626" transform="translate(13.5625 386.448411) scale(0.1 -0.1)">
       <defs>
        <path id="DejaVuSans-30" d="M 2034 4250 
Q 1547 4250 1301 3770 
Q 1056 3291 1056 2328 
Q 1056 1369 1301 889 
Q 1547 409 2034 409 
Q 2525 409 2770 889 
Q 3016 1369 3016 2328 
Q 3016 3291 2770 3770 
Q 2525 4250 2034 4250 
z
M 2034 4750 
Q 2819 4750 3233 4129 
Q 3647 3509 3647 2328 
Q 3647 1150 3233 529 
Q 2819 -91 2034 -91 
Q 1250 -91 836 529 
Q 422 1150 422 2328 
Q 422 3509 836 4129 
Q 1250 4750 2034 4750 
z
" transform="scale(0.015625)"/>
       </defs>
       <use xlink:href="#DejaVuSans-30"/>
      </g>
     </g>
    </g>
    <g id="ytick_2">
     <g id="line2d_2">
      <path d="M 26.925 330.638194 
L 705.635 330.638194 
" clip-path="url(#p0e9491ab3b)" style="fill: none; stroke: #999999; stroke-width: 0.8; stroke-linecap: round"/>
     </g>
     <g id="text_2">
      <!-- 10 -->
      <g style="fill: #262626" transform="translate(7.2 334.437413) scale(0.1 -0.1)">
       <defs>
        <path id="DejaVuSans-31" d="M 794 531 
L 1825 531 
L 1825 4091 
L 703 3866 
L 703 4441 
L 1819 4666 
L 2450 4666 
L 2450 531 
L 3481 531 
L 3481 0 
L 794 0 
L 794 531 
z
" transform="scale(0.015625)"/>
       </defs>
       <use xlink:href="#DejaVuSans-31"/>
       <use xlink:href="#DejaVuSans-30" transform="translate(63.623047 0)"/>
      </g>
     </g>
    </g>
    <g id="ytick_3">
     <g id="line2d_3">
      <path d="M 26.925 278.627196 
L 705.635 278.627196 
" clip-path="url(#p0e9491ab3b)" style="fill: none; stroke: #999999; stroke-width: 0.8; stroke-linecap: round"/>
     </g>
     <g id="text_3">
      <!-- 20 -->
      <g style="fill: #262626" transform="translate(7.2 282.426415) scale(0.1 -0.1)">
       <defs>
        <path id="DejaVuSans-32" d="M 1228 531 
L 3431 531 
L 3431 0 
L 469 0 
L 469 531 
Q 828 903 1448 1529 
Q 2069 2156 2228 2338 
Q 2531 2678 2651 2914 
Q 2772 3150 2772 3378 
Q 2772 3750 2511 3984 
Q 2250 4219 1831 4219 
Q 1534 4219 1204 4116 
Q 875 4013 500 3803 
L 500 4441 
Q 881 4594 1212 4672 
Q 1544 4750 1819 4750 
Q 2544 4750 2975 4387 
Q 3406 4025 3406 3419 
Q 3406 3131 3298 2873 
Q 3191 2616 2906 2266 
Q 2828 2175 2409 1742 
Q 1991 1309 1228 531 
z
" transform="scale(0.015625)"/>
       </defs>
       <use xlink:href="#DejaVuSans-32"/>
       <use xlink:href="#DejaVuSans-30" transform="translate(63.623047 0)"/>
      </g>
     </g>
    </g>
    <g id="ytick_4">
     <g id="line2d_4">
      <path d="M 26.925 226.616198 
L 705.635 226.616198 
" clip-path="url(#p0e9491ab3b)" style="fill: none; stroke: #999999; stroke-width: 0.8; stroke-linecap: round"/>
     </g>
     <g id="text_4">
      <!-- 30 -->
      <g style="fill: #262626" transform="translate(7.2 230.415416) scale(0.1 -0.1)">
       <defs>
        <path id="DejaVuSans-33" d="M 2597 2516 
Q 3050 2419 3304 2112 
Q 3559 1806 3559 1356 
Q 3559 666 3084 287 
Q 2609 -91 1734 -91 
Q 1441 -91 1130 -33 
Q 819 25 488 141 
L 488 750 
Q 750 597 1062 519 
Q 1375 441 1716 441 
Q 2309 441 2620 675 
Q 2931 909 2931 1356 
Q 2931 1769 2642 2001 
Q 2353 2234 1838 2234 
L 1294 2234 
L 1294 2753 
L 1863 2753 
Q 2328 2753 2575 2939 
Q 2822 3125 2822 3475 
Q 2822 3834 2567 4026 
Q 2313 4219 1838 4219 
Q 1578 4219 1281 4162 
Q 984 4106 628 3988 
L 628 4550 
Q 988 4650 1302 4700 
Q 1616 4750 1894 4750 
Q 2613 4750 3031 4423 
Q 3450 4097 3450 3541 
Q 3450 3153 3228 2886 
Q 3006 2619 2597 2516 
z
" transform="scale(0.015625)"/>
       </defs>
       <use xlink:href="#DejaVuSans-33"/>
       <use xlink:href="#DejaVuSans-30" transform="translate(63.623047 0)"/>
      </g>
     </g>
    </g>
    <g id="ytick_5">
     <g id="line2d_5">
      <path d="M 26.925 174.605199 
L 705.635 174.605199 
" clip-path="url(#p0e9491ab3b)" style="fill: none; stroke: #999999; stroke-width: 0.8; stroke-linecap: round"/>
     </g>
     <g id="text_5">
      <!-- 40 -->
      <g style="fill: #262626" transform="translate(7.2 178.404418) scale(0.1 -0.1)">
       <defs>
        <path id="DejaVuSans-34" d="M 2419 4116 
L 825 1625 
L 2419 1625 
L 2419 4116 
z
M 2253 4666 
L 3047 4666 
L 3047 1625 
L 3713 1625 
L 3713 1100 
L 3047 1100 
L 3047 0 
L 2419 0 
L 2419 1100 
L 313 1100 
L 313 1709 
L 2253 4666 
z
" transform="scale(0.015625)"/>
       </defs>
       <use xlink:href="#DejaVuSans-34"/>
       <use xlink:href="#DejaVuSans-30" transform="translate(63.623047 0)"/>
      </g>
     </g>
    </g>
    <g id="ytick_6">
     <g id="line2d_6">
      <path d="M 26.925 122.594201 
L 705.635 122.594201 
" clip-path="url(#p0e9491ab3b)" style="fill: none; stroke: #999999; stroke-width: 0.8; stroke-linecap: round"/>
     </g>
     <g id="text_6">
      <!-- 50 -->
      <g style="fill: #262626" transform="translate(7.2 126.39342) scale(0.1 -0.1)">
       <defs>
        <path id="DejaVuSans-35" d="M 691 4666 
L 3169 4666 
L 3169 4134 
L 1269 4134 
L 1269 2991 
Q 1406 3038 1543 3061 
Q 1681 3084 1819 3084 
Q 2600 3084 3056 2656 
Q 3513 2228 3513 1497 
Q 3513 744 3044 326 
Q 2575 -91 1722 -91 
Q 1428 -91 1123 -41 
Q 819 9 494 109 
L 494 744 
Q 775 591 1075 516 
Q 1375 441 1709 441 
Q 2250 441 2565 725 
Q 2881 1009 2881 1497 
Q 2881 1984 2565 2268 
Q 2250 2553 1709 2553 
Q 1456 2553 1204 2497 
Q 953 2441 691 2322 
L 691 4666 
z
" transform="scale(0.015625)"/>
       </defs>
       <use xlink:href="#DejaVuSans-35"/>
       <use xlink:href="#DejaVuSans-30" transform="translate(63.623047 0)"/>
      </g>
     </g>
    </g>
    <g id="ytick_7">
     <g id="line2d_7">
      <path d="M 26.925 70.583203 
L 705.635 70.583203 
" clip-path="url(#p0e9491ab3b)" style="fill: none; stroke: #999999; stroke-width: 0.8; stroke-linecap: round"/>
     </g>
     <g id="text_7">
      <!-- 60 -->
      <g style="fill: #262626" transform="translate(7.2 74.382422) scale(0.1 -0.1)">
       <defs>
        <path id="DejaVuSans-36" d="M 2113 2584 
Q 1688 2584 1439 2293 
Q 1191 2003 1191 1497 
Q 1191 994 1439 701 
Q 1688 409 2113 409 
Q 2538 409 2786 701 
Q 3034 994 3034 1497 
Q 3034 2003 2786 2293 
Q 2538 2584 2113 2584 
z
M 3366 4563 
L 3366 3988 
Q 3128 4100 2886 4159 
Q 2644 4219 2406 4219 
Q 1781 4219 1451 3797 
Q 1122 3375 1075 2522 
Q 1259 2794 1537 2939 
Q 1816 3084 2150 3084 
Q 2853 3084 3261 2657 
Q 3669 2231 3669 1497 
Q 3669 778 3244 343 
Q 2819 -91 2113 -91 
Q 1303 -91 875 529 
Q 447 1150 447 2328 
Q 447 3434 972 4092 
Q 1497 4750 2381 4750 
Q 2619 4750 2861 4703 
Q 3103 4656 3366 4563 
z
" transform="scale(0.015625)"/>
       </defs>
       <use xlink:href="#DejaVuSans-36"/>
       <use xlink:href="#DejaVuSans-30" transform="translate(63.623047 0)"/>
      </g>
     </g>
    </g>
    <g id="ytick_8">
     <g id="line2d_8">
      <path d="M 26.925 18.572205 
L 705.635 18.572205 
" clip-path="url(#p0e9491ab3b)" style="fill: none; stroke: #999999; stroke-width: 0.8; stroke-linecap: round"/>
     </g>
     <g id="text_8">
      <!-- 70 -->
      <g style="fill: #262626" transform="translate(7.2 22.371424) scale(0.1 -0.1)">
       <defs>
        <path id="DejaVuSans-37" d="M 525 4666 
L 3525 4666 
L 3525 4397 
L 1831 0 
L 1172 0 
L 2766 4134 
L 525 4134 
L 525 4666 
z
" transform="scale(0.015625)"/>
       </defs>
       <use xlink:href="#DejaVuSans-37"/>
       <use xlink:href="#DejaVuSans-30" transform="translate(63.623047 0)"/>
      </g>
     </g>
    </g>
   </g>
   <g id="patch_3">
    <path d="M 38.236833 312.226301 
L 128.7315 312.226301 
L 128.7315 189.766405 
L 38.236833 189.766405 
L 38.236833 312.226301 
z
" clip-path="url(#p0e9491ab3b)" style="fill: #5f9e6e; stroke: #4c4c4c; stroke-width: 2; stroke-linejoin: miter"/>
   </g>
   <g id="line2d_9">
    <path d="M 83.484167 312.226301 
L 83.484167 347.177692 
" clip-path="url(#p0e9491ab3b)" style="fill: none; stroke: #4c4c4c; stroke-width: 2"/>
   </g>
   <g id="line2d_10">
    <path d="M 83.484167 189.766405 
L 83.484167 25.07358 
" clip-path="url(#p0e9491ab3b)" style="fill: none; stroke: #4c4c4c; stroke-width: 2"/>
   </g>
   <g id="line2d_11">
    <path d="M 60.8605 347.177692 
L 106.107833 347.177692 
" clip-path="url(#p0e9491ab3b)" style="fill: none; stroke: #4c4c4c; stroke-width: 2; stroke-linecap: round"/>
   </g>
   <g id="line2d_12">
    <path d="M 60.8605 25.07358 
L 106.107833 25.07358 
" clip-path="url(#p0e9491ab3b)" style="fill: none; stroke: #4c4c4c; stroke-width: 2; stroke-linecap: round"/>
   </g>
   <g id="line2d_13"/>
   <g id="patch_4">
    <path d="M 151.355167 303.956552 
L 241.849833 303.956552 
L 241.849833 255.950401 
L 151.355167 255.950401 
L 151.355167 303.956552 
z
" clip-path="url(#p0e9491ab3b)" style="fill: #5f9e6e; stroke: #4c4c4c; stroke-width: 2; stroke-linejoin: miter"/>
   </g>
   <g id="line2d_14">
    <path d="M 196.6025 303.956552 
L 196.6025 309.313685 
" clip-path="url(#p0e9491ab3b)" style="fill: none; stroke: #4c4c4c; stroke-width: 2"/>
   </g>
   <g id="line2d_15">
    <path d="M 196.6025 255.950401 
L 196.6025 213.301382 
" clip-path="url(#p0e9491ab3b)" style="fill: none; stroke: #4c4c4c; stroke-width: 2"/>
   </g>
   <g id="line2d_16">
    <path d="M 173.978833 309.313685 
L 219.226167 309.313685 
" clip-path="url(#p0e9491ab3b)" style="fill: none; stroke: #4c4c4c; stroke-width: 2; stroke-linecap: round"/>
   </g>
   <g id="line2d_17">
    <path d="M 173.978833 213.301382 
L 219.226167 213.301382 
" clip-path="url(#p0e9491ab3b)" style="fill: none; stroke: #4c4c4c; stroke-width: 2; stroke-linecap: round"/>
   </g>
   <g id="line2d_18"/>
   <g id="patch_5">
    <path d="M 264.4735 373.079169 
L 354.968167 373.079169 
L 354.968167 303.748508 
L 264.4735 303.748508 
L 264.4735 373.079169 
z
" clip-path="url(#p0e9491ab3b)" style="fill: #5f9e6e; stroke: #4c4c4c; stroke-width: 2; stroke-linejoin: miter"/>
   </g>
   <g id="line2d_19">
    <path d="M 309.720833 373.079169 
L 309.720833 379.424511 
" clip-path="url(#p0e9491ab3b)" style="fill: none; stroke: #4c4c4c; stroke-width: 2"/>
   </g>
   <g id="line2d_20">
    <path d="M 309.720833 303.748508 
L 309.720833 204.251468 
" clip-path="url(#p0e9491ab3b)" style="fill: none; stroke: #4c4c4c; stroke-width: 2"/>
   </g>
   <g id="line2d_21">
    <path d="M 287.097167 379.424511 
L 332.3445 379.424511 
" clip-path="url(#p0e9491ab3b)" style="fill: none; stroke: #4c4c4c; stroke-width: 2; stroke-linecap: round"/>
   </g>
   <g id="line2d_22">
    <path d="M 287.097167 204.251468 
L 332.3445 204.251468 
" clip-path="url(#p0e9491ab3b)" style="fill: none; stroke: #4c4c4c; stroke-width: 2; stroke-linecap: round"/>
   </g>
   <g id="line2d_23"/>
   <g id="patch_6">
    <path d="M 377.591833 368.320162 
L 468.0865 368.320162 
L 468.0865 302.903329 
L 377.591833 302.903329 
L 377.591833 368.320162 
z
" clip-path="url(#p0e9491ab3b)" style="fill: #5f9e6e; stroke: #4c4c4c; stroke-width: 2; stroke-linejoin: miter"/>
   </g>
   <g id="line2d_24">
    <path d="M 422.839167 368.320162 
L 422.839167 381.036852 
" clip-path="url(#p0e9491ab3b)" style="fill: none; stroke: #4c4c4c; stroke-width: 2"/>
   </g>
   <g id="line2d_25">
    <path d="M 422.839167 302.903329 
L 422.839167 248.044729 
" clip-path="url(#p0e9491ab3b)" style="fill: none; stroke: #4c4c4c; stroke-width: 2"/>
   </g>
   <g id="line2d_26">
    <path d="M 400.2155 381.036852 
L 445.462833 381.036852 
" clip-path="url(#p0e9491ab3b)" style="fill: none; stroke: #4c4c4c; stroke-width: 2; stroke-linecap: round"/>
   </g>
   <g id="line2d_27">
    <path d="M 400.2155 248.044729 
L 445.462833 248.044729 
" clip-path="url(#p0e9491ab3b)" style="fill: none; stroke: #4c4c4c; stroke-width: 2; stroke-linecap: round"/>
   </g>
   <g id="line2d_28"/>
   <g id="patch_7">
    <path d="M 490.710167 381.088863 
L 581.204833 381.088863 
L 581.204833 374.795532 
L 490.710167 374.795532 
L 490.710167 381.088863 
z
" clip-path="url(#p0e9491ab3b)" style="fill: #5f9e6e; stroke: #4c4c4c; stroke-width: 2; stroke-linejoin: miter"/>
   </g>
   <g id="line2d_29">
    <path d="M 535.9575 381.088863 
L 535.9575 382.54517 
" clip-path="url(#p0e9491ab3b)" style="fill: none; stroke: #4c4c4c; stroke-width: 2"/>
   </g>
   <g id="line2d_30">
    <path d="M 535.9575 374.795532 
L 535.9575 366.057684 
" clip-path="url(#p0e9491ab3b)" style="fill: none; stroke: #4c4c4c; stroke-width: 2"/>
   </g>
   <g id="line2d_31">
    <path d="M 513.333833 382.54517 
L 558.581167 382.54517 
" clip-path="url(#p0e9491ab3b)" style="fill: none; stroke: #4c4c4c; stroke-width: 2; stroke-linecap: round"/>
   </g>
   <g id="line2d_32">
    <path d="M 513.333833 366.057684 
L 558.581167 366.057684 
" clip-path="url(#p0e9491ab3b)" style="fill: none; stroke: #4c4c4c; stroke-width: 2; stroke-linecap: round"/>
   </g>
   <g id="line2d_33">
    <defs>
     <path id="m4bfb1bf185" d="M -0 3.535534 
L 3.535534 0 
L 0 -3.535534 
L -3.535534 -0 
z
" style="stroke: #4c4c4c; stroke-linejoin: miter"/>
    </defs>
    <g clip-path="url(#p0e9491ab3b)">
     <use xlink:href="#m4bfb1bf185" x="535.9575" y="352.170747" style="fill: #a9a9a9; stroke: #4c4c4c; stroke-linejoin: miter"/>
     <use xlink:href="#m4bfb1bf185" x="535.9575" y="365.32953" style="fill: #a9a9a9; stroke: #4c4c4c; stroke-linejoin: miter"/>
     <use xlink:href="#m4bfb1bf185" x="535.9575" y="359.504298" style="fill: #a9a9a9; stroke: #4c4c4c; stroke-linejoin: miter"/>
     <use xlink:href="#m4bfb1bf185" x="535.9575" y="307.4933" style="fill: #a9a9a9; stroke: #4c4c4c; stroke-linejoin: miter"/>
     <use xlink:href="#m4bfb1bf185" x="535.9575" y="337.139569" style="fill: #a9a9a9; stroke: #4c4c4c; stroke-linejoin: miter"/>
     <use xlink:href="#m4bfb1bf185" x="535.9575" y="358.5681" style="fill: #a9a9a9; stroke: #4c4c4c; stroke-linejoin: miter"/>
    </g>
   </g>
   <g id="patch_8">
    <path d="M 603.8285 381.556961 
L 694.323167 381.556961 
L 694.323167 375.887763 
L 603.8285 375.887763 
L 603.8285 381.556961 
z
" clip-path="url(#p0e9491ab3b)" style="fill: #5f9e6e; stroke: #4c4c4c; stroke-width: 2; stroke-linejoin: miter"/>
   </g>
   <g id="line2d_34">
    <path d="M 649.075833 381.556961 
L 649.075833 381.973049 
" clip-path="url(#p0e9491ab3b)" style="fill: none; stroke: #4c4c4c; stroke-width: 2"/>
   </g>
   <g id="line2d_35">
    <path d="M 649.075833 375.887763 
L 649.075833 375.159609 
" clip-path="url(#p0e9491ab3b)" style="fill: none; stroke: #4c4c4c; stroke-width: 2"/>
   </g>
   <g id="line2d_36">
    <path d="M 626.452167 381.973049 
L 671.6995 381.973049 
" clip-path="url(#p0e9491ab3b)" style="fill: none; stroke: #4c4c4c; stroke-width: 2; stroke-linecap: round"/>
   </g>
   <g id="line2d_37">
    <path d="M 626.452167 375.159609 
L 671.6995 375.159609 
" clip-path="url(#p0e9491ab3b)" style="fill: none; stroke: #4c4c4c; stroke-width: 2; stroke-linecap: round"/>
   </g>
   <g id="line2d_38">
    <g clip-path="url(#p0e9491ab3b)">
     <use xlink:href="#m4bfb1bf185" x="649.075833" y="362.260881" style="fill: #a9a9a9; stroke: #4c4c4c; stroke-linejoin: miter"/>
    </g>
   </g>
   <g id="line2d_39">
    <path d="M 38.236833 272.619926 
L 128.7315 272.619926 
" clip-path="url(#p0e9491ab3b)" style="fill: none; stroke: #4c4c4c; stroke-width: 2"/>
   </g>
   <g id="line2d_40">
    <path d="M 151.355167 298.599419 
L 241.849833 298.599419 
" clip-path="url(#p0e9491ab3b)" style="fill: none; stroke: #4c4c4c; stroke-width: 2"/>
   </g>
   <g id="line2d_41">
    <path d="M 264.4735 352.014714 
L 354.968167 352.014714 
" clip-path="url(#p0e9491ab3b)" style="fill: none; stroke: #4c4c4c; stroke-width: 2"/>
   </g>
   <g id="line2d_42">
    <path d="M 377.591833 357.345842 
L 468.0865 357.345842 
" clip-path="url(#p0e9491ab3b)" style="fill: none; stroke: #4c4c4c; stroke-width: 2"/>
   </g>
   <g id="line2d_43">
    <path d="M 490.710167 378.696357 
L 581.204833 378.696357 
" clip-path="url(#p0e9491ab3b)" style="fill: none; stroke: #4c4c4c; stroke-width: 2"/>
   </g>
   <g id="line2d_44">
    <path d="M 603.8285 379.112445 
L 694.323167 379.112445 
" clip-path="url(#p0e9491ab3b)" style="fill: none; stroke: #4c4c4c; stroke-width: 2"/>
   </g>
   <g id="patch_9">
    <path d="M 26.925 400.41875 
L 26.925 7.2 
" style="fill: none; stroke: #ffffff; stroke-width: 0.8; stroke-linejoin: miter; stroke-linecap: square"/>
   </g>
   <g id="patch_10">
    <path d="M 705.635 400.41875 
L 705.635 7.2 
" style="fill: none; stroke: #ffffff; stroke-width: 0.8; stroke-linejoin: miter; stroke-linecap: square"/>
   </g>
   <g id="patch_11">
    <path d="M 26.925 400.41875 
L 705.635 400.41875 
" style="fill: none; stroke: #ffffff; stroke-width: 0.8; stroke-linejoin: miter; stroke-linecap: square"/>
   </g>
   <g id="patch_12">
    <path d="M 26.925 7.2 
L 705.635 7.2 
" style="fill: none; stroke: #ffffff; stroke-width: 0.8; stroke-linejoin: miter; stroke-linecap: square"/>
   </g>
  </g>
 </g>
 <defs>
  <clipPath id="p0e9491ab3b">
   <rect x="26.925" y="7.2" width="678.71" height="393.21875"/>
  </clipPath>
 </defs>
</svg>
