<?xml version="1.0" encoding="utf-8" standalone="no"?>
<!DOCTYPE svg PUBLIC "-//W3C//DTD SVG 1.1//EN"
  "http://www.w3.org/Graphics/SVG/1.1/DTD/svg11.dtd">
<svg xmlns:xlink="http://www.w3.org/1999/xlink" width="712.835pt" height="407.72pt" viewBox="0 0 712.835 407.72" xmlns="http://www.w3.org/2000/svg" version="1.1">
 <metadata>
  <rdf:RDF xmlns:dc="http://purl.org/dc/elements/1.1/" xmlns:cc="http://creativecommons.org/ns#" xmlns:rdf="http://www.w3.org/1999/02/22-rdf-syntax-ns#">
   <cc:Work>
    <dc:type rdf:resource="http://purl.org/dc/dcmitype/StillImage"/>
    <dc:date>2025-04-15T11:30:06.879082</dc:date>
    <dc:format>image/svg+xml</dc:format>
    <dc:creator>
     <cc:Agent>
      <dc:title>Matplotlib v3.10.0, https://matplotlib.org/</dc:title>
     </cc:Agent>
    </dc:creator>
   </cc:Work>
  </rdf:RDF>
 </metadata>
 <defs>
  <style type="text/css">*{stroke-linejoin: round; stroke-linecap: butt}</style>
 </defs>
 <g id="figure_1">
  <g id="patch_1">
   <path d="M 0 407.72 
L 712.835 407.72 
L 712.835 0 
L 0 0 
z
" style="fill: #ffffff"/>
  </g>
  <g id="axes_1">
   <g id="patch_2">
    <path d="M 26.925 400.52 
L 705.635 400.52 
L 705.635 7.2 
L 26.925 7.2 
z
" style="fill: #ffffff"/>
   </g>
   <g id="matplotlib.axis_1"/>
   <g id="matplotlib.axis_2">
    <g id="ytick_1">
     <g id="line2d_1">
      <path d="M 26.925 382.745867 
L 705.635 382.745867 
" clip-path="url(#p5568fce630)" style="fill: none; stroke: #999999; stroke-width: 0.8; stroke-linecap: round"/>
     </g>
     <g id="text_1">
      <!-- 0 -->
      <g style="fill: #262626" transform="translate(13.5625 386.545086) scale(0.1 -0.1)">
       <defs>
        <path id="DejaVuSans-30" d="M 2034 4250 
Q 1547 4250 1301 3770 
Q 1056 3291 1056 2328 
Q 1056 1369 1301 889 
Q 1547 409 2034 409 
Q 2525 409 2770 889 
Q 3016 1369 3016 2328 
Q 3016 3291 2770 3770 
Q 2525 4250 2034 4250 
z
M 2034 4750 
Q 2819 4750 3233 4129 
Q 3647 3509 3647 2328 
Q 3647 1150 3233 529 
Q 2819 -91 2034 -91 
Q 1250 -91 836 529 
Q 422 1150 422 2328 
Q 422 3509 836 4129 
Q 1250 4750 2034 4750 
z
" transform="scale(0.015625)"/>
       </defs>
       <use xlink:href="#DejaVuSans-30"/>
      </g>
     </g>
    </g>
    <g id="ytick_2">
     <g id="line2d_2">
      <path d="M 26.925 330.721476 
L 705.635 330.721476 
" clip-path="url(#p5568fce630)" style="fill: none; stroke: #999999; stroke-width: 0.8; stroke-linecap: round"/>
     </g>
     <g id="text_2">
      <!-- 10 -->
      <g style="fill: #262626" transform="translate(7.2 334.520695) scale(0.1 -0.1)">
       <defs>
        <path id="DejaVuSans-31" d="M 794 531 
L 1825 531 
L 1825 4091 
L 703 3866 
L 703 4441 
L 1819 4666 
L 2450 4666 
L 2450 531 
L 3481 531 
L 3481 0 
L 794 0 
L 794 531 
z
" transform="scale(0.015625)"/>
       </defs>
       <use xlink:href="#DejaVuSans-31"/>
       <use xlink:href="#DejaVuSans-30" transform="translate(63.623047 0)"/>
      </g>
     </g>
    </g>
    <g id="ytick_3">
     <g id="line2d_3">
      <path d="M 26.925 278.697086 
L 705.635 278.697086 
" clip-path="url(#p5568fce630)" style="fill: none; stroke: #999999; stroke-width: 0.8; stroke-linecap: round"/>
     </g>
     <g id="text_3">
      <!-- 20 -->
      <g style="fill: #262626" transform="translate(7.2 282.496305) scale(0.1 -0.1)">
       <defs>
        <path id="DejaVuSans-32" d="M 1228 531 
L 3431 531 
L 3431 0 
L 469 0 
L 469 531 
Q 828 903 1448 1529 
Q 2069 2156 2228 2338 
Q 2531 2678 2651 2914 
Q 2772 3150 2772 3378 
Q 2772 3750 2511 3984 
Q 2250 4219 1831 4219 
Q 1534 4219 1204 4116 
Q 875 4013 500 3803 
L 500 4441 
Q 881 4594 1212 4672 
Q 1544 4750 1819 4750 
Q 2544 4750 2975 4387 
Q 3406 4025 3406 3419 
Q 3406 3131 3298 2873 
Q 3191 2616 2906 2266 
Q 2828 2175 2409 1742 
Q 1991 1309 1228 531 
z
" transform="scale(0.015625)"/>
       </defs>
       <use xlink:href="#DejaVuSans-32"/>
       <use xlink:href="#DejaVuSans-30" transform="translate(63.623047 0)"/>
      </g>
     </g>
    </g>
    <g id="ytick_4">
     <g id="line2d_4">
      <path d="M 26.925 226.672695 
L 705.635 226.672695 
" clip-path="url(#p5568fce630)" style="fill: none; stroke: #999999; stroke-width: 0.8; stroke-linecap: round"/>
     </g>
     <g id="text_4">
      <!-- 30 -->
      <g style="fill: #262626" transform="translate(7.2 230.471914) scale(0.1 -0.1)">
       <defs>
        <path id="DejaVuSans-33" d="M 2597 2516 
Q 3050 2419 3304 2112 
Q 3559 1806 3559 1356 
Q 3559 666 3084 287 
Q 2609 -91 1734 -91 
Q 1441 -91 1130 -33 
Q 819 25 488 141 
L 488 750 
Q 750 597 1062 519 
Q 1375 441 1716 441 
Q 2309 441 2620 675 
Q 2931 909 2931 1356 
Q 2931 1769 2642 2001 
Q 2353 2234 1838 2234 
L 1294 2234 
L 1294 2753 
L 1863 2753 
Q 2328 2753 2575 2939 
Q 2822 3125 2822 3475 
Q 2822 3834 2567 4026 
Q 2313 4219 1838 4219 
Q 1578 4219 1281 4162 
Q 984 4106 628 3988 
L 628 4550 
Q 988 4650 1302 4700 
Q 1616 4750 1894 4750 
Q 2613 4750 3031 4423 
Q 3450 4097 3450 3541 
Q 3450 3153 3228 2886 
Q 3006 2619 2597 2516 
z
" transform="scale(0.015625)"/>
       </defs>
       <use xlink:href="#DejaVuSans-33"/>
       <use xlink:href="#DejaVuSans-30" transform="translate(63.623047 0)"/>
      </g>
     </g>
    </g>
    <g id="ytick_5">
     <g id="line2d_5">
      <path d="M 26.925 174.648305 
L 705.635 174.648305 
" clip-path="url(#p5568fce630)" style="fill: none; stroke: #999999; stroke-width: 0.8; stroke-linecap: round"/>
     </g>
     <g id="text_5">
      <!-- 40 -->
      <g style="fill: #262626" transform="translate(7.2 178.447523) scale(0.1 -0.1)">
       <defs>
        <path id="DejaVuSans-34" d="M 2419 4116 
L 825 1625 
L 2419 1625 
L 2419 4116 
z
M 2253 4666 
L 3047 4666 
L 3047 1625 
L 3713 1625 
L 3713 1100 
L 3047 1100 
L 3047 0 
L 2419 0 
L 2419 1100 
L 313 1100 
L 313 1709 
L 2253 4666 
z
" transform="scale(0.015625)"/>
       </defs>
       <use xlink:href="#DejaVuSans-34"/>
       <use xlink:href="#DejaVuSans-30" transform="translate(63.623047 0)"/>
      </g>
     </g>
    </g>
    <g id="ytick_6">
     <g id="line2d_6">
      <path d="M 26.925 122.623914 
L 705.635 122.623914 
" clip-path="url(#p5568fce630)" style="fill: none; stroke: #999999; stroke-width: 0.8; stroke-linecap: round"/>
     </g>
     <g id="text_6">
      <!-- 50 -->
      <g style="fill: #262626" transform="translate(7.2 126.423133) scale(0.1 -0.1)">
       <defs>
        <path id="DejaVuSans-35" d="M 691 4666 
L 3169 4666 
L 3169 4134 
L 1269 4134 
L 1269 2991 
Q 1406 3038 1543 3061 
Q 1681 3084 1819 3084 
Q 2600 3084 3056 2656 
Q 3513 2228 3513 1497 
Q 3513 744 3044 326 
Q 2575 -91 1722 -91 
Q 1428 -91 1123 -41 
Q 819 9 494 109 
L 494 744 
Q 775 591 1075 516 
Q 1375 441 1709 441 
Q 2250 441 2565 725 
Q 2881 1009 2881 1497 
Q 2881 1984 2565 2268 
Q 2250 2553 1709 2553 
Q 1456 2553 1204 2497 
Q 953 2441 691 2322 
L 691 4666 
z
" transform="scale(0.015625)"/>
       </defs>
       <use xlink:href="#DejaVuSans-35"/>
       <use xlink:href="#DejaVuSans-30" transform="translate(63.623047 0)"/>
      </g>
     </g>
    </g>
    <g id="ytick_7">
     <g id="line2d_7">
      <path d="M 26.925 70.599524 
L 705.635 70.599524 
" clip-path="url(#p5568fce630)" style="fill: none; stroke: #999999; stroke-width: 0.8; stroke-linecap: round"/>
     </g>
     <g id="text_7">
      <!-- 60 -->
      <g style="fill: #262626" transform="translate(7.2 74.398742) scale(0.1 -0.1)">
       <defs>
        <path id="DejaVuSans-36" d="M 2113 2584 
Q 1688 2584 1439 2293 
Q 1191 2003 1191 1497 
Q 1191 994 1439 701 
Q 1688 409 2113 409 
Q 2538 409 2786 701 
Q 3034 994 3034 1497 
Q 3034 2003 2786 2293 
Q 2538 2584 2113 2584 
z
M 3366 4563 
L 3366 3988 
Q 3128 4100 2886 4159 
Q 2644 4219 2406 4219 
Q 1781 4219 1451 3797 
Q 1122 3375 1075 2522 
Q 1259 2794 1537 2939 
Q 1816 3084 2150 3084 
Q 2853 3084 3261 2657 
Q 3669 2231 3669 1497 
Q 3669 778 3244 343 
Q 2819 -91 2113 -91 
Q 1303 -91 875 529 
Q 447 1150 447 2328 
Q 447 3434 972 4092 
Q 1497 4750 2381 4750 
Q 2619 4750 2861 4703 
Q 3103 4656 3366 4563 
z
" transform="scale(0.015625)"/>
       </defs>
       <use xlink:href="#DejaVuSans-36"/>
       <use xlink:href="#DejaVuSans-30" transform="translate(63.623047 0)"/>
      </g>
     </g>
    </g>
    <g id="ytick_8">
     <g id="line2d_8">
      <path d="M 26.925 18.575133 
L 705.635 18.575133 
" clip-path="url(#p5568fce630)" style="fill: none; stroke: #999999; stroke-width: 0.8; stroke-linecap: round"/>
     </g>
     <g id="text_8">
      <!-- 70 -->
      <g style="fill: #262626" transform="translate(7.2 22.374352) scale(0.1 -0.1)">
       <defs>
        <path id="DejaVuSans-37" d="M 525 4666 
L 3525 4666 
L 3525 4397 
L 1831 0 
L 1172 0 
L 2766 4134 
L 525 4134 
L 525 4666 
z
" transform="scale(0.015625)"/>
       </defs>
       <use xlink:href="#DejaVuSans-37"/>
       <use xlink:href="#DejaVuSans-30" transform="translate(63.623047 0)"/>
      </g>
     </g>
    </g>
   </g>
   <g id="patch_3">
    <path d="M 34.466222 325.727135 
L 94.796 325.727135 
L 94.796 208.516183 
L 34.466222 208.516183 
L 34.466222 325.727135 
z
" clip-path="url(#p5568fce630)" style="fill: #71aec0; stroke: #5c5c5c; stroke-width: 2; stroke-linejoin: miter"/>
   </g>
   <g id="line2d_9">
    <path d="M 64.631111 325.727135 
L 64.631111 375.67055 
" clip-path="url(#p5568fce630)" style="fill: none; stroke: #5c5c5c; stroke-width: 2"/>
   </g>
   <g id="line2d_10">
    <path d="M 64.631111 208.516183 
L 64.631111 42.298255 
" clip-path="url(#p5568fce630)" style="fill: none; stroke: #5c5c5c; stroke-width: 2"/>
   </g>
   <g id="line2d_11">
    <path d="M 49.548667 375.67055 
L 79.713556 375.67055 
" clip-path="url(#p5568fce630)" style="fill: none; stroke: #5c5c5c; stroke-width: 2; stroke-linecap: round"/>
   </g>
   <g id="line2d_12">
    <path d="M 49.548667 42.298255 
L 79.713556 42.298255 
" clip-path="url(#p5568fce630)" style="fill: none; stroke: #5c5c5c; stroke-width: 2; stroke-linecap: round"/>
   </g>
   <g id="line2d_13">
    <defs>
     <path id="m39bcdd27c0" d="M -0 3.535534 
L 3.535534 0 
L 0 -3.535534 
L -3.535534 -0 
z
" style="stroke: #5c5c5c; stroke-linejoin: miter"/>
    </defs>
    <g clip-path="url(#p5568fce630)">
     <use xlink:href="#m39bcdd27c0" x="64.631111" y="27.315231" style="fill: #a9a9a9; stroke: #5c5c5c; stroke-linejoin: miter"/>
     <use xlink:href="#m39bcdd27c0" x="64.631111" y="25.078182" style="fill: #a9a9a9; stroke: #5c5c5c; stroke-linejoin: miter"/>
    </g>
   </g>
   <g id="patch_4">
    <path d="M 109.878444 309.391476 
L 170.208222 309.391476 
L 170.208222 256.274573 
L 109.878444 256.274573 
L 109.878444 309.391476 
z
" clip-path="url(#p5568fce630)" style="fill: #71aec0; stroke: #5c5c5c; stroke-width: 2; stroke-linejoin: miter"/>
   </g>
   <g id="line2d_14">
    <path d="M 140.043333 309.391476 
L 140.043333 380.352745 
" clip-path="url(#p5568fce630)" style="fill: none; stroke: #5c5c5c; stroke-width: 2"/>
   </g>
   <g id="line2d_15">
    <path d="M 140.043333 256.274573 
L 140.043333 187.290232 
" clip-path="url(#p5568fce630)" style="fill: none; stroke: #5c5c5c; stroke-width: 2"/>
   </g>
   <g id="line2d_16">
    <path d="M 124.960889 380.352745 
L 155.125778 380.352745 
" clip-path="url(#p5568fce630)" style="fill: none; stroke: #5c5c5c; stroke-width: 2; stroke-linecap: round"/>
   </g>
   <g id="line2d_17">
    <path d="M 124.960889 187.290232 
L 155.125778 187.290232 
" clip-path="url(#p5568fce630)" style="fill: none; stroke: #5c5c5c; stroke-width: 2; stroke-linecap: round"/>
   </g>
   <g id="line2d_18">
    <g clip-path="url(#p5568fce630)">
     <use xlink:href="#m39bcdd27c0" x="140.043333" y="126.0055" style="fill: #a9a9a9; stroke: #5c5c5c; stroke-linejoin: miter"/>
    </g>
   </g>
   <g id="patch_5">
    <path d="M 185.290667 359.90716 
L 245.620444 359.90716 
L 245.620444 293.003793 
L 185.290667 293.003793 
L 185.290667 359.90716 
z
" clip-path="url(#p5568fce630)" style="fill: #71aec0; stroke: #5c5c5c; stroke-width: 2; stroke-linejoin: miter"/>
   </g>
   <g id="line2d_19">
    <path d="M 215.455556 359.90716 
L 215.455556 370.260013 
" clip-path="url(#p5568fce630)" style="fill: none; stroke: #5c5c5c; stroke-width: 2"/>
   </g>
   <g id="line2d_20">
    <path d="M 215.455556 293.003793 
L 215.455556 219.909524 
" clip-path="url(#p5568fce630)" style="fill: none; stroke: #5c5c5c; stroke-width: 2"/>
   </g>
   <g id="line2d_21">
    <path d="M 200.373111 370.260013 
L 230.538 370.260013 
" clip-path="url(#p5568fce630)" style="fill: none; stroke: #5c5c5c; stroke-width: 2; stroke-linecap: round"/>
   </g>
   <g id="line2d_22">
    <path d="M 200.373111 219.909524 
L 230.538 219.909524 
" clip-path="url(#p5568fce630)" style="fill: none; stroke: #5c5c5c; stroke-width: 2; stroke-linecap: round"/>
   </g>
   <g id="line2d_23"/>
   <g id="patch_6">
    <path d="M 260.702889 363.431812 
L 321.032667 363.431812 
L 321.032667 292.886738 
L 260.702889 292.886738 
L 260.702889 363.431812 
z
" clip-path="url(#p5568fce630)" style="fill: #71aec0; stroke: #5c5c5c; stroke-width: 2; stroke-linejoin: miter"/>
   </g>
   <g id="line2d_24">
    <path d="M 290.867778 363.431812 
L 290.867778 382.225623 
" clip-path="url(#p5568fce630)" style="fill: none; stroke: #5c5c5c; stroke-width: 2"/>
   </g>
   <g id="line2d_25">
    <path d="M 290.867778 292.886738 
L 290.867778 202.741476 
" clip-path="url(#p5568fce630)" style="fill: none; stroke: #5c5c5c; stroke-width: 2"/>
   </g>
   <g id="line2d_26">
    <path d="M 275.785333 382.225623 
L 305.950222 382.225623 
" clip-path="url(#p5568fce630)" style="fill: none; stroke: #5c5c5c; stroke-width: 2; stroke-linecap: round"/>
   </g>
   <g id="line2d_27">
    <path d="M 275.785333 202.741476 
L 305.950222 202.741476 
" clip-path="url(#p5568fce630)" style="fill: none; stroke: #5c5c5c; stroke-width: 2; stroke-linecap: round"/>
   </g>
   <g id="line2d_28">
    <g clip-path="url(#p5568fce630)">
     <use xlink:href="#m39bcdd27c0" x="290.867778" y="102.594524" style="fill: #a9a9a9; stroke: #5c5c5c; stroke-linejoin: miter"/>
     <use xlink:href="#m39bcdd27c0" x="290.867778" y="91.305231" style="fill: #a9a9a9; stroke: #5c5c5c; stroke-linejoin: miter"/>
     <use xlink:href="#m39bcdd27c0" x="290.867778" y="149.4685" style="fill: #a9a9a9; stroke: #5c5c5c; stroke-linejoin: miter"/>
     <use xlink:href="#m39bcdd27c0" x="290.867778" y="172.151134" style="fill: #a9a9a9; stroke: #5c5c5c; stroke-linejoin: miter"/>
     <use xlink:href="#m39bcdd27c0" x="290.867778" y="185.833549" style="fill: #a9a9a9; stroke: #5c5c5c; stroke-linejoin: miter"/>
     <use xlink:href="#m39bcdd27c0" x="290.867778" y="164.295451" style="fill: #a9a9a9; stroke: #5c5c5c; stroke-linejoin: miter"/>
    </g>
   </g>
   <g id="patch_7">
    <path d="M 336.115111 373.160373 
L 396.444889 373.160373 
L 396.444889 307.089397 
L 336.115111 307.089397 
L 336.115111 373.160373 
z
" clip-path="url(#p5568fce630)" style="fill: #71aec0; stroke: #5c5c5c; stroke-width: 2; stroke-linejoin: miter"/>
   </g>
   <g id="line2d_29">
    <path d="M 366.28 373.160373 
L 366.28 382.537769 
" clip-path="url(#p5568fce630)" style="fill: none; stroke: #5c5c5c; stroke-width: 2"/>
   </g>
   <g id="line2d_30">
    <path d="M 366.28 307.089397 
L 366.28 231.510964 
" clip-path="url(#p5568fce630)" style="fill: none; stroke: #5c5c5c; stroke-width: 2"/>
   </g>
   <g id="line2d_31">
    <path d="M 351.197556 382.537769 
L 381.362444 382.537769 
" clip-path="url(#p5568fce630)" style="fill: none; stroke: #5c5c5c; stroke-width: 2; stroke-linecap: round"/>
   </g>
   <g id="line2d_32">
    <path d="M 351.197556 231.510964 
L 381.362444 231.510964 
" clip-path="url(#p5568fce630)" style="fill: none; stroke: #5c5c5c; stroke-width: 2; stroke-linecap: round"/>
   </g>
   <g id="line2d_33">
    <g clip-path="url(#p5568fce630)">
     <use xlink:href="#m39bcdd27c0" x="366.28" y="49.321548" style="fill: #a9a9a9; stroke: #5c5c5c; stroke-linejoin: miter"/>
     <use xlink:href="#m39bcdd27c0" x="366.28" y="198.267378" style="fill: #a9a9a9; stroke: #5c5c5c; stroke-linejoin: miter"/>
     <use xlink:href="#m39bcdd27c0" x="366.28" y="165.752134" style="fill: #a9a9a9; stroke: #5c5c5c; stroke-linejoin: miter"/>
     <use xlink:href="#m39bcdd27c0" x="366.28" y="107.328743" style="fill: #a9a9a9; stroke: #5c5c5c; stroke-linejoin: miter"/>
     <use xlink:href="#m39bcdd27c0" x="366.28" y="197.591061" style="fill: #a9a9a9; stroke: #5c5c5c; stroke-linejoin: miter"/>
    </g>
   </g>
   <g id="patch_8">
    <path d="M 411.527333 379.676428 
L 471.857111 379.676428 
L 471.857111 359.751086 
L 411.527333 359.751086 
L 411.527333 379.676428 
z
" clip-path="url(#p5568fce630)" style="fill: #71aec0; stroke: #5c5c5c; stroke-width: 2; stroke-linejoin: miter"/>
   </g>
   <g id="line2d_34">
    <path d="M 441.692222 379.676428 
L 441.692222 382.121574 
" clip-path="url(#p5568fce630)" style="fill: none; stroke: #5c5c5c; stroke-width: 2"/>
   </g>
   <g id="line2d_35">
    <path d="M 441.692222 359.751086 
L 441.692222 331.918037 
" clip-path="url(#p5568fce630)" style="fill: none; stroke: #5c5c5c; stroke-width: 2"/>
   </g>
   <g id="line2d_36">
    <path d="M 426.609778 382.121574 
L 456.774667 382.121574 
" clip-path="url(#p5568fce630)" style="fill: none; stroke: #5c5c5c; stroke-width: 2; stroke-linecap: round"/>
   </g>
   <g id="line2d_37">
    <path d="M 426.609778 331.918037 
L 456.774667 331.918037 
" clip-path="url(#p5568fce630)" style="fill: none; stroke: #5c5c5c; stroke-width: 2; stroke-linecap: round"/>
   </g>
   <g id="line2d_38">
    <g clip-path="url(#p5568fce630)">
     <use xlink:href="#m39bcdd27c0" x="441.692222" y="307.830745" style="fill: #a9a9a9; stroke: #5c5c5c; stroke-linejoin: miter"/>
     <use xlink:href="#m39bcdd27c0" x="441.692222" y="304.709281" style="fill: #a9a9a9; stroke: #5c5c5c; stroke-linejoin: miter"/>
    </g>
   </g>
   <g id="patch_9">
    <path d="M 486.939556 380.742928 
L 547.269333 380.742928 
L 547.269333 374.057794 
L 486.939556 374.057794 
L 486.939556 380.742928 
z
" clip-path="url(#p5568fce630)" style="fill: #71aec0; stroke: #5c5c5c; stroke-width: 2; stroke-linejoin: miter"/>
   </g>
   <g id="line2d_39">
    <path d="M 517.104444 380.742928 
L 517.104444 382.641818 
" clip-path="url(#p5568fce630)" style="fill: none; stroke: #5c5c5c; stroke-width: 2"/>
   </g>
   <g id="line2d_40">
    <path d="M 517.104444 374.057794 
L 517.104444 364.121135 
" clip-path="url(#p5568fce630)" style="fill: none; stroke: #5c5c5c; stroke-width: 2"/>
   </g>
   <g id="line2d_41">
    <path d="M 502.022 382.641818 
L 532.186889 382.641818 
" clip-path="url(#p5568fce630)" style="fill: none; stroke: #5c5c5c; stroke-width: 2; stroke-linecap: round"/>
   </g>
   <g id="line2d_42">
    <path d="M 502.022 364.121135 
L 532.186889 364.121135 
" clip-path="url(#p5568fce630)" style="fill: none; stroke: #5c5c5c; stroke-width: 2; stroke-linecap: round"/>
   </g>
   <g id="line2d_43">
    <g clip-path="url(#p5568fce630)">
     <use xlink:href="#m39bcdd27c0" x="517.104444" y="352.259574" style="fill: #a9a9a9; stroke: #5c5c5c; stroke-linejoin: miter"/>
     <use xlink:href="#m39bcdd27c0" x="517.104444" y="356.785696" style="fill: #a9a9a9; stroke: #5c5c5c; stroke-linejoin: miter"/>
     <use xlink:href="#m39bcdd27c0" x="517.104444" y="363.392794" style="fill: #a9a9a9; stroke: #5c5c5c; stroke-linejoin: miter"/>
     <use xlink:href="#m39bcdd27c0" x="517.104444" y="330.40933" style="fill: #a9a9a9; stroke: #5c5c5c; stroke-linejoin: miter"/>
     <use xlink:href="#m39bcdd27c0" x="517.104444" y="354.912818" style="fill: #a9a9a9; stroke: #5c5c5c; stroke-linejoin: miter"/>
     <use xlink:href="#m39bcdd27c0" x="517.104444" y="297.58194" style="fill: #a9a9a9; stroke: #5c5c5c; stroke-linejoin: miter"/>
     <use xlink:href="#m39bcdd27c0" x="517.104444" y="359.595013" style="fill: #a9a9a9; stroke: #5c5c5c; stroke-linejoin: miter"/>
     <use xlink:href="#m39bcdd27c0" x="517.104444" y="355.693184" style="fill: #a9a9a9; stroke: #5c5c5c; stroke-linejoin: miter"/>
     <use xlink:href="#m39bcdd27c0" x="517.104444" y="348.357745" style="fill: #a9a9a9; stroke: #5c5c5c; stroke-linejoin: miter"/>
     <use xlink:href="#m39bcdd27c0" x="517.104444" y="307.570623" style="fill: #a9a9a9; stroke: #5c5c5c; stroke-linejoin: miter"/>
     <use xlink:href="#m39bcdd27c0" x="517.104444" y="351.687306" style="fill: #a9a9a9; stroke: #5c5c5c; stroke-linejoin: miter"/>
     <use xlink:href="#m39bcdd27c0" x="517.104444" y="307.934793" style="fill: #a9a9a9; stroke: #5c5c5c; stroke-linejoin: miter"/>
     <use xlink:href="#m39bcdd27c0" x="517.104444" y="362.560403" style="fill: #a9a9a9; stroke: #5c5c5c; stroke-linejoin: miter"/>
     <use xlink:href="#m39bcdd27c0" x="517.104444" y="343.311379" style="fill: #a9a9a9; stroke: #5c5c5c; stroke-linejoin: miter"/>
     <use xlink:href="#m39bcdd27c0" x="517.104444" y="352.57172" style="fill: #a9a9a9; stroke: #5c5c5c; stroke-linejoin: miter"/>
     <use xlink:href="#m39bcdd27c0" x="517.104444" y="347.213208" style="fill: #a9a9a9; stroke: #5c5c5c; stroke-linejoin: miter"/>
     <use xlink:href="#m39bcdd27c0" x="517.104444" y="353.976379" style="fill: #a9a9a9; stroke: #5c5c5c; stroke-linejoin: miter"/>
     <use xlink:href="#m39bcdd27c0" x="517.104444" y="346.17272" style="fill: #a9a9a9; stroke: #5c5c5c; stroke-linejoin: miter"/>
     <use xlink:href="#m39bcdd27c0" x="517.104444" y="337.224525" style="fill: #a9a9a9; stroke: #5c5c5c; stroke-linejoin: miter"/>
     <use xlink:href="#m39bcdd27c0" x="517.104444" y="363.184696" style="fill: #a9a9a9; stroke: #5c5c5c; stroke-linejoin: miter"/>
     <use xlink:href="#m39bcdd27c0" x="517.104444" y="360.479428" style="fill: #a9a9a9; stroke: #5c5c5c; stroke-linejoin: miter"/>
     <use xlink:href="#m39bcdd27c0" x="517.104444" y="351.375159" style="fill: #a9a9a9; stroke: #5c5c5c; stroke-linejoin: miter"/>
     <use xlink:href="#m39bcdd27c0" x="517.104444" y="350.802891" style="fill: #a9a9a9; stroke: #5c5c5c; stroke-linejoin: miter"/>
     <use xlink:href="#m39bcdd27c0" x="517.104444" y="330.981598" style="fill: #a9a9a9; stroke: #5c5c5c; stroke-linejoin: miter"/>
     <use xlink:href="#m39bcdd27c0" x="517.104444" y="358.658574" style="fill: #a9a9a9; stroke: #5c5c5c; stroke-linejoin: miter"/>
     <use xlink:href="#m39bcdd27c0" x="517.104444" y="357.462013" style="fill: #a9a9a9; stroke: #5c5c5c; stroke-linejoin: miter"/>
     <use xlink:href="#m39bcdd27c0" x="517.104444" y="362.04016" style="fill: #a9a9a9; stroke: #5c5c5c; stroke-linejoin: miter"/>
     <use xlink:href="#m39bcdd27c0" x="517.104444" y="357.357964" style="fill: #a9a9a9; stroke: #5c5c5c; stroke-linejoin: miter"/>
     <use xlink:href="#m39bcdd27c0" x="517.104444" y="348.930013" style="fill: #a9a9a9; stroke: #5c5c5c; stroke-linejoin: miter"/>
    </g>
   </g>
   <g id="patch_10">
    <path d="M 562.351778 380.378757 
L 622.681556 380.378757 
L 622.681556 375.43644 
L 562.351778 375.43644 
L 562.351778 380.378757 
z
" clip-path="url(#p5568fce630)" style="fill: #71aec0; stroke: #5c5c5c; stroke-width: 2; stroke-linejoin: miter"/>
   </g>
   <g id="line2d_44">
    <path d="M 592.516667 380.378757 
L 592.516667 382.121574 
" clip-path="url(#p5568fce630)" style="fill: none; stroke: #5c5c5c; stroke-width: 2"/>
   </g>
   <g id="line2d_45">
    <path d="M 592.516667 375.43644 
L 592.516667 374.734111 
" clip-path="url(#p5568fce630)" style="fill: none; stroke: #5c5c5c; stroke-width: 2"/>
   </g>
   <g id="line2d_46">
    <path d="M 577.434222 382.121574 
L 607.599111 382.121574 
" clip-path="url(#p5568fce630)" style="fill: none; stroke: #5c5c5c; stroke-width: 2; stroke-linecap: round"/>
   </g>
   <g id="line2d_47">
    <path d="M 577.434222 374.734111 
L 607.599111 374.734111 
" clip-path="url(#p5568fce630)" style="fill: none; stroke: #5c5c5c; stroke-width: 2; stroke-linecap: round"/>
   </g>
   <g id="line2d_48">
    <g clip-path="url(#p5568fce630)">
     <use xlink:href="#m39bcdd27c0" x="592.516667" y="104.935621" style="fill: #a9a9a9; stroke: #5c5c5c; stroke-linejoin: miter"/>
     <use xlink:href="#m39bcdd27c0" x="592.516667" y="359.386916" style="fill: #a9a9a9; stroke: #5c5c5c; stroke-linejoin: miter"/>
    </g>
   </g>
   <g id="patch_11">
    <path d="M 637.764 380.951025 
L 698.093778 380.951025 
L 698.093778 377.413367 
L 637.764 377.413367 
L 637.764 380.951025 
z
" clip-path="url(#p5568fce630)" style="fill: #71aec0; stroke: #5c5c5c; stroke-width: 2; stroke-linejoin: miter"/>
   </g>
   <g id="line2d_49">
    <path d="M 667.928889 380.951025 
L 667.928889 382.06955 
" clip-path="url(#p5568fce630)" style="fill: none; stroke: #5c5c5c; stroke-width: 2"/>
   </g>
   <g id="line2d_50">
    <path d="M 667.928889 377.413367 
L 667.928889 374.265891 
" clip-path="url(#p5568fce630)" style="fill: none; stroke: #5c5c5c; stroke-width: 2"/>
   </g>
   <g id="line2d_51">
    <path d="M 652.846444 382.06955 
L 683.011333 382.06955 
" clip-path="url(#p5568fce630)" style="fill: none; stroke: #5c5c5c; stroke-width: 2; stroke-linecap: round"/>
   </g>
   <g id="line2d_52">
    <path d="M 652.846444 374.265891 
L 683.011333 374.265891 
" clip-path="url(#p5568fce630)" style="fill: none; stroke: #5c5c5c; stroke-width: 2; stroke-linecap: round"/>
   </g>
   <g id="line2d_53">
    <g clip-path="url(#p5568fce630)">
     <use xlink:href="#m39bcdd27c0" x="667.928889" y="366.046038" style="fill: #a9a9a9; stroke: #5c5c5c; stroke-linejoin: miter"/>
     <use xlink:href="#m39bcdd27c0" x="667.928889" y="168.821573" style="fill: #a9a9a9; stroke: #5c5c5c; stroke-linejoin: miter"/>
     <use xlink:href="#m39bcdd27c0" x="667.928889" y="365.681867" style="fill: #a9a9a9; stroke: #5c5c5c; stroke-linejoin: miter"/>
     <use xlink:href="#m39bcdd27c0" x="667.928889" y="370.988355" style="fill: #a9a9a9; stroke: #5c5c5c; stroke-linejoin: miter"/>
     <use xlink:href="#m39bcdd27c0" x="667.928889" y="368.127013" style="fill: #a9a9a9; stroke: #5c5c5c; stroke-linejoin: miter"/>
     <use xlink:href="#m39bcdd27c0" x="667.928889" y="362.352306" style="fill: #a9a9a9; stroke: #5c5c5c; stroke-linejoin: miter"/>
     <use xlink:href="#m39bcdd27c0" x="667.928889" y="354.756745" style="fill: #a9a9a9; stroke: #5c5c5c; stroke-linejoin: miter"/>
     <use xlink:href="#m39bcdd27c0" x="667.928889" y="356.993794" style="fill: #a9a9a9; stroke: #5c5c5c; stroke-linejoin: miter"/>
    </g>
   </g>
   <g id="line2d_54">
    <path d="M 34.466222 279.529476 
L 94.796 279.529476 
" clip-path="url(#p5568fce630)" style="fill: none; stroke: #5c5c5c; stroke-width: 2"/>
   </g>
   <g id="line2d_55">
    <path d="M 109.878444 282.026647 
L 170.208222 282.026647 
" clip-path="url(#p5568fce630)" style="fill: none; stroke: #5c5c5c; stroke-width: 2"/>
   </g>
   <g id="line2d_56">
    <path d="M 185.290667 322.917818 
L 245.620444 322.917818 
" clip-path="url(#p5568fce630)" style="fill: none; stroke: #5c5c5c; stroke-width: 2"/>
   </g>
   <g id="line2d_57">
    <path d="M 260.702889 333.322696 
L 321.032667 333.322696 
" clip-path="url(#p5568fce630)" style="fill: none; stroke: #5c5c5c; stroke-width: 2"/>
   </g>
   <g id="line2d_58">
    <path d="M 336.115111 352.129513 
L 396.444889 352.129513 
" clip-path="url(#p5568fce630)" style="fill: none; stroke: #5c5c5c; stroke-width: 2"/>
   </g>
   <g id="line2d_59">
    <path d="M 411.527333 373.173379 
L 471.857111 373.173379 
" clip-path="url(#p5568fce630)" style="fill: none; stroke: #5c5c5c; stroke-width: 2"/>
   </g>
   <g id="line2d_60">
    <path d="M 486.939556 378.323794 
L 547.269333 378.323794 
" clip-path="url(#p5568fce630)" style="fill: none; stroke: #5c5c5c; stroke-width: 2"/>
   </g>
   <g id="line2d_61">
    <path d="M 562.351778 379.46833 
L 622.681556 379.46833 
" clip-path="url(#p5568fce630)" style="fill: none; stroke: #5c5c5c; stroke-width: 2"/>
   </g>
   <g id="line2d_62">
    <path d="M 637.764 380.144647 
L 698.093778 380.144647 
" clip-path="url(#p5568fce630)" style="fill: none; stroke: #5c5c5c; stroke-width: 2"/>
   </g>
   <g id="patch_12">
    <path d="M 26.925 400.52 
L 26.925 7.2 
" style="fill: none; stroke: #ffffff; stroke-width: 0.8; stroke-linejoin: miter; stroke-linecap: square"/>
   </g>
   <g id="patch_13">
    <path d="M 705.635 400.52 
L 705.635 7.2 
" style="fill: none; stroke: #ffffff; stroke-width: 0.8; stroke-linejoin: miter; stroke-linecap: square"/>
   </g>
   <g id="patch_14">
    <path d="M 26.925 400.52 
L 705.635 400.52 
" style="fill: none; stroke: #ffffff; stroke-width: 0.8; stroke-linejoin: miter; stroke-linecap: square"/>
   </g>
   <g id="patch_15">
    <path d="M 26.925 7.2 
L 705.635 7.2 
" style="fill: none; stroke: #ffffff; stroke-width: 0.8; stroke-linejoin: miter; stroke-linecap: square"/>
   </g>
  </g>
 </g>
 <defs>
  <clipPath id="p5568fce630">
   <rect x="26.925" y="7.2" width="678.71" height="393.32"/>
  </clipPath>
 </defs>
</svg>
